<svg width="80" height="80" viewBox="0 0 80 80" fill="none" xmlns="http://www.w3.org/2000/svg">
<path fill-rule="evenodd" clip-rule="evenodd" d="M53.3346 29.9998C53.3346 33.5361 51.9299 36.9274 49.4294 39.4279C46.9289 41.9284 43.5375 43.3332 40.0013 43.3332C36.4651 43.3332 33.0737 41.9284 30.5732 39.4279C28.0727 36.9274 26.668 33.5361 26.668 29.9998C26.668 26.4636 28.0727 23.0722 30.5732 20.5717C33.0737 18.0713 36.4651 16.6665 40.0013 16.6665C43.5375 16.6665 46.9289 18.0713 49.4294 20.5717C51.9299 23.0722 53.3346 26.4636 53.3346 29.9998ZM46.668 29.9998C46.668 31.768 45.9656 33.4636 44.7153 34.7139C43.4651 35.9641 41.7694 36.6665 40.0013 36.6665C38.2332 36.6665 36.5375 35.9641 35.2873 34.7139C34.037 33.4636 33.3346 31.768 33.3346 29.9998C33.3346 28.2317 34.037 26.536 35.2873 25.2858C36.5375 24.0356 38.2332 23.3332 40.0013 23.3332C41.7694 23.3332 43.4651 24.0356 44.7153 25.2858C45.9656 26.536 46.668 28.2317 46.668 29.9998Z" fill="#377DFF"/>
<path fill-rule="evenodd" clip-rule="evenodd" d="M40.0007 3.33325C19.7507 3.33325 3.33398 19.7499 3.33398 39.9999C3.33398 60.2499 19.7507 76.6666 40.0007 76.6666C60.2507 76.6666 76.6673 60.2499 76.6673 39.9999C76.6673 19.7499 60.2507 3.33325 40.0007 3.33325ZM10.0007 39.9999C10.0007 46.9666 12.3773 53.3799 16.3607 58.4732C19.1581 54.7996 22.767 51.8224 26.9054 49.7743C31.0439 47.7262 35.5998 46.6626 40.2173 46.6666C44.7751 46.6623 49.2737 47.6983 53.3704 49.6959C57.4671 51.6934 61.0539 54.5997 63.8573 58.1932C66.7455 54.4053 68.6901 49.984 69.5303 45.2952C70.3705 40.6065 70.0821 35.785 68.689 31.2299C67.2958 26.6747 64.8381 22.5167 61.5189 19.1C58.1998 15.6833 54.1148 13.1061 49.6019 11.5816C45.089 10.0571 40.278 9.62916 35.5669 10.3332C30.8557 11.0372 26.38 12.8529 22.5099 15.6301C18.6398 18.4073 15.4867 22.0662 13.3114 26.3039C11.1361 30.5417 10.0013 35.2365 10.0007 39.9999ZM40.0007 69.9999C33.1138 70.0103 26.4349 67.6411 21.094 63.2933C23.2438 60.2157 26.1051 57.703 29.4346 55.9689C32.7641 54.2348 36.4633 53.3306 40.2173 53.3332C43.9245 53.3303 47.5789 54.2118 50.8771 55.9047C54.1752 57.5975 57.0219 60.0528 59.1807 63.0666C53.7983 67.5556 47.0093 70.0097 40.0007 69.9999Z" fill="#377DFF"/>
</svg>
