<svg width="200" height="233" viewBox="0 0 200 233" fill="none" xmlns="http://www.w3.org/2000/svg">
<path d="M1.25392 1.58234C1.94644 1.58234 2.50784 1.22812 2.50784 0.791171C2.50784 0.354219 1.94644 0 1.25392 0C0.561398 0 0 0.354219 0 0.791171C0 1.22812 0.561398 1.58234 1.25392 1.58234Z" fill="#377DFF"/>
<path d="M29.4688 1.58234C30.1613 1.58234 30.7227 1.22812 30.7227 0.791171C30.7227 0.354219 30.1613 0 29.4688 0C28.7763 0 28.2148 0.354219 28.2148 0.791171C28.2148 1.22812 28.7763 1.58234 29.4688 1.58234Z" fill="#377DFF"/>
<path d="M57.6797 1.58234C58.3722 1.58234 58.9336 1.22812 58.9336 0.791171C58.9336 0.354219 58.3722 0 57.6797 0C56.9872 0 56.4258 0.354219 56.4258 0.791171C56.4258 1.22812 56.9872 1.58234 57.6797 1.58234Z" fill="#377DFF"/>
<path d="M85.8945 1.58234C86.587 1.58234 87.1485 1.22812 87.1485 0.791171C87.1485 0.354219 86.587 0 85.8945 0C85.2021 0 84.6406 0.354219 84.6406 0.791171C84.6406 1.22812 85.2021 1.58234 85.8945 1.58234Z" fill="#377DFF"/>
<path d="M114.105 1.58234C114.798 1.58234 115.359 1.22812 115.359 0.791171C115.359 0.354219 114.798 0 114.105 0C113.413 0 112.852 0.354219 112.852 0.791171C112.852 1.22812 113.413 1.58234 114.105 1.58234Z" fill="#377DFF"/>
<path d="M142.32 1.58234C143.013 1.58234 143.574 1.22812 143.574 0.791171C143.574 0.354219 143.013 0 142.32 0C141.628 0 141.066 0.354219 141.066 0.791171C141.066 1.22812 141.628 1.58234 142.32 1.58234Z" fill="#377DFF"/>
<path d="M1.25392 19.3836C1.94644 19.3836 2.50784 19.0294 2.50784 18.5924C2.50784 18.1555 1.94644 17.8013 1.25392 17.8013C0.561398 17.8013 0 18.1555 0 18.5924C0 19.0294 0.561398 19.3836 1.25392 19.3836Z" fill="#377DFF"/>
<path d="M29.4688 19.3836C30.1613 19.3836 30.7227 19.0294 30.7227 18.5924C30.7227 18.1555 30.1613 17.8013 29.4688 17.8013C28.7763 17.8013 28.2148 18.1555 28.2148 18.5924C28.2148 19.0294 28.7763 19.3836 29.4688 19.3836Z" fill="#377DFF"/>
<path d="M57.6797 19.3836C58.3722 19.3836 58.9336 19.0294 58.9336 18.5924C58.9336 18.1555 58.3722 17.8013 57.6797 17.8013C56.9872 17.8013 56.4258 18.1555 56.4258 18.5924C56.4258 19.0294 56.9872 19.3836 57.6797 19.3836Z" fill="#377DFF"/>
<path d="M85.8945 19.3836C86.587 19.3836 87.1485 19.0294 87.1485 18.5924C87.1485 18.1555 86.587 17.8013 85.8945 17.8013C85.2021 17.8013 84.6406 18.1555 84.6406 18.5924C84.6406 19.0294 85.2021 19.3836 85.8945 19.3836Z" fill="#377DFF"/>
<path d="M114.105 19.3836C114.798 19.3836 115.359 19.0294 115.359 18.5924C115.359 18.1555 114.798 17.8013 114.105 17.8013C113.413 17.8013 112.852 18.1555 112.852 18.5924C112.852 19.0294 113.413 19.3836 114.105 19.3836Z" fill="#377DFF"/>
<path d="M142.32 19.3836C143.013 19.3836 143.574 19.0294 143.574 18.5924C143.574 18.1555 143.013 17.8013 142.32 17.8013C141.628 17.8013 141.066 18.1555 141.066 18.5924C141.066 19.0294 141.628 19.3836 142.32 19.3836Z" fill="#377DFF"/>
<path d="M1.25392 37.1849C1.94644 37.1849 2.50784 36.8306 2.50784 36.3937C2.50784 35.9568 1.94644 35.6025 1.25392 35.6025C0.561398 35.6025 0 35.9568 0 36.3937C0 36.8306 0.561398 37.1849 1.25392 37.1849Z" fill="#377DFF"/>
<path d="M29.4688 37.1849C30.1613 37.1849 30.7227 36.8306 30.7227 36.3937C30.7227 35.9568 30.1613 35.6025 29.4688 35.6025C28.7763 35.6025 28.2148 35.9568 28.2148 36.3937C28.2148 36.8306 28.7763 37.1849 29.4688 37.1849Z" fill="#377DFF"/>
<path d="M57.6797 37.1849C58.3722 37.1849 58.9336 36.8306 58.9336 36.3937C58.9336 35.9568 58.3722 35.6025 57.6797 35.6025C56.9872 35.6025 56.4258 35.9568 56.4258 36.3937C56.4258 36.8306 56.9872 37.1849 57.6797 37.1849Z" fill="#377DFF"/>
<path d="M85.8945 37.1849C86.587 37.1849 87.1485 36.8306 87.1485 36.3937C87.1485 35.9568 86.587 35.6025 85.8945 35.6025C85.2021 35.6025 84.6406 35.9568 84.6406 36.3937C84.6406 36.8306 85.2021 37.1849 85.8945 37.1849Z" fill="#377DFF"/>
<path d="M114.105 37.1849C114.798 37.1849 115.359 36.8306 115.359 36.3937C115.359 35.9568 114.798 35.6025 114.105 35.6025C113.413 35.6025 112.852 35.9568 112.852 36.3937C112.852 36.8306 113.413 37.1849 114.105 37.1849Z" fill="#377DFF"/>
<path d="M142.32 37.1849C143.013 37.1849 143.574 36.8306 143.574 36.3937C143.574 35.9568 143.013 35.6025 142.32 35.6025C141.628 35.6025 141.066 35.9568 141.066 36.3937C141.066 36.8306 141.628 37.1849 142.32 37.1849Z" fill="#377DFF"/>
<path d="M1.25392 54.9862C1.94644 54.9862 2.50784 54.6319 2.50784 54.195C2.50784 53.7581 1.94644 53.4038 1.25392 53.4038C0.561398 53.4038 0 53.7581 0 54.195C0 54.6319 0.561398 54.9862 1.25392 54.9862Z" fill="#377DFF"/>
<path d="M29.4688 54.9862C30.1613 54.9862 30.7227 54.6319 30.7227 54.195C30.7227 53.7581 30.1613 53.4038 29.4688 53.4038C28.7763 53.4038 28.2148 53.7581 28.2148 54.195C28.2148 54.6319 28.7763 54.9862 29.4688 54.9862Z" fill="#377DFF"/>
<path d="M57.6797 54.9862C58.3722 54.9862 58.9336 54.6319 58.9336 54.195C58.9336 53.7581 58.3722 53.4038 57.6797 53.4038C56.9872 53.4038 56.4258 53.7581 56.4258 54.195C56.4258 54.6319 56.9872 54.9862 57.6797 54.9862Z" fill="#377DFF"/>
<path d="M85.8945 54.9862C86.587 54.9862 87.1485 54.6319 87.1485 54.195C87.1485 53.7581 86.587 53.4038 85.8945 53.4038C85.2021 53.4038 84.6406 53.7581 84.6406 54.195C84.6406 54.6319 85.2021 54.9862 85.8945 54.9862Z" fill="#377DFF"/>
<path d="M114.105 54.9862C114.798 54.9862 115.359 54.6319 115.359 54.195C115.359 53.7581 114.798 53.4038 114.105 53.4038C113.413 53.4038 112.852 53.7581 112.852 54.195C112.852 54.6319 113.413 54.9862 114.105 54.9862Z" fill="#377DFF"/>
<path d="M142.32 54.9862C143.013 54.9862 143.574 54.6319 143.574 54.195C143.574 53.7581 143.013 53.4038 142.32 53.4038C141.628 53.4038 141.066 53.7581 141.066 54.195C141.066 54.6319 141.628 54.9862 142.32 54.9862Z" fill="#377DFF"/>
<path d="M1.25392 72.788C1.94644 72.788 2.50784 72.4337 2.50784 71.9968C2.50784 71.5598 1.94644 71.2056 1.25392 71.2056C0.561398 71.2056 0 71.5598 0 71.9968C0 72.4337 0.561398 72.788 1.25392 72.788Z" fill="#377DFF"/>
<path d="M29.4688 72.788C30.1613 72.788 30.7227 72.4337 30.7227 71.9968C30.7227 71.5598 30.1613 71.2056 29.4688 71.2056C28.7763 71.2056 28.2148 71.5598 28.2148 71.9968C28.2148 72.4337 28.7763 72.788 29.4688 72.788Z" fill="#377DFF"/>
<path d="M57.6797 72.788C58.3722 72.788 58.9336 72.4337 58.9336 71.9968C58.9336 71.5598 58.3722 71.2056 57.6797 71.2056C56.9872 71.2056 56.4258 71.5598 56.4258 71.9968C56.4258 72.4337 56.9872 72.788 57.6797 72.788Z" fill="#377DFF"/>
<path d="M85.8945 72.788C86.587 72.788 87.1485 72.4337 87.1485 71.9968C87.1485 71.5598 86.587 71.2056 85.8945 71.2056C85.2021 71.2056 84.6406 71.5598 84.6406 71.9968C84.6406 72.4337 85.2021 72.788 85.8945 72.788Z" fill="#377DFF"/>
<path d="M114.105 72.788C114.798 72.788 115.359 72.4337 115.359 71.9968C115.359 71.5598 114.798 71.2056 114.105 71.2056C113.413 71.2056 112.852 71.5598 112.852 71.9968C112.852 72.4337 113.413 72.788 114.105 72.788Z" fill="#377DFF"/>
<path d="M142.32 72.788C143.013 72.788 143.574 72.4337 143.574 71.9968C143.574 71.5598 143.013 71.2056 142.32 71.2056C141.628 71.2056 141.066 71.5598 141.066 71.9968C141.066 72.4337 141.628 72.788 142.32 72.788Z" fill="#377DFF"/>
<path d="M1.25392 90.5892C1.94644 90.5892 2.50784 90.2349 2.50784 89.798C2.50784 89.3611 1.94644 89.0068 1.25392 89.0068C0.561398 89.0068 0 89.3611 0 89.798C0 90.2349 0.561398 90.5892 1.25392 90.5892Z" fill="#377DFF"/>
<path d="M29.4688 90.5892C30.1613 90.5892 30.7227 90.2349 30.7227 89.798C30.7227 89.3611 30.1613 89.0068 29.4688 89.0068C28.7763 89.0068 28.2148 89.3611 28.2148 89.798C28.2148 90.2349 28.7763 90.5892 29.4688 90.5892Z" fill="#377DFF"/>
<path d="M57.6797 90.5892C58.3722 90.5892 58.9336 90.2349 58.9336 89.798C58.9336 89.3611 58.3722 89.0068 57.6797 89.0068C56.9872 89.0068 56.4258 89.3611 56.4258 89.798C56.4258 90.2349 56.9872 90.5892 57.6797 90.5892Z" fill="#377DFF"/>
<path d="M85.8945 90.5892C86.587 90.5892 87.1485 90.2349 87.1485 89.798C87.1485 89.3611 86.587 89.0068 85.8945 89.0068C85.2021 89.0068 84.6406 89.3611 84.6406 89.798C84.6406 90.2349 85.2021 90.5892 85.8945 90.5892Z" fill="#377DFF"/>
<path d="M114.105 90.5892C114.798 90.5892 115.359 90.2349 115.359 89.798C115.359 89.3611 114.798 89.0068 114.105 89.0068C113.413 89.0068 112.852 89.3611 112.852 89.798C112.852 90.2349 113.413 90.5892 114.105 90.5892Z" fill="#377DFF"/>
<path d="M142.32 90.5892C143.013 90.5892 143.574 90.2349 143.574 89.798C143.574 89.3611 143.013 89.0068 142.32 89.0068C141.628 89.0068 141.066 89.3611 141.066 89.798C141.066 90.2349 141.628 90.5892 142.32 90.5892Z" fill="#377DFF"/>
<path d="M1.25392 108.39C1.94644 108.39 2.50784 108.036 2.50784 107.599C2.50784 107.162 1.94644 106.808 1.25392 106.808C0.561398 106.808 0 107.162 0 107.599C0 108.036 0.561398 108.39 1.25392 108.39Z" fill="#377DFF"/>
<path d="M29.4688 108.39C30.1613 108.39 30.7227 108.036 30.7227 107.599C30.7227 107.162 30.1613 106.808 29.4688 106.808C28.7763 106.808 28.2148 107.162 28.2148 107.599C28.2148 108.036 28.7763 108.39 29.4688 108.39Z" fill="#377DFF"/>
<path d="M57.6797 108.39C58.3722 108.39 58.9336 108.036 58.9336 107.599C58.9336 107.162 58.3722 106.808 57.6797 106.808C56.9872 106.808 56.4258 107.162 56.4258 107.599C56.4258 108.036 56.9872 108.39 57.6797 108.39Z" fill="#377DFF"/>
<path d="M85.8945 108.39C86.587 108.39 87.1485 108.036 87.1485 107.599C87.1485 107.162 86.587 106.808 85.8945 106.808C85.2021 106.808 84.6406 107.162 84.6406 107.599C84.6406 108.036 85.2021 108.39 85.8945 108.39Z" fill="#377DFF"/>
<path d="M114.105 108.39C114.798 108.39 115.359 108.036 115.359 107.599C115.359 107.162 114.798 106.808 114.105 106.808C113.413 106.808 112.852 107.162 112.852 107.599C112.852 108.036 113.413 108.39 114.105 108.39Z" fill="#377DFF"/>
<path d="M142.32 108.39C143.013 108.39 143.574 108.036 143.574 107.599C143.574 107.162 143.013 106.808 142.32 106.808C141.628 106.808 141.066 107.162 141.066 107.599C141.066 108.036 141.628 108.39 142.32 108.39Z" fill="#377DFF"/>
<path d="M1.25392 126.192C1.94644 126.192 2.50784 125.837 2.50784 125.401C2.50784 124.964 1.94644 124.609 1.25392 124.609C0.561398 124.609 0 124.964 0 125.401C0 125.837 0.561398 126.192 1.25392 126.192Z" fill="#377DFF"/>
<path d="M29.4688 126.192C30.1613 126.192 30.7227 125.837 30.7227 125.401C30.7227 124.964 30.1613 124.609 29.4688 124.609C28.7763 124.609 28.2148 124.964 28.2148 125.401C28.2148 125.837 28.7763 126.192 29.4688 126.192Z" fill="#377DFF"/>
<path d="M57.6797 126.192C58.3722 126.192 58.9336 125.837 58.9336 125.401C58.9336 124.964 58.3722 124.609 57.6797 124.609C56.9872 124.609 56.4258 124.964 56.4258 125.401C56.4258 125.837 56.9872 126.192 57.6797 126.192Z" fill="#377DFF"/>
<path d="M85.8945 126.192C86.587 126.192 87.1485 125.837 87.1485 125.401C87.1485 124.964 86.587 124.609 85.8945 124.609C85.2021 124.609 84.6406 124.964 84.6406 125.401C84.6406 125.837 85.2021 126.192 85.8945 126.192Z" fill="#377DFF"/>
<path d="M114.105 126.192C114.798 126.192 115.359 125.837 115.359 125.401C115.359 124.964 114.798 124.609 114.105 124.609C113.413 124.609 112.852 124.964 112.852 125.401C112.852 125.837 113.413 126.192 114.105 126.192Z" fill="#377DFF"/>
<path d="M142.32 126.192C143.013 126.192 143.574 125.837 143.574 125.401C143.574 124.964 143.013 124.609 142.32 124.609C141.628 124.609 141.066 124.964 141.066 125.401C141.066 125.837 141.628 126.192 142.32 126.192Z" fill="#377DFF"/>
<path d="M1.25392 143.993C1.94644 143.993 2.50784 143.639 2.50784 143.202C2.50784 142.765 1.94644 142.411 1.25392 142.411C0.561398 142.411 0 142.765 0 143.202C0 143.639 0.561398 143.993 1.25392 143.993Z" fill="#377DFF"/>
<path d="M29.4688 143.993C30.1613 143.993 30.7227 143.639 30.7227 143.202C30.7227 142.765 30.1613 142.411 29.4688 142.411C28.7763 142.411 28.2148 142.765 28.2148 143.202C28.2148 143.639 28.7763 143.993 29.4688 143.993Z" fill="#377DFF"/>
<path d="M57.6797 143.993C58.3722 143.993 58.9336 143.639 58.9336 143.202C58.9336 142.765 58.3722 142.411 57.6797 142.411C56.9872 142.411 56.4258 142.765 56.4258 143.202C56.4258 143.639 56.9872 143.993 57.6797 143.993Z" fill="#377DFF"/>
<path d="M85.8945 143.993C86.587 143.993 87.1485 143.639 87.1485 143.202C87.1485 142.765 86.587 142.411 85.8945 142.411C85.2021 142.411 84.6406 142.765 84.6406 143.202C84.6406 143.639 85.2021 143.993 85.8945 143.993Z" fill="#377DFF"/>
<path d="M114.105 143.993C114.798 143.993 115.359 143.639 115.359 143.202C115.359 142.765 114.798 142.411 114.105 142.411C113.413 142.411 112.852 142.765 112.852 143.202C112.852 143.639 113.413 143.993 114.105 143.993Z" fill="#377DFF"/>
<path d="M142.32 143.993C143.013 143.993 143.574 143.639 143.574 143.202C143.574 142.765 143.013 142.411 142.32 142.411C141.628 142.411 141.066 142.765 141.066 143.202C141.066 143.639 141.628 143.993 142.32 143.993Z" fill="#377DFF"/>
<path d="M1.25392 161.794C1.94644 161.794 2.50784 161.44 2.50784 161.003C2.50784 160.566 1.94644 160.212 1.25392 160.212C0.561398 160.212 0 160.566 0 161.003C0 161.44 0.561398 161.794 1.25392 161.794Z" fill="#377DFF"/>
<path d="M29.4688 161.794C30.1613 161.794 30.7227 161.44 30.7227 161.003C30.7227 160.566 30.1613 160.212 29.4688 160.212C28.7763 160.212 28.2148 160.566 28.2148 161.003C28.2148 161.44 28.7763 161.794 29.4688 161.794Z" fill="#377DFF"/>
<path d="M57.6797 161.794C58.3722 161.794 58.9336 161.44 58.9336 161.003C58.9336 160.566 58.3722 160.212 57.6797 160.212C56.9872 160.212 56.4258 160.566 56.4258 161.003C56.4258 161.44 56.9872 161.794 57.6797 161.794Z" fill="#377DFF"/>
<path d="M85.8945 161.794C86.587 161.794 87.1485 161.44 87.1485 161.003C87.1485 160.566 86.587 160.212 85.8945 160.212C85.2021 160.212 84.6406 160.566 84.6406 161.003C84.6406 161.44 85.2021 161.794 85.8945 161.794Z" fill="#377DFF"/>
<path d="M114.105 161.794C114.798 161.794 115.359 161.44 115.359 161.003C115.359 160.566 114.798 160.212 114.105 160.212C113.413 160.212 112.852 160.566 112.852 161.003C112.852 161.44 113.413 161.794 114.105 161.794Z" fill="#377DFF"/>
<path d="M142.32 161.794C143.013 161.794 143.574 161.44 143.574 161.003C143.574 160.566 143.013 160.212 142.32 160.212C141.628 160.212 141.066 160.566 141.066 161.003C141.066 161.44 141.628 161.794 142.32 161.794Z" fill="#377DFF"/>
<path d="M1.25392 179.596C1.94644 179.596 2.50784 179.242 2.50784 178.805C2.50784 178.368 1.94644 178.014 1.25392 178.014C0.561398 178.014 0 178.368 0 178.805C0 179.242 0.561398 179.596 1.25392 179.596Z" fill="#377DFF"/>
<path d="M29.4688 179.596C30.1613 179.596 30.7227 179.242 30.7227 178.805C30.7227 178.368 30.1613 178.014 29.4688 178.014C28.7763 178.014 28.2148 178.368 28.2148 178.805C28.2148 179.242 28.7763 179.596 29.4688 179.596Z" fill="#377DFF"/>
<path d="M57.6797 179.596C58.3722 179.596 58.9336 179.242 58.9336 178.805C58.9336 178.368 58.3722 178.014 57.6797 178.014C56.9872 178.014 56.4258 178.368 56.4258 178.805C56.4258 179.242 56.9872 179.596 57.6797 179.596Z" fill="#377DFF"/>
<path d="M85.8945 179.596C86.587 179.596 87.1485 179.242 87.1485 178.805C87.1485 178.368 86.587 178.014 85.8945 178.014C85.2021 178.014 84.6406 178.368 84.6406 178.805C84.6406 179.242 85.2021 179.596 85.8945 179.596Z" fill="#377DFF"/>
<path d="M114.105 179.596C114.798 179.596 115.359 179.242 115.359 178.805C115.359 178.368 114.798 178.014 114.105 178.014C113.413 178.014 112.852 178.368 112.852 178.805C112.852 179.242 113.413 179.596 114.105 179.596Z" fill="#377DFF"/>
<path d="M142.32 179.596C143.013 179.596 143.574 179.242 143.574 178.805C143.574 178.368 143.013 178.014 142.32 178.014C141.628 178.014 141.066 178.368 141.066 178.805C141.066 179.242 141.628 179.596 142.32 179.596Z" fill="#377DFF"/>
<path d="M170.531 1.58234C171.224 1.58234 171.785 1.22812 171.785 0.791171C171.785 0.354219 171.224 0 170.531 0C169.839 0 169.277 0.354219 169.277 0.791171C169.277 1.22812 169.839 1.58234 170.531 1.58234Z" fill="#377DFF"/>
<path d="M198.746 1.58234C199.439 1.58234 200 1.22812 200 0.791171C200 0.354219 199.439 0 198.746 0C198.054 0 197.492 0.354219 197.492 0.791171C197.492 1.22812 198.054 1.58234 198.746 1.58234Z" fill="#377DFF"/>
<path d="M170.531 19.3836C171.224 19.3836 171.785 19.0294 171.785 18.5924C171.785 18.1555 171.224 17.8013 170.531 17.8013C169.839 17.8013 169.277 18.1555 169.277 18.5924C169.277 19.0294 169.839 19.3836 170.531 19.3836Z" fill="#377DFF"/>
<path d="M198.746 19.3836C199.439 19.3836 200 19.0294 200 18.5924C200 18.1555 199.439 17.8013 198.746 17.8013C198.054 17.8013 197.492 18.1555 197.492 18.5924C197.492 19.0294 198.054 19.3836 198.746 19.3836Z" fill="#377DFF"/>
<path d="M170.531 37.1849C171.224 37.1849 171.785 36.8306 171.785 36.3937C171.785 35.9568 171.224 35.6025 170.531 35.6025C169.839 35.6025 169.277 35.9568 169.277 36.3937C169.277 36.8306 169.839 37.1849 170.531 37.1849Z" fill="#377DFF"/>
<path d="M198.746 37.1849C199.439 37.1849 200 36.8306 200 36.3937C200 35.9568 199.439 35.6025 198.746 35.6025C198.054 35.6025 197.492 35.9568 197.492 36.3937C197.492 36.8306 198.054 37.1849 198.746 37.1849Z" fill="#377DFF"/>
<path d="M170.531 54.9862C171.224 54.9862 171.785 54.6319 171.785 54.195C171.785 53.7581 171.224 53.4038 170.531 53.4038C169.839 53.4038 169.277 53.7581 169.277 54.195C169.277 54.6319 169.839 54.9862 170.531 54.9862Z" fill="#377DFF"/>
<path d="M198.746 54.9862C199.439 54.9862 200 54.6319 200 54.195C200 53.7581 199.439 53.4038 198.746 53.4038C198.054 53.4038 197.492 53.7581 197.492 54.195C197.492 54.6319 198.054 54.9862 198.746 54.9862Z" fill="#377DFF"/>
<path d="M170.531 72.788C171.224 72.788 171.785 72.4337 171.785 71.9968C171.785 71.5598 171.224 71.2056 170.531 71.2056C169.839 71.2056 169.277 71.5598 169.277 71.9968C169.277 72.4337 169.839 72.788 170.531 72.788Z" fill="#377DFF"/>
<path d="M198.746 72.788C199.439 72.788 200 72.4337 200 71.9968C200 71.5598 199.439 71.2056 198.746 71.2056C198.054 71.2056 197.492 71.5598 197.492 71.9968C197.492 72.4337 198.054 72.788 198.746 72.788Z" fill="#377DFF"/>
<path d="M170.531 90.5892C171.224 90.5892 171.785 90.2349 171.785 89.798C171.785 89.3611 171.224 89.0068 170.531 89.0068C169.839 89.0068 169.277 89.3611 169.277 89.798C169.277 90.2349 169.839 90.5892 170.531 90.5892Z" fill="#377DFF"/>
<path d="M198.746 90.5892C199.439 90.5892 200 90.2349 200 89.798C200 89.3611 199.439 89.0068 198.746 89.0068C198.054 89.0068 197.492 89.3611 197.492 89.798C197.492 90.2349 198.054 90.5892 198.746 90.5892Z" fill="#377DFF"/>
<path d="M170.531 108.39C171.224 108.39 171.785 108.036 171.785 107.599C171.785 107.162 171.224 106.808 170.531 106.808C169.839 106.808 169.277 107.162 169.277 107.599C169.277 108.036 169.839 108.39 170.531 108.39Z" fill="#377DFF"/>
<path d="M198.746 108.39C199.439 108.39 200 108.036 200 107.599C200 107.162 199.439 106.808 198.746 106.808C198.054 106.808 197.492 107.162 197.492 107.599C197.492 108.036 198.054 108.39 198.746 108.39Z" fill="#377DFF"/>
<path d="M170.531 126.192C171.224 126.192 171.785 125.837 171.785 125.401C171.785 124.964 171.224 124.609 170.531 124.609C169.839 124.609 169.277 124.964 169.277 125.401C169.277 125.837 169.839 126.192 170.531 126.192Z" fill="#377DFF"/>
<path d="M198.746 126.192C199.439 126.192 200 125.837 200 125.401C200 124.964 199.439 124.609 198.746 124.609C198.054 124.609 197.492 124.964 197.492 125.401C197.492 125.837 198.054 126.192 198.746 126.192Z" fill="#377DFF"/>
<path d="M170.531 143.993C171.224 143.993 171.785 143.639 171.785 143.202C171.785 142.765 171.224 142.411 170.531 142.411C169.839 142.411 169.277 142.765 169.277 143.202C169.277 143.639 169.839 143.993 170.531 143.993Z" fill="#377DFF"/>
<path d="M198.746 143.993C199.439 143.993 200 143.639 200 143.202C200 142.765 199.439 142.411 198.746 142.411C198.054 142.411 197.492 142.765 197.492 143.202C197.492 143.639 198.054 143.993 198.746 143.993Z" fill="#377DFF"/>
<path d="M170.531 161.794C171.224 161.794 171.785 161.44 171.785 161.003C171.785 160.566 171.224 160.212 170.531 160.212C169.839 160.212 169.277 160.566 169.277 161.003C169.277 161.44 169.839 161.794 170.531 161.794Z" fill="#377DFF"/>
<path d="M198.746 161.794C199.439 161.794 200 161.44 200 161.003C200 160.566 199.439 160.212 198.746 160.212C198.054 160.212 197.492 160.566 197.492 161.003C197.492 161.44 198.054 161.794 198.746 161.794Z" fill="#377DFF"/>
<path d="M170.531 179.596C171.224 179.596 171.785 179.242 171.785 178.805C171.785 178.368 171.224 178.014 170.531 178.014C169.839 178.014 169.277 178.368 169.277 178.805C169.277 179.242 169.839 179.596 170.531 179.596Z" fill="#377DFF"/>
<path d="M198.746 179.596C199.439 179.596 200 179.242 200 178.805C200 178.368 199.439 178.014 198.746 178.014C198.054 178.014 197.492 178.368 197.492 178.805C197.492 179.242 198.054 179.596 198.746 179.596Z" fill="#377DFF"/>
<path d="M1.25392 197.397C1.94644 197.397 2.50784 197.043 2.50784 196.606C2.50784 196.169 1.94644 195.815 1.25392 195.815C0.561398 195.815 0 196.169 0 196.606C0 197.043 0.561398 197.397 1.25392 197.397Z" fill="#377DFF"/>
<path d="M29.4688 197.397C30.1613 197.397 30.7227 197.043 30.7227 196.606C30.7227 196.169 30.1613 195.815 29.4688 195.815C28.7763 195.815 28.2148 196.169 28.2148 196.606C28.2148 197.043 28.7763 197.397 29.4688 197.397Z" fill="#377DFF"/>
<path d="M57.6797 197.397C58.3722 197.397 58.9336 197.043 58.9336 196.606C58.9336 196.169 58.3722 195.815 57.6797 195.815C56.9872 195.815 56.4258 196.169 56.4258 196.606C56.4258 197.043 56.9872 197.397 57.6797 197.397Z" fill="#377DFF"/>
<path d="M85.8945 197.397C86.587 197.397 87.1485 197.043 87.1485 196.606C87.1485 196.169 86.587 195.815 85.8945 195.815C85.2021 195.815 84.6406 196.169 84.6406 196.606C84.6406 197.043 85.2021 197.397 85.8945 197.397Z" fill="#377DFF"/>
<path d="M114.105 197.397C114.798 197.397 115.359 197.043 115.359 196.606C115.359 196.169 114.798 195.815 114.105 195.815C113.413 195.815 112.852 196.169 112.852 196.606C112.852 197.043 113.413 197.397 114.105 197.397Z" fill="#377DFF"/>
<path d="M142.32 197.397C143.013 197.397 143.574 197.043 143.574 196.606C143.574 196.169 143.013 195.815 142.32 195.815C141.628 195.815 141.066 196.169 141.066 196.606C141.066 197.043 141.628 197.397 142.32 197.397Z" fill="#377DFF"/>
<path d="M1.25392 215.199C1.94644 215.199 2.50784 214.844 2.50784 214.407C2.50784 213.97 1.94644 213.616 1.25392 213.616C0.561398 213.616 0 213.97 0 214.407C0 214.844 0.561398 215.199 1.25392 215.199Z" fill="#377DFF"/>
<path d="M29.4688 215.199C30.1613 215.199 30.7227 214.844 30.7227 214.407C30.7227 213.97 30.1613 213.616 29.4688 213.616C28.7763 213.616 28.2148 213.97 28.2148 214.407C28.2148 214.844 28.7763 215.199 29.4688 215.199Z" fill="#377DFF"/>
<path d="M57.6797 215.199C58.3722 215.199 58.9336 214.844 58.9336 214.407C58.9336 213.97 58.3722 213.616 57.6797 213.616C56.9872 213.616 56.4258 213.97 56.4258 214.407C56.4258 214.844 56.9872 215.199 57.6797 215.199Z" fill="#377DFF"/>
<path d="M85.8945 215.199C86.587 215.199 87.1485 214.844 87.1485 214.407C87.1485 213.97 86.587 213.616 85.8945 213.616C85.2021 213.616 84.6406 213.97 84.6406 214.407C84.6406 214.844 85.2021 215.199 85.8945 215.199Z" fill="#377DFF"/>
<path d="M114.105 215.199C114.798 215.199 115.359 214.844 115.359 214.407C115.359 213.97 114.798 213.616 114.105 213.616C113.413 213.616 112.852 213.97 112.852 214.407C112.852 214.844 113.413 215.199 114.105 215.199Z" fill="#377DFF"/>
<path d="M142.32 215.199C143.013 215.199 143.574 214.844 143.574 214.407C143.574 213.97 143.013 213.616 142.32 213.616C141.628 213.616 141.066 213.97 141.066 214.407C141.066 214.844 141.628 215.199 142.32 215.199Z" fill="#377DFF"/>
<path d="M1.25392 233C1.94644 233 2.50784 232.646 2.50784 232.209C2.50784 231.772 1.94644 231.417 1.25392 231.417C0.561398 231.417 0 231.772 0 232.209C0 232.646 0.561398 233 1.25392 233Z" fill="#377DFF"/>
<path d="M29.4688 233C30.1613 233 30.7227 232.646 30.7227 232.209C30.7227 231.772 30.1613 231.417 29.4688 231.417C28.7763 231.417 28.2148 231.772 28.2148 232.209C28.2148 232.646 28.7763 233 29.4688 233Z" fill="#377DFF"/>
<path d="M57.6797 233C58.3722 233 58.9336 232.646 58.9336 232.209C58.9336 231.772 58.3722 231.417 57.6797 231.417C56.9872 231.417 56.4258 231.772 56.4258 232.209C56.4258 232.646 56.9872 233 57.6797 233Z" fill="#377DFF"/>
<path d="M85.8945 233C86.587 233 87.1485 232.646 87.1485 232.209C87.1485 231.772 86.587 231.417 85.8945 231.417C85.2021 231.417 84.6406 231.772 84.6406 232.209C84.6406 232.646 85.2021 233 85.8945 233Z" fill="#377DFF"/>
<path d="M114.105 233C114.798 233 115.359 232.646 115.359 232.209C115.359 231.772 114.798 231.417 114.105 231.417C113.413 231.417 112.852 231.772 112.852 232.209C112.852 232.646 113.413 233 114.105 233Z" fill="#377DFF"/>
<path d="M142.32 233C143.013 233 143.574 232.646 143.574 232.209C143.574 231.772 143.013 231.417 142.32 231.417C141.628 231.417 141.066 231.772 141.066 232.209C141.066 232.646 141.628 233 142.32 233Z" fill="#377DFF"/>
<path d="M170.531 197.397C171.224 197.397 171.785 197.043 171.785 196.606C171.785 196.169 171.224 195.815 170.531 195.815C169.839 195.815 169.277 196.169 169.277 196.606C169.277 197.043 169.839 197.397 170.531 197.397Z" fill="#377DFF"/>
<path d="M198.746 197.397C199.439 197.397 200 197.043 200 196.606C200 196.169 199.439 195.815 198.746 195.815C198.054 195.815 197.492 196.169 197.492 196.606C197.492 197.043 198.054 197.397 198.746 197.397Z" fill="#377DFF"/>
<path d="M170.531 215.199C171.224 215.199 171.785 214.844 171.785 214.407C171.785 213.97 171.224 213.616 170.531 213.616C169.839 213.616 169.277 213.97 169.277 214.407C169.277 214.844 169.839 215.199 170.531 215.199Z" fill="#377DFF"/>
<path d="M198.746 215.199C199.439 215.199 200 214.844 200 214.407C200 213.97 199.439 213.616 198.746 213.616C198.054 213.616 197.492 213.97 197.492 214.407C197.492 214.844 198.054 215.199 198.746 215.199Z" fill="#377DFF"/>
<path d="M170.531 233C171.224 233 171.785 232.646 171.785 232.209C171.785 231.772 171.224 231.417 170.531 231.417C169.839 231.417 169.277 231.772 169.277 232.209C169.277 232.646 169.839 233 170.531 233Z" fill="#377DFF"/>
<path d="M198.746 233C199.439 233 200 232.646 200 232.209C200 231.772 199.439 231.417 198.746 231.417C198.054 231.417 197.492 231.772 197.492 232.209C197.492 232.646 198.054 233 198.746 233Z" fill="#377DFF"/>
</svg>
