<svg width="673" height="784" viewBox="0 0 673 784" fill="none" xmlns="http://www.w3.org/2000/svg">
<path d="M46.8674 415.773C22.7419 307.53 240.355 0 240.355 0H664V784H451.212C451.212 784 383.661 660.583 317.556 596.346C251.452 532.108 70.9928 524.015 46.8674 415.773Z" fill="#F2F6FF"/>
<g filter="url(#filter0_d_192_45)">
<path d="M39.7067 358.179C28.5032 455.072 153.778 493.246 183.818 472.652C243.349 431.839 213.265 373.986 261.916 358.179C308.491 343.047 338.193 411.478 382.846 391.381C414.756 377.02 416.934 348.764 438.776 321.456C460.618 294.148 498.49 376.79 538.039 362.707C573.664 350.021 554.006 289.826 590.946 281.714C620.531 275.217 663 310.389 663 310.389V0H233.195C233.195 0 50.9102 261.287 39.7067 358.179Z" fill="#F8FAFF"/>
</g>
<path d="M64 410.323C64 410.323 119.349 471.645 164.5 466.936C223.029 460.831 197.5 373.065 248 345.484C298.5 317.903 316 377.42 364 381.29C412 385.161 408 300.968 437 291.774C466 282.581 489 351.291 525.5 345.484C562 339.677 540.453 276.932 576.5 265.161C609.91 254.252 662.5 291.774 662.5 291.774" stroke="#347BFF" stroke-width="2"/>
<path d="M99 504V488" stroke="black" stroke-width="2" stroke-linecap="round" stroke-linejoin="round"/>
<path d="M92 495L99 488L106 495" stroke="black" stroke-width="2" stroke-linecap="round" stroke-linejoin="round"/>
<g filter="url(#filter1_d_192_45)">
<rect x="9" y="380" width="150" height="150" rx="25" fill="white"/>
</g>
<g filter="url(#filter2_d_192_45)">
<rect x="238" y="554" width="250" height="150" rx="25" fill="white"/>
</g>
<g filter="url(#filter3_d_192_45)">
<rect x="63" y="130" width="240" height="130" rx="25" fill="white"/>
</g>
<g filter="url(#filter4_d_192_45)">
<rect x="414" y="235" width="150" height="180" rx="25" fill="white"/>
</g>
<path d="M65.8097 411.455C65.8097 407.268 63.304 404.73 59.9162 404.73C56.5156 404.73 54.0163 407.268 54.0163 411.455C54.0163 415.635 56.5156 418.179 59.9162 418.179C63.304 418.179 65.8097 415.641 65.8097 411.455ZM63.8537 411.455C63.8537 414.644 62.1662 416.376 59.9162 416.376C57.6598 416.376 55.9787 414.644 55.9787 411.455C55.9787 408.265 57.6598 406.533 59.9162 406.533C62.1662 406.533 63.8537 408.265 63.8537 411.455ZM68.1188 418H70.03V412.004C70.03 410.719 71.0208 409.793 72.3759 409.793C72.7722 409.793 73.2196 409.863 73.373 409.908V408.08C73.1813 408.054 72.8042 408.035 72.5613 408.035C71.4107 408.035 70.4263 408.687 70.0684 409.741H69.9661V408.182H68.1188V418ZM78.3509 418.192C80.1406 418.192 80.8438 417.099 81.1889 416.472H81.3487V418H83.2152V404.909H81.304V409.773H81.1889C80.8438 409.166 80.1918 408.054 78.3636 408.054C75.9922 408.054 74.2472 409.927 74.2472 413.11C74.2472 416.287 75.9666 418.192 78.3509 418.192ZM78.7727 416.562C77.0661 416.562 76.1776 415.06 76.1776 413.091C76.1776 411.141 77.0469 409.678 78.7727 409.678C80.4411 409.678 81.3359 411.039 81.3359 413.091C81.3359 415.156 80.4219 416.562 78.7727 416.562ZM90.1745 418.198C92.3159 418.198 93.8308 417.143 94.2654 415.545L92.4565 415.219C92.1113 416.146 91.2804 416.619 90.1937 416.619C88.5574 416.619 87.4579 415.558 87.4068 413.666H94.3869V412.989C94.3869 409.441 92.2647 408.054 90.0403 408.054C87.3045 408.054 85.502 410.138 85.502 413.155C85.502 416.204 87.2789 418.198 90.1745 418.198ZM87.4132 412.234C87.4899 410.841 88.4998 409.633 90.0531 409.633C91.536 409.633 92.5076 410.732 92.514 412.234H87.4132ZM96.5075 418H98.4187V412.004C98.4187 410.719 99.4094 409.793 100.765 409.793C101.161 409.793 101.608 409.863 101.762 409.908V408.08C101.57 408.054 101.193 408.035 100.95 408.035C99.7994 408.035 98.815 408.687 98.457 409.741H98.3548V408.182H96.5075V418ZM110.773 410.579C110.377 409.051 109.181 408.054 107.059 408.054C104.841 408.054 103.269 409.224 103.269 410.962C103.269 412.356 104.112 413.283 105.953 413.692L107.615 414.056C108.561 414.267 109.002 414.689 109.002 415.303C109.002 416.063 108.191 416.658 106.938 416.658C105.794 416.658 105.058 416.165 104.828 415.2L102.981 415.482C103.301 417.22 104.745 418.198 106.95 418.198C109.322 418.198 110.965 416.939 110.965 415.162C110.965 413.775 110.083 412.918 108.28 412.503L106.72 412.145C105.64 411.889 105.173 411.525 105.18 410.86C105.173 410.106 105.992 409.569 107.078 409.569C108.267 409.569 108.817 410.227 109.041 410.886L110.773 410.579Z" fill="#132144"/>
<path d="M52.1179 462.278C56.473 462.278 59.6449 459.783 59.6349 456.342C59.6449 453.797 58.054 451.967 55.2003 451.56V451.401C57.4077 450.923 58.8892 449.283 58.8793 446.996C58.8892 443.893 56.2443 441.358 52.1776 441.358C48.2202 441.358 45.1577 443.714 45.0781 447.125H48.6278C48.6875 445.415 50.2784 444.351 52.1577 444.351C54.0568 444.351 55.3196 445.504 55.3097 447.214C55.3196 448.994 53.848 450.178 51.7401 450.178H49.9403V453.021H51.7401C54.3153 453.021 55.8466 454.314 55.8366 456.153C55.8466 457.953 54.2855 459.186 52.108 459.186C50.0597 459.186 48.4787 458.122 48.3892 456.462H44.6506C44.75 459.902 47.8224 462.278 52.1179 462.278ZM66.712 459.216H63.5302L63.4606 460.33C63.2915 463.024 62.5856 465.768 62.2972 466.972H64.7234C65.2006 465.719 66.3043 462.815 66.5827 460.31L66.712 459.216ZM70.3363 458.222H80.0508V462H83.5707V458.222H86.1758V455.189H83.5707V441.636H78.9769L70.3363 455.288V458.222ZM80.0906 455.189H74.1147V455.03L79.9315 445.812H80.0906V455.189ZM88.9847 458.222H98.6992V462H102.219V458.222H104.824V455.189H102.219V441.636H97.6254L88.9847 455.288V458.222ZM98.739 455.189H92.7631V455.03L98.5799 445.812H98.739V455.189ZM115.081 462.278C119.386 462.278 122.389 459.355 122.389 455.308C122.389 451.391 119.664 448.567 115.966 448.567C114.315 448.567 112.853 449.223 112.098 450.118H111.978L112.565 444.719H121.325V441.636H109.512L108.449 452.136L111.779 452.683C112.466 451.928 113.758 451.42 114.981 451.43C117.218 451.44 118.829 453.091 118.819 455.398C118.829 457.675 117.258 459.295 115.081 459.295C113.241 459.295 111.76 458.132 111.63 456.462H108.051C108.15 459.842 111.103 462.278 115.081 462.278Z" fill="#132144"/>
<path d="M58.4886 499.136H60.2727V496.097H63.3125V494.312H60.2727V491.273H58.4886V494.312H55.4489V496.097H58.4886V499.136ZM70.5327 489.364H68.527L65.6349 491.222V493.153L68.3565 491.415H68.4247V501H70.5327V489.364ZM74.1364 501.125C74.8068 501.125 75.3807 500.568 75.3864 499.875C75.3807 499.193 74.8068 498.636 74.1364 498.636C73.4432 498.636 72.8807 499.193 72.8864 499.875C72.8807 500.568 73.4432 501.125 74.1364 501.125ZM81.392 501.159C83.8523 501.159 85.5682 499.489 85.5682 497.176C85.5682 494.938 84.0114 493.324 81.8977 493.324C80.9545 493.324 80.1193 493.699 79.6875 494.21H79.6193L79.9545 491.125H84.9602V489.364H78.2102L77.6023 495.364L79.5057 495.676C79.8977 495.244 80.6364 494.955 81.3352 494.96C82.6136 494.966 83.5341 495.909 83.5284 497.227C83.5341 498.528 82.6364 499.455 81.392 499.455C80.3409 499.455 79.4943 498.79 79.4205 497.835H77.375C77.4318 499.767 79.1193 501.159 81.392 501.159ZM97.6619 498.818C97.6676 500.17 98.5256 501.324 100.122 501.324C101.713 501.324 102.588 500.17 102.582 498.818V498.205C102.588 496.841 101.736 495.699 100.122 495.699C98.5483 495.699 97.6676 496.852 97.6619 498.205V498.818ZM91.7472 492.159C91.7528 493.511 92.6108 494.653 94.2131 494.653C95.7983 494.653 96.6733 493.523 96.6676 492.159V491.545C96.6733 490.182 95.821 489.04 94.2131 489.04C92.6449 489.04 91.7528 490.182 91.7472 491.545V492.159ZM92.2585 501H93.6847L101.685 489.364H100.259L92.2585 501ZM99.1449 498.205C99.1506 497.602 99.4062 496.994 100.122 496.994C100.872 496.994 101.094 497.602 101.088 498.205V498.818C101.094 499.42 100.849 500.017 100.122 500.017C99.3949 500.017 99.1506 499.415 99.1449 498.818V498.205ZM93.2415 491.545C93.2472 490.949 93.4915 490.335 94.2131 490.335C94.9631 490.335 95.179 490.943 95.1733 491.545V492.159C95.179 492.761 94.9403 493.358 94.2131 493.358C93.4858 493.358 93.2472 492.761 93.2415 492.159V491.545Z" fill="#29CD00"/>
<path d="M112.354 487.646C112.158 487.451 111.842 487.451 111.646 487.646L108.464 490.828C108.269 491.024 108.269 491.34 108.464 491.536C108.66 491.731 108.976 491.731 109.172 491.536L112 488.707L114.828 491.536C115.024 491.731 115.34 491.731 115.536 491.536C115.731 491.34 115.731 491.024 115.536 490.828L112.354 487.646ZM112.5 501V488H111.5V501H112.5Z" fill="#29CD00"/>
<path d="M395.489 668.136H397.273V665.097H400.312V663.312H397.273V660.273H395.489V663.312H392.449V665.097H395.489V668.136ZM407.101 670.222C409.908 670.227 411.584 668.011 411.584 664.193C411.584 660.398 409.896 658.205 407.101 658.205C404.305 658.205 402.624 660.392 402.618 664.193C402.618 668.006 404.294 670.222 407.101 670.222ZM407.101 668.443C405.652 668.443 404.743 666.989 404.749 664.193C404.754 661.42 405.658 659.96 407.101 659.96C408.55 659.96 409.453 661.42 409.459 664.193C409.459 666.989 408.555 668.443 407.101 668.443ZM414.308 670.125C414.979 670.125 415.553 669.568 415.558 668.875C415.553 668.193 414.979 667.636 414.308 667.636C413.615 667.636 413.053 668.193 413.058 668.875C413.053 669.568 413.615 670.125 414.308 670.125ZM421.564 670.159C424.024 670.159 425.74 668.489 425.74 666.176C425.74 663.938 424.183 662.324 422.07 662.324C421.126 662.324 420.291 662.699 419.859 663.21H419.791L420.126 660.125H425.132V658.364H418.382L417.774 664.364L419.678 664.676C420.07 664.244 420.808 663.955 421.507 663.96C422.786 663.966 423.706 664.909 423.7 666.227C423.706 667.528 422.808 668.455 421.564 668.455C420.513 668.455 419.666 667.79 419.592 666.835H417.547C417.604 668.767 419.291 670.159 421.564 670.159ZM437.834 667.818C437.839 669.17 438.697 670.324 440.294 670.324C441.885 670.324 442.76 669.17 442.754 667.818V667.205C442.76 665.841 441.908 664.699 440.294 664.699C438.72 664.699 437.839 665.852 437.834 667.205V667.818ZM431.919 661.159C431.925 662.511 432.783 663.653 434.385 663.653C435.97 663.653 436.845 662.523 436.839 661.159V660.545C436.845 659.182 435.993 658.04 434.385 658.04C432.817 658.04 431.925 659.182 431.919 660.545V661.159ZM432.43 670H433.857L441.857 658.364H440.43L432.43 670ZM439.317 667.205C439.322 666.602 439.578 665.994 440.294 665.994C441.044 665.994 441.266 666.602 441.26 667.205V667.818C441.266 668.42 441.021 669.017 440.294 669.017C439.567 669.017 439.322 668.415 439.317 667.818V667.205ZM433.413 660.545C433.419 659.949 433.663 659.335 434.385 659.335C435.135 659.335 435.351 659.943 435.345 660.545V661.159C435.351 661.761 435.112 662.358 434.385 662.358C433.658 662.358 433.419 661.761 433.413 661.159V660.545Z" fill="#FF0000" fill-opacity="0.85"/>
<path d="M452.646 670.354C452.842 670.549 453.158 670.549 453.354 670.354L456.536 667.172C456.731 666.976 456.731 666.66 456.536 666.464C456.34 666.269 456.024 666.269 455.828 666.464L453 669.293L450.172 666.464C449.976 666.269 449.66 666.269 449.464 666.464C449.269 666.66 449.269 666.976 449.464 667.172L452.646 670.354ZM452.5 657V670H453.5V657H452.5Z" fill="#FF0000" fill-opacity="0.85"/>
<path d="M205.489 164.136H207.273V161.097H210.312V159.312H207.273V156.273H205.489V159.312H202.449V161.097H205.489V164.136ZM212.409 166H220.386V164.239H215.318V164.159L217.324 162.119C219.585 159.949 220.21 158.892 220.21 157.58C220.21 155.631 218.625 154.205 216.284 154.205C213.977 154.205 212.341 155.636 212.341 157.847H214.347C214.347 156.659 215.097 155.915 216.256 155.915C217.364 155.915 218.188 156.591 218.188 157.688C218.188 158.659 217.597 159.352 216.449 160.517L212.409 164.477V166ZM223.636 166.125C224.307 166.125 224.881 165.568 224.886 164.875C224.881 164.193 224.307 163.636 223.636 163.636C222.943 163.636 222.381 164.193 222.386 164.875C222.381 165.568 222.943 166.125 223.636 166.125ZM230.892 166.159C233.352 166.159 235.068 164.489 235.068 162.176C235.068 159.938 233.511 158.324 231.398 158.324C230.455 158.324 229.619 158.699 229.188 159.21H229.119L229.455 156.125H234.46V154.364H227.71L227.102 160.364L229.006 160.676C229.398 160.244 230.136 159.955 230.835 159.96C232.114 159.966 233.034 160.909 233.028 162.227C233.034 163.528 232.136 164.455 230.892 164.455C229.841 164.455 228.994 163.79 228.92 162.835H226.875C226.932 164.767 228.619 166.159 230.892 166.159ZM247.162 163.818C247.168 165.17 248.026 166.324 249.622 166.324C251.213 166.324 252.088 165.17 252.082 163.818V163.205C252.088 161.841 251.236 160.699 249.622 160.699C248.048 160.699 247.168 161.852 247.162 163.205V163.818ZM241.247 157.159C241.253 158.511 242.111 159.653 243.713 159.653C245.298 159.653 246.173 158.523 246.168 157.159V156.545C246.173 155.182 245.321 154.04 243.713 154.04C242.145 154.04 241.253 155.182 241.247 156.545V157.159ZM241.759 166H243.185L251.185 154.364H249.759L241.759 166ZM248.645 163.205C248.651 162.602 248.906 161.994 249.622 161.994C250.372 161.994 250.594 162.602 250.588 163.205V163.818C250.594 164.42 250.349 165.017 249.622 165.017C248.895 165.017 248.651 164.415 248.645 163.818V163.205ZM242.741 156.545C242.747 155.949 242.991 155.335 243.713 155.335C244.463 155.335 244.679 155.943 244.673 156.545V157.159C244.679 157.761 244.44 158.358 243.713 158.358C242.986 158.358 242.747 157.761 242.741 157.159V156.545Z" fill="#29CD00"/>
<path d="M262.354 152.646C262.158 152.451 261.842 152.451 261.646 152.646L258.464 155.828C258.269 156.024 258.269 156.34 258.464 156.536C258.66 156.731 258.976 156.731 259.172 156.536L262 153.707L264.828 156.536C265.024 156.731 265.34 156.731 265.536 156.536C265.731 156.34 265.731 156.024 265.536 155.828L262.354 152.646ZM262.5 166V153H261.5V166H262.5Z" fill="#29CD00"/>
<path d="M102.578 158.348H104.483C104.425 156.251 102.572 154.73 99.9126 154.73C97.2855 154.73 95.272 156.232 95.272 158.489C95.272 160.31 96.576 161.378 98.679 161.947L100.226 162.369C101.626 162.739 102.706 163.2 102.706 164.363C102.706 165.641 101.485 166.485 99.804 166.485C98.2827 166.485 97.017 165.808 96.902 164.382H94.9205C95.0483 166.754 96.8828 168.217 99.8168 168.217C102.891 168.217 104.662 166.6 104.662 164.382C104.662 162.023 102.559 161.109 100.897 160.7L99.6186 160.368C98.5959 160.106 97.2344 159.626 97.2408 158.374C97.2408 157.261 98.2571 156.437 99.8679 156.437C101.37 156.437 102.438 157.14 102.578 158.348ZM109.726 168.217C111.35 168.217 112.264 167.393 112.628 166.658H112.705V168H114.571V161.48C114.571 158.623 112.321 158.054 110.762 158.054C108.985 158.054 107.348 158.77 106.709 160.56L108.505 160.969C108.786 160.272 109.502 159.601 110.787 159.601C112.021 159.601 112.654 160.246 112.654 161.359V161.403C112.654 162.1 111.938 162.087 110.173 162.292C108.313 162.509 106.409 162.995 106.409 165.226C106.409 167.156 107.86 168.217 109.726 168.217ZM110.142 166.683C109.061 166.683 108.281 166.197 108.281 165.251C108.281 164.229 109.189 163.864 110.295 163.717C110.915 163.634 112.385 163.468 112.66 163.193V164.459C112.66 165.622 111.733 166.683 110.142 166.683ZM119.028 154.909H117.117V168H119.028V154.909ZM125.831 168.198C127.972 168.198 129.487 167.143 129.922 165.545L128.113 165.219C127.768 166.146 126.937 166.619 125.85 166.619C124.214 166.619 123.114 165.558 123.063 163.666H130.043V162.989C130.043 159.441 127.921 158.054 125.697 158.054C122.961 158.054 121.158 160.138 121.158 163.155C121.158 166.204 122.935 168.198 125.831 168.198ZM123.069 162.234C123.146 160.841 124.156 159.633 125.709 159.633C127.192 159.633 128.164 160.732 128.17 162.234H123.069ZM139.521 160.579C139.125 159.051 137.929 158.054 135.807 158.054C133.589 158.054 132.017 159.224 132.017 160.962C132.017 162.356 132.86 163.283 134.701 163.692L136.363 164.056C137.309 164.267 137.75 164.689 137.75 165.303C137.75 166.063 136.939 166.658 135.686 166.658C134.542 166.658 133.806 166.165 133.576 165.2L131.729 165.482C132.049 167.22 133.493 168.198 135.699 168.198C138.07 168.198 139.713 166.939 139.713 165.162C139.713 163.775 138.831 162.918 137.028 162.503L135.468 162.145C134.388 161.889 133.922 161.525 133.928 160.86C133.922 160.106 134.74 159.569 135.826 159.569C137.015 159.569 137.565 160.227 137.789 160.886L139.521 160.579Z" fill="#132144"/>
<path d="M104.774 210.364V186.727H106.288V210.364H104.774ZM109.141 194.289C109.055 193.483 108.692 192.855 108.052 192.406C107.418 191.956 106.593 191.732 105.577 191.732C104.863 191.732 104.251 191.839 103.74 192.055C103.229 192.27 102.838 192.562 102.567 192.932C102.297 193.301 102.158 193.723 102.152 194.197C102.152 194.591 102.241 194.932 102.42 195.222C102.604 195.511 102.854 195.757 103.168 195.96C103.482 196.157 103.829 196.323 104.211 196.459C104.593 196.594 104.977 196.708 105.365 196.8L107.138 197.244C107.852 197.41 108.538 197.634 109.197 197.918C109.862 198.201 110.455 198.558 110.979 198.989C111.508 199.42 111.927 199.94 112.234 200.549C112.542 201.158 112.696 201.872 112.696 202.691C112.696 203.799 112.413 204.775 111.847 205.618C111.28 206.455 110.462 207.111 109.391 207.585C108.326 208.052 107.036 208.286 105.522 208.286C104.051 208.286 102.774 208.058 101.69 207.603C100.613 207.147 99.7699 206.483 99.1605 205.609C98.5573 204.735 98.2311 203.67 98.1818 202.414H101.552C101.601 203.073 101.804 203.621 102.161 204.058C102.518 204.495 102.983 204.821 103.555 205.036C104.134 205.252 104.78 205.359 105.494 205.359C106.239 205.359 106.892 205.249 107.452 205.027C108.018 204.799 108.461 204.485 108.781 204.085C109.101 203.679 109.264 203.205 109.271 202.663C109.264 202.171 109.12 201.765 108.837 201.445C108.554 201.118 108.156 200.848 107.646 200.632C107.141 200.411 106.55 200.214 105.873 200.041L103.722 199.487C102.164 199.087 100.933 198.481 100.028 197.668C99.1297 196.85 98.6804 195.763 98.6804 194.409C98.6804 193.295 98.982 192.319 99.5852 191.482C100.195 190.645 101.022 189.996 102.069 189.534C103.115 189.066 104.3 188.832 105.624 188.832C106.965 188.832 108.141 189.066 109.151 189.534C110.166 189.996 110.963 190.639 111.542 191.464C112.121 192.282 112.419 193.224 112.438 194.289H109.141ZM122.351 208.259C121.022 208.259 119.84 208.031 118.806 207.575C117.778 207.12 116.965 206.486 116.368 205.673C115.771 204.861 115.454 203.922 115.417 202.857H118.889C118.92 203.368 119.089 203.814 119.397 204.196C119.705 204.571 120.114 204.864 120.625 205.073C121.136 205.282 121.708 205.387 122.342 205.387C123.019 205.387 123.619 205.27 124.143 205.036C124.666 204.796 125.075 204.464 125.371 204.039C125.666 203.614 125.811 203.125 125.805 202.571C125.811 201.999 125.663 201.494 125.361 201.057C125.06 200.62 124.623 200.278 124.05 200.032C123.484 199.786 122.801 199.663 122.001 199.663H120.329V197.022H122.001C122.659 197.022 123.235 196.908 123.727 196.68C124.226 196.453 124.617 196.133 124.9 195.72C125.183 195.302 125.321 194.818 125.315 194.271C125.321 193.735 125.201 193.27 124.955 192.876C124.715 192.476 124.373 192.165 123.93 191.944C123.493 191.722 122.979 191.612 122.388 191.612C121.81 191.612 121.274 191.716 120.782 191.925C120.289 192.135 119.892 192.433 119.591 192.821C119.289 193.203 119.129 193.658 119.111 194.188H115.814C115.839 193.129 116.144 192.199 116.729 191.399C117.319 190.593 118.107 189.965 119.092 189.516C120.077 189.06 121.182 188.832 122.407 188.832C123.669 188.832 124.764 189.069 125.694 189.543C126.629 190.011 127.353 190.642 127.863 191.436C128.374 192.23 128.63 193.107 128.63 194.067C128.636 195.132 128.322 196.025 127.688 196.745C127.06 197.465 126.235 197.936 125.214 198.158V198.305C126.543 198.49 127.562 198.982 128.27 199.783C128.984 200.577 129.338 201.565 129.331 202.746C129.331 203.805 129.03 204.753 128.427 205.59C127.83 206.421 127.005 207.074 125.952 207.548C124.906 208.022 123.706 208.259 122.351 208.259ZM139.075 208.259C137.844 208.259 136.742 208.028 135.769 207.566C134.797 207.098 134.024 206.458 133.452 205.646C132.885 204.833 132.584 203.904 132.547 202.857H135.871C135.932 203.633 136.268 204.267 136.877 204.759C137.487 205.246 138.219 205.489 139.075 205.489C139.746 205.489 140.343 205.335 140.866 205.027C141.389 204.719 141.801 204.291 142.103 203.744C142.405 203.196 142.552 202.571 142.546 201.869C142.552 201.155 142.402 200.521 142.094 199.967C141.786 199.413 141.364 198.979 140.829 198.665C140.293 198.345 139.678 198.185 138.982 198.185C138.416 198.179 137.859 198.284 137.311 198.499C136.763 198.715 136.329 198.998 136.009 199.349L132.916 198.841L133.904 189.091H144.873V191.953H136.739L136.194 196.967H136.305C136.656 196.554 137.151 196.213 137.791 195.942C138.431 195.665 139.133 195.526 139.896 195.526C141.041 195.526 142.063 195.797 142.962 196.339C143.86 196.874 144.568 197.613 145.085 198.555C145.602 199.496 145.861 200.574 145.861 201.786C145.861 203.036 145.571 204.15 144.993 205.129C144.42 206.101 143.623 206.867 142.602 207.428C141.586 207.982 140.41 208.259 139.075 208.259ZM148.612 204.491V201.768L156.636 189.091H158.907V192.969H157.522L152.121 201.528V201.675H163.32V204.491H148.612ZM157.633 208V203.661L157.67 202.442V189.091H160.901V208H157.633ZM173.056 208.259C171.727 208.259 170.545 208.031 169.511 207.575C168.483 207.12 167.671 206.486 167.074 205.673C166.476 204.861 166.159 203.922 166.123 202.857H169.594C169.625 203.368 169.794 203.814 170.102 204.196C170.41 204.571 170.819 204.864 171.33 205.073C171.841 205.282 172.413 205.387 173.047 205.387C173.724 205.387 174.324 205.27 174.848 205.036C175.371 204.796 175.78 204.464 176.076 204.039C176.371 203.614 176.516 203.125 176.51 202.571C176.516 201.999 176.368 201.494 176.066 201.057C175.765 200.62 175.328 200.278 174.755 200.032C174.189 199.786 173.506 199.663 172.706 199.663H171.034V197.022H172.706C173.364 197.022 173.94 196.908 174.432 196.68C174.931 196.453 175.322 196.133 175.605 195.72C175.888 195.302 176.026 194.818 176.02 194.271C176.026 193.735 175.906 193.27 175.66 192.876C175.42 192.476 175.078 192.165 174.635 191.944C174.198 191.722 173.684 191.612 173.093 191.612C172.515 191.612 171.979 191.716 171.487 191.925C170.994 192.135 170.597 192.433 170.296 192.821C169.994 193.203 169.834 193.658 169.816 194.188H166.52C166.544 193.129 166.849 192.199 167.434 191.399C168.025 190.593 168.812 189.965 169.797 189.516C170.782 189.06 171.887 188.832 173.112 188.832C174.374 188.832 175.469 189.069 176.399 189.543C177.334 190.011 178.058 190.642 178.569 191.436C179.079 192.23 179.335 193.107 179.335 194.067C179.341 195.132 179.027 196.025 178.393 196.745C177.765 197.465 176.94 197.936 175.919 198.158V198.305C177.248 198.49 178.267 198.982 178.975 199.783C179.689 200.577 180.043 201.565 180.037 202.746C180.037 203.805 179.735 204.753 179.132 205.59C178.535 206.421 177.71 207.074 176.657 207.548C175.611 208.022 174.411 208.259 173.056 208.259ZM183.206 208V205.526L189.77 199.09C190.398 198.456 190.921 197.893 191.34 197.401C191.759 196.908 192.073 196.431 192.282 195.969C192.491 195.508 192.596 195.015 192.596 194.492C192.596 193.895 192.46 193.384 192.189 192.96C191.919 192.529 191.546 192.196 191.072 191.962C190.598 191.728 190.06 191.612 189.456 191.612C188.835 191.612 188.29 191.741 187.822 191.999C187.354 192.252 186.991 192.612 186.733 193.08C186.48 193.547 186.354 194.104 186.354 194.751H183.095C183.095 193.55 183.369 192.507 183.917 191.621C184.465 190.734 185.219 190.048 186.179 189.562C187.145 189.076 188.253 188.832 189.503 188.832C190.771 188.832 191.885 189.069 192.845 189.543C193.805 190.017 194.55 190.667 195.079 191.491C195.615 192.316 195.883 193.258 195.883 194.317C195.883 195.025 195.747 195.72 195.476 196.403C195.206 197.087 194.729 197.844 194.045 198.675C193.368 199.506 192.417 200.512 191.192 201.694L187.933 205.009V205.138H196.169V208H183.206Z" fill="#132144"/>
<path d="M98.2074 231.111C97.9091 229.244 96.4474 228.153 94.6023 228.153C92.3438 228.153 90.6776 229.845 90.6776 232.636C90.6776 235.428 92.3352 237.119 94.6023 237.119C96.5199 237.119 97.9219 235.918 98.2074 234.192L96.8778 234.188C96.652 235.304 95.7145 235.918 94.6108 235.918C93.1151 235.918 91.9858 234.771 91.9858 232.636C91.9858 230.518 93.1108 229.355 94.6151 229.355C95.7273 229.355 96.6605 229.982 96.8778 231.111H98.2074ZM102.438 237.132C104.283 237.132 105.489 235.781 105.489 233.757C105.489 231.72 104.283 230.369 102.438 230.369C100.593 230.369 99.3867 231.72 99.3867 233.757C99.3867 235.781 100.593 237.132 102.438 237.132ZM102.442 236.062C101.236 236.062 100.674 235.01 100.674 233.753C100.674 232.5 101.236 231.435 102.442 231.435C103.64 231.435 104.202 232.5 104.202 233.753C104.202 235.01 103.64 236.062 102.442 236.062ZM106.911 237H108.185V232.964C108.185 232.082 108.803 231.469 109.528 231.469C110.235 231.469 110.725 231.938 110.725 232.649V237H111.995V232.828C111.995 232.04 112.477 231.469 113.308 231.469C113.981 231.469 114.535 231.844 114.535 232.73V237H115.809V232.611C115.809 231.115 114.974 230.369 113.789 230.369C112.847 230.369 112.14 230.821 111.825 231.52H111.756C111.471 230.804 110.87 230.369 109.996 230.369C109.131 230.369 108.488 230.8 108.215 231.52H108.134V230.455H106.911V237ZM117.517 239.455H118.791V235.982H118.868C119.098 236.399 119.566 237.128 120.76 237.128C122.345 237.128 123.495 235.858 123.495 233.74C123.495 231.618 122.328 230.369 120.747 230.369C119.532 230.369 119.093 231.111 118.868 231.516H118.761V230.455H117.517V239.455ZM118.765 233.727C118.765 232.359 119.362 231.452 120.474 231.452C121.629 231.452 122.208 232.428 122.208 233.727C122.208 235.04 121.612 236.041 120.474 236.041C119.379 236.041 118.765 235.104 118.765 233.727ZM126.828 237.145C127.91 237.145 128.52 236.595 128.762 236.105H128.814V237H130.058V232.653C130.058 230.749 128.558 230.369 127.518 230.369C126.333 230.369 125.243 230.847 124.816 232.04L126.014 232.312C126.201 231.848 126.679 231.401 127.535 231.401C128.358 231.401 128.779 231.831 128.779 232.572V232.602C128.779 233.067 128.302 233.058 127.126 233.195C125.886 233.339 124.616 233.663 124.616 235.151C124.616 236.438 125.583 237.145 126.828 237.145ZM127.105 236.122C126.385 236.122 125.865 235.798 125.865 235.168C125.865 234.486 126.47 234.243 127.207 234.145C127.62 234.089 128.6 233.979 128.784 233.795V234.639C128.784 235.415 128.166 236.122 127.105 236.122ZM131.755 237H133.029V233.003C133.029 232.146 133.69 231.528 134.593 231.528C134.857 231.528 135.156 231.575 135.258 231.605V230.386C135.13 230.369 134.879 230.357 134.717 230.357C133.95 230.357 133.293 230.791 133.055 231.494H132.987V230.455H131.755V237ZM138.947 237.132C140.375 237.132 141.385 236.429 141.674 235.364L140.468 235.146C140.238 235.764 139.684 236.08 138.96 236.08C137.869 236.08 137.136 235.372 137.102 234.111H141.755V233.659C141.755 231.294 140.341 230.369 138.858 230.369C137.034 230.369 135.832 231.759 135.832 233.77C135.832 235.803 137.017 237.132 138.947 237.132ZM137.106 233.156C137.157 232.227 137.831 231.422 138.866 231.422C139.855 231.422 140.502 232.155 140.507 233.156H137.106ZM145.619 237.128C146.812 237.128 147.281 236.399 147.511 235.982H147.618V237H148.862V228.273H147.588V231.516H147.511C147.281 231.111 146.847 230.369 145.628 230.369C144.047 230.369 142.884 231.618 142.884 233.74C142.884 235.858 144.03 237.128 145.619 237.128ZM145.901 236.041C144.763 236.041 144.17 235.04 144.17 233.727C144.17 232.428 144.75 231.452 145.901 231.452C147.013 231.452 147.609 232.359 147.609 233.727C147.609 235.104 147 236.041 145.901 236.041ZM156.912 230.455H155.57V228.886H154.295V230.455H153.337V231.477H154.295V235.342C154.291 236.531 155.199 237.107 156.205 237.085C156.609 237.081 156.882 237.004 157.031 236.949L156.801 235.896C156.716 235.913 156.558 235.952 156.354 235.952C155.94 235.952 155.57 235.815 155.57 235.078V231.477H156.912V230.455ZM161.008 237.132C162.853 237.132 164.059 235.781 164.059 233.757C164.059 231.72 162.853 230.369 161.008 230.369C159.163 230.369 157.957 231.72 157.957 233.757C157.957 235.781 159.163 237.132 161.008 237.132ZM161.012 236.062C159.806 236.062 159.244 235.01 159.244 233.753C159.244 232.5 159.806 231.435 161.012 231.435C162.21 231.435 162.772 232.5 162.772 233.753C162.772 235.01 162.21 236.062 161.012 236.062ZM169.028 233.378C169.028 235.517 169.599 237.298 170.681 238.815H171.849C171.01 237.69 170.349 235.406 170.349 233.378C170.349 231.354 171.01 229.07 171.849 227.945H170.681C169.599 229.462 169.028 231.243 169.028 233.378ZM175.805 238.091H176.606L176.61 237.132C178.413 237 179.444 235.969 179.444 234.588C179.444 233.016 178.042 232.406 176.934 232.134L176.623 232.053L176.631 229.317C177.428 229.423 177.974 229.866 178.055 230.565H179.325C179.29 229.266 178.217 228.294 176.636 228.166L176.64 227.182H175.839L175.835 228.175C174.305 228.328 173.184 229.283 173.184 230.659C173.184 231.874 174.053 232.585 175.455 232.964L175.822 233.062L175.813 235.964C174.982 235.862 174.339 235.411 174.271 234.588H172.95C173.031 236.058 174.092 237.004 175.809 237.132L175.805 238.091ZM176.614 235.964L176.623 233.284C177.488 233.523 178.14 233.838 178.14 234.575C178.14 235.321 177.518 235.845 176.614 235.964ZM175.826 231.839C175.191 231.652 174.492 231.315 174.496 230.582C174.496 229.943 175.004 229.445 175.83 229.321L175.826 231.839ZM180.898 237H186.642V235.871H182.713V235.807L184.448 233.991C186.046 232.376 186.502 231.605 186.502 230.629C186.502 229.227 185.36 228.153 183.715 228.153C182.083 228.153 180.89 229.21 180.89 230.804H182.147C182.142 229.866 182.748 229.253 183.689 229.253C184.576 229.253 185.249 229.798 185.249 230.668C185.249 231.439 184.789 231.993 183.851 232.986L180.898 236.045V237ZM191.296 237.119C193.077 237.119 194.385 236.054 194.381 234.605C194.385 233.501 193.716 232.709 192.557 232.53V232.462C193.469 232.227 194.061 231.511 194.057 230.531C194.061 229.249 193.009 228.153 191.33 228.153C189.728 228.153 188.441 229.121 188.398 230.54H189.672C189.702 229.739 190.456 229.253 191.313 229.253C192.203 229.253 192.787 229.794 192.783 230.599C192.787 231.443 192.11 231.997 191.142 231.997H190.405V233.071H191.142C192.353 233.071 193.051 233.685 193.051 234.562C193.051 235.411 192.314 235.986 191.287 235.986C190.341 235.986 189.604 235.5 189.553 234.724H188.215C188.27 236.148 189.532 237.119 191.296 237.119ZM198.873 237.119C200.628 237.119 201.881 235.879 201.877 234.179C201.881 232.491 200.705 231.264 199.115 231.264C198.468 231.264 197.867 231.511 197.526 231.844H197.475L197.752 229.402H201.455V228.273H196.657L196.167 232.67L197.373 232.849C197.701 232.555 198.289 232.355 198.817 232.355C199.853 232.364 200.603 233.139 200.603 234.205C200.603 235.253 199.874 236.011 198.873 236.011C198.029 236.011 197.36 235.474 197.292 234.724H196.013C196.064 236.114 197.27 237.119 198.873 237.119ZM203.25 235.295H207.388V237H208.645V235.295H209.8V234.179H208.645V228.273H207.021L203.25 234.23V235.295ZM207.396 234.179H204.631V234.111L207.328 229.841H207.396V234.179ZM214.332 237.119C216.156 237.136 217.366 235.824 217.362 234.149C217.366 232.479 216.151 231.281 214.638 231.281C213.718 231.281 212.921 231.724 212.474 232.462H212.41C212.414 230.48 213.164 229.304 214.442 229.304C215.282 229.304 215.81 229.815 215.989 230.54H217.289C217.089 229.159 216.002 228.153 214.442 228.153C212.414 228.153 211.148 229.896 211.148 232.93C211.144 236.143 212.781 237.107 214.332 237.119ZM214.327 236.011C213.313 236.011 212.572 235.159 212.572 234.179C212.576 233.203 213.352 232.351 214.357 232.351C215.354 232.351 216.087 233.156 216.083 234.166C216.087 235.197 215.325 236.011 214.327 236.011ZM223.381 228.273H222.107V237H223.381V228.273ZM227 237.145C228.082 237.145 228.691 236.595 228.934 236.105H228.985V237H230.23V232.653C230.23 230.749 228.73 230.369 227.69 230.369C226.505 230.369 225.414 230.847 224.988 232.04L226.186 232.312C226.373 231.848 226.85 231.401 227.707 231.401C228.529 231.401 228.951 231.831 228.951 232.572V232.602C228.951 233.067 228.474 233.058 227.298 233.195C226.058 233.339 224.788 233.663 224.788 235.151C224.788 236.438 225.755 237.145 227 237.145ZM227.277 236.122C226.556 236.122 226.037 235.798 226.037 235.168C226.037 234.486 226.642 234.243 227.379 234.145C227.792 234.089 228.772 233.979 228.956 233.795V234.639C228.956 235.415 228.338 236.122 227.277 236.122ZM236.832 232.053C236.567 231.034 235.771 230.369 234.356 230.369C232.877 230.369 231.829 231.149 231.829 232.308C231.829 233.237 232.391 233.855 233.619 234.128L234.727 234.371C235.357 234.511 235.651 234.793 235.651 235.202C235.651 235.709 235.11 236.105 234.275 236.105C233.512 236.105 233.022 235.777 232.869 235.134L231.637 235.321C231.85 236.48 232.813 237.132 234.283 237.132C235.864 237.132 236.96 236.293 236.96 235.108C236.96 234.183 236.371 233.612 235.17 233.335L234.13 233.097C233.41 232.926 233.099 232.683 233.103 232.24C233.099 231.737 233.644 231.379 234.369 231.379C235.161 231.379 235.528 231.818 235.677 232.257L236.832 232.053ZM241.416 230.455H240.074V228.886H238.799V230.455H237.841V231.477H238.799V235.342C238.795 236.531 239.703 237.107 240.708 237.085C241.113 237.081 241.386 237.004 241.535 236.949L241.305 235.896C241.22 235.913 241.062 235.952 240.858 235.952C240.444 235.952 240.074 235.815 240.074 235.078V231.477H241.416V230.455ZM246.806 239.455C247.859 239.455 248.524 238.905 248.903 237.874L251.609 230.467L250.233 230.455L248.575 235.534H248.507L246.849 230.455H245.485L247.88 237.085L247.723 237.52C247.399 238.389 246.943 238.462 246.244 238.27L245.937 239.314C246.091 239.382 246.423 239.455 246.806 239.455ZM255.396 237.132C256.824 237.132 257.834 236.429 258.124 235.364L256.918 235.146C256.688 235.764 256.134 236.08 255.409 236.08C254.318 236.08 253.585 235.372 253.551 234.111H258.205V233.659C258.205 231.294 256.79 230.369 255.307 230.369C253.483 230.369 252.281 231.759 252.281 233.77C252.281 235.803 253.466 237.132 255.396 237.132ZM253.555 233.156C253.607 232.227 254.28 231.422 255.315 231.422C256.304 231.422 256.952 232.155 256.956 233.156H253.555ZM261.523 237.145C262.605 237.145 263.215 236.595 263.458 236.105H263.509V237H264.753V232.653C264.753 230.749 263.253 230.369 262.213 230.369C261.029 230.369 259.938 230.847 259.512 232.04L260.709 232.312C260.897 231.848 261.374 231.401 262.23 231.401C263.053 231.401 263.475 231.831 263.475 232.572V232.602C263.475 233.067 262.998 233.058 261.821 233.195C260.581 233.339 259.311 233.663 259.311 235.151C259.311 236.438 260.279 237.145 261.523 237.145ZM261.8 236.122C261.08 236.122 260.56 235.798 260.56 235.168C260.56 234.486 261.165 234.243 261.902 234.145C262.316 234.089 263.296 233.979 263.479 233.795V234.639C263.479 235.415 262.861 236.122 261.8 236.122ZM266.45 237H267.724V233.003C267.724 232.146 268.385 231.528 269.288 231.528C269.553 231.528 269.851 231.575 269.953 231.605V230.386C269.825 230.369 269.574 230.357 269.412 230.357C268.645 230.357 267.989 230.791 267.75 231.494H267.682V230.455H266.45V237ZM273.506 233.382C273.506 231.243 272.935 229.462 271.853 227.945H270.685C271.525 229.07 272.185 231.354 272.185 233.382C272.185 235.406 271.525 237.69 270.685 238.815H271.853C272.935 237.298 273.506 235.517 273.506 233.382Z" fill="#677788"/>
<mask id="path-21-inside-1_192_45" fill="white">
<path d="M509 282.5C509 286.95 507.68 291.3 505.208 295C502.736 298.7 499.222 301.584 495.11 303.287C490.999 304.99 486.475 305.436 482.11 304.568C477.746 303.7 473.737 301.557 470.59 298.41C467.443 295.263 465.3 291.254 464.432 286.89C463.564 282.525 464.01 278.001 465.713 273.89C467.416 269.778 470.3 266.264 474 263.792C477.7 261.32 482.05 260 486.5 260L486.5 282.5H509Z"/>
</mask>
<path d="M509 282.5C509 286.95 507.68 291.3 505.208 295C502.736 298.7 499.222 301.584 495.11 303.287C490.999 304.99 486.475 305.436 482.11 304.568C477.746 303.7 473.737 301.557 470.59 298.41C467.443 295.263 465.3 291.254 464.432 286.89C463.564 282.525 464.01 278.001 465.713 273.89C467.416 269.778 470.3 266.264 474 263.792C477.7 261.32 482.05 260 486.5 260L486.5 282.5H509Z" fill="white" stroke="#377DFF" stroke-width="6" mask="url(#path-21-inside-1_192_45)"/>
<mask id="path-22-inside-2_192_45" fill="white">
<path d="M507 279.5C507 277.202 506.547 274.926 505.668 272.803C504.788 270.68 503.499 268.751 501.874 267.126C500.249 265.501 498.32 264.212 496.197 263.332C494.074 262.453 491.798 262 489.5 262L489.5 279.5H507Z"/>
</mask>
<path d="M507 279.5C507 277.202 506.547 274.926 505.668 272.803C504.788 270.68 503.499 268.751 501.874 267.126C500.249 265.501 498.32 264.212 496.197 263.332C494.074 262.453 491.798 262 489.5 262L489.5 279.5H507Z" fill="white" stroke="#37B7FF" stroke-opacity="0.8" stroke-width="6" mask="url(#path-22-inside-2_192_45)"/>
<path d="M468.048 347.278C472.453 347.278 475.605 344.852 475.615 341.541C475.605 338.996 473.726 336.868 471.359 336.47V336.331C473.418 335.874 474.849 334.024 474.859 331.817C474.849 328.685 471.966 326.358 468.048 326.358C464.101 326.358 461.217 328.675 461.227 331.817C461.217 334.024 462.629 335.874 464.727 336.331V336.47C462.321 336.868 460.462 338.996 460.472 341.541C460.462 344.852 463.604 347.278 468.048 347.278ZM468.048 344.435C465.741 344.435 464.25 343.162 464.27 341.283C464.25 339.334 465.851 337.952 468.048 337.952C470.216 337.952 471.807 339.344 471.827 341.283C471.807 343.162 470.325 344.435 468.048 344.435ZM468.048 335.158C466.159 335.158 464.807 333.935 464.827 332.165C464.807 330.415 466.119 329.241 468.048 329.241C469.947 329.241 471.25 330.415 471.27 332.165C471.25 333.945 469.908 335.158 468.048 335.158ZM486.411 347.388C491.323 347.398 494.256 343.52 494.256 336.838C494.256 330.196 491.303 326.358 486.411 326.358C481.519 326.358 478.576 330.186 478.566 336.838C478.566 343.51 481.499 347.388 486.411 347.388ZM486.411 344.276C483.875 344.276 482.284 341.73 482.294 336.838C482.304 331.986 483.885 329.43 486.411 329.43C488.946 329.43 490.527 331.986 490.537 336.838C490.537 341.73 488.956 344.276 486.411 344.276ZM508.447 343.182C508.457 345.548 509.959 347.567 512.753 347.567C515.537 347.567 517.068 345.548 517.058 343.182V342.108C517.068 339.722 515.577 337.723 512.753 337.723C509.999 337.723 508.457 339.741 508.447 342.108V343.182ZM498.097 331.528C498.107 333.895 499.608 335.893 502.412 335.893C505.186 335.893 506.717 333.915 506.707 331.528V330.455C506.717 328.068 505.226 326.07 502.412 326.07C499.668 326.07 498.107 328.068 498.097 330.455V331.528ZM498.991 347H501.487L515.487 326.636H512.991L498.991 347ZM511.043 342.108C511.053 341.054 511.5 339.99 512.753 339.99C514.065 339.99 514.453 341.054 514.443 342.108V343.182C514.453 344.236 514.026 345.28 512.753 345.28C511.48 345.28 511.053 344.226 511.043 343.182V342.108ZM500.712 330.455C500.722 329.411 501.149 328.337 502.412 328.337C503.724 328.337 504.102 329.401 504.092 330.455V331.528C504.102 332.582 503.685 333.626 502.412 333.626C501.139 333.626 500.722 332.582 500.712 331.528V330.455Z" fill="#132144"/>
<path d="M454.672 371.493H456.153C456.109 369.862 454.667 368.679 452.599 368.679C450.555 368.679 448.989 369.847 448.989 371.602C448.989 373.019 450.004 373.849 451.639 374.292L452.842 374.62C453.931 374.908 454.771 375.266 454.771 376.171C454.771 377.165 453.822 377.822 452.514 377.822C451.331 377.822 450.347 377.295 450.257 376.186H448.716C448.815 378.031 450.242 379.169 452.524 379.169C454.915 379.169 456.293 377.911 456.293 376.186C456.293 374.352 454.657 373.641 453.364 373.322L452.37 373.064C451.575 372.86 450.516 372.487 450.521 371.513C450.521 370.648 451.311 370.006 452.564 370.006C453.732 370.006 454.562 370.553 454.672 371.493ZM460.231 379.169C461.494 379.169 462.205 378.528 462.488 377.956H462.548V379H464V373.929C464 371.707 462.25 371.264 461.037 371.264C459.655 371.264 458.382 371.821 457.885 373.213L459.282 373.531C459.501 372.989 460.057 372.467 461.057 372.467C462.016 372.467 462.508 372.969 462.508 373.835V373.869C462.508 374.411 461.952 374.401 460.579 374.56C459.133 374.729 457.651 375.107 457.651 376.842C457.651 378.344 458.78 379.169 460.231 379.169ZM460.555 377.976C459.714 377.976 459.108 377.598 459.108 376.862C459.108 376.067 459.814 375.783 460.674 375.669C461.156 375.604 462.3 375.475 462.513 375.261V376.246C462.513 377.151 461.792 377.976 460.555 377.976ZM467.466 368.818H465.98V379H467.466V368.818ZM472.757 379.154C474.423 379.154 475.601 378.334 475.939 377.091L474.532 376.837C474.264 377.558 473.617 377.926 472.772 377.926C471.499 377.926 470.644 377.101 470.605 375.629H476.034V375.102C476.034 372.343 474.383 371.264 472.653 371.264C470.525 371.264 469.123 372.885 469.123 375.232C469.123 377.603 470.505 379.154 472.757 379.154ZM470.61 374.516C470.669 373.432 471.455 372.492 472.663 372.492C473.816 372.492 474.572 373.347 474.577 374.516H470.61ZM483.405 373.228C483.097 372.04 482.167 371.264 480.517 371.264C478.792 371.264 477.569 372.174 477.569 373.526C477.569 374.61 478.225 375.331 479.657 375.649L480.949 375.933C481.685 376.097 482.028 376.425 482.028 376.902C482.028 377.494 481.397 377.956 480.422 377.956C479.532 377.956 478.961 377.573 478.782 376.822L477.345 377.041C477.593 378.393 478.717 379.154 480.432 379.154C482.277 379.154 483.554 378.175 483.554 376.793C483.554 375.714 482.868 375.048 481.466 374.724L480.253 374.446C479.413 374.247 479.05 373.964 479.055 373.447C479.05 372.86 479.686 372.442 480.532 372.442C481.456 372.442 481.884 372.955 482.058 373.467L483.405 373.228ZM492.458 371.364H490.892V369.534H489.406V371.364H488.287V372.557H489.406V377.066C489.401 378.453 490.46 379.124 491.633 379.099C492.105 379.094 492.424 379.005 492.598 378.94L492.329 377.712C492.23 377.732 492.046 377.777 491.807 377.777C491.325 377.777 490.892 377.618 490.892 376.758V372.557H492.458V371.364ZM496.325 379.169C497.588 379.169 498.299 378.528 498.582 377.956H498.642V379H500.094V373.929C500.094 371.707 498.344 371.264 497.131 371.264C495.748 371.264 494.476 371.821 493.979 373.213L495.376 373.531C495.594 372.989 496.151 372.467 497.15 372.467C498.11 372.467 498.602 372.969 498.602 373.835V373.869C498.602 374.411 498.045 374.401 496.673 374.56C495.226 374.729 493.745 375.107 493.745 376.842C493.745 378.344 494.873 379.169 496.325 379.169ZM496.648 377.976C495.808 377.976 495.202 377.598 495.202 376.862C495.202 376.067 495.907 375.783 496.768 375.669C497.25 375.604 498.393 375.475 498.607 375.261V376.246C498.607 377.151 497.886 377.976 496.648 377.976ZM502.074 379H503.56V374.337C503.56 373.337 504.331 372.616 505.385 372.616C505.693 372.616 506.041 372.671 506.16 372.706V371.284C506.011 371.264 505.718 371.249 505.529 371.249C504.634 371.249 503.868 371.756 503.59 372.577H503.51V371.364H502.074V379ZM510.375 382.023C512.319 382.023 513.82 381.133 513.82 379.169V371.364H512.363V372.602H512.254C511.991 372.129 511.464 371.264 510.042 371.264C508.197 371.264 506.84 372.721 506.84 375.152C506.84 377.588 508.227 378.886 510.032 378.886C511.434 378.886 511.976 378.095 512.244 377.608H512.339V379.109C512.339 380.308 511.518 380.825 510.39 380.825C509.152 380.825 508.67 380.203 508.406 379.766L507.128 380.293C507.531 381.227 508.55 382.023 510.375 382.023ZM510.36 377.653C509.032 377.653 508.341 376.634 508.341 375.132C508.341 373.665 509.018 372.527 510.36 372.527C511.657 372.527 512.354 373.586 512.354 375.132C512.354 376.708 511.643 377.653 510.36 377.653ZM519.105 379.154C520.77 379.154 521.949 378.334 522.287 377.091L520.88 376.837C520.611 377.558 519.965 377.926 519.12 377.926C517.847 377.926 516.992 377.101 516.952 375.629H522.381V375.102C522.381 372.343 520.731 371.264 519.001 371.264C516.873 371.264 515.471 372.885 515.471 375.232C515.471 377.603 516.853 379.154 519.105 379.154ZM516.957 374.516C517.017 373.432 517.802 372.492 519.01 372.492C520.164 372.492 520.92 373.347 520.925 374.516H516.957ZM527.595 371.364H526.029V369.534H524.543V371.364H523.424V372.557H524.543V377.066C524.538 378.453 525.597 379.124 526.77 379.099C527.242 379.094 527.56 379.005 527.734 378.94L527.466 377.712C527.366 377.732 527.183 377.777 526.944 377.777C526.462 377.777 526.029 377.618 526.029 376.758V372.557H527.595V371.364Z" fill="#677788"/>
<path d="M268.371 641.091H265.112L260.413 644.11V647.249L264.835 644.424H264.946V660H268.371V641.091ZM280.162 660.36C284.723 660.369 287.447 656.768 287.447 650.564C287.447 644.396 284.705 640.832 280.162 640.832C275.619 640.832 272.886 644.387 272.877 650.564C272.877 656.759 275.601 660.36 280.162 660.36ZM280.162 657.47C277.808 657.47 276.33 655.107 276.339 650.564C276.349 646.058 277.817 643.685 280.162 643.685C282.516 643.685 283.984 646.058 283.994 650.564C283.994 655.107 282.526 657.47 280.162 657.47ZM293.739 657.415H290.784L290.72 658.449C290.563 660.951 289.907 663.499 289.64 664.616H291.892C292.336 663.453 293.36 660.757 293.619 658.43L293.739 657.415ZM303.791 660.259C307.789 660.259 310.578 657.544 310.578 653.786C310.578 650.148 308.048 647.526 304.613 647.526C303.08 647.526 301.723 648.136 301.021 648.967H300.911L301.455 643.953H309.59V641.091H298.621L297.633 650.841L300.726 651.349C301.363 650.647 302.563 650.176 303.699 650.185C305.776 650.195 307.272 651.727 307.263 653.869C307.272 655.984 305.813 657.489 303.791 657.489C302.083 657.489 300.708 656.408 300.588 654.857H297.264C297.356 657.996 300.098 660.259 303.791 660.259ZM313.329 656.491H322.35V660H325.618V656.491H328.037V653.675H325.618V641.091H321.352L313.329 653.768V656.491ZM322.387 653.675H316.838V653.528L322.239 644.969H322.387V653.675ZM330.645 656.491H339.666V660H342.934V656.491H345.354V653.675H342.934V641.091H338.669L330.645 653.768V656.491ZM339.703 653.675H334.154V653.528L339.555 644.969H339.703V653.675Z" fill="#132144"/>
<path d="M260.722 673.273H259.298L262.439 682H263.96L267.101 673.273H265.678L263.249 680.381H263.151L260.722 673.273ZM268.259 682H269.533V675.455H268.259V682ZM268.902 674.445C269.341 674.445 269.708 674.104 269.708 673.686C269.708 673.268 269.341 672.923 268.902 672.923C268.459 672.923 268.097 673.268 268.097 673.686C268.097 674.104 268.459 674.445 268.902 674.445ZM276.152 677.053C275.888 676.034 275.091 675.369 273.676 675.369C272.197 675.369 271.149 676.149 271.149 677.308C271.149 678.237 271.712 678.855 272.939 679.128L274.047 679.371C274.678 679.511 274.972 679.793 274.972 680.202C274.972 680.709 274.43 681.105 273.595 681.105C272.832 681.105 272.342 680.777 272.189 680.134L270.957 680.321C271.17 681.48 272.134 682.132 273.604 682.132C275.185 682.132 276.28 681.293 276.28 680.108C276.28 679.183 275.692 678.612 274.49 678.335L273.45 678.097C272.73 677.926 272.419 677.683 272.423 677.24C272.419 676.737 272.964 676.379 273.689 676.379C274.482 676.379 274.848 676.818 274.997 677.257L276.152 677.053ZM277.681 682H278.955V675.455H277.681V682ZM278.324 674.445C278.763 674.445 279.13 674.104 279.13 673.686C279.13 673.268 278.763 672.923 278.324 672.923C277.881 672.923 277.519 673.268 277.519 673.686C277.519 674.104 277.881 674.445 278.324 674.445ZM283.724 675.455H282.382V673.886H281.108V675.455H280.149V676.477H281.108V680.342C281.104 681.531 282.011 682.107 283.017 682.085C283.422 682.081 283.695 682.004 283.844 681.949L283.614 680.896C283.528 680.913 283.371 680.952 283.166 680.952C282.753 680.952 282.382 680.815 282.382 680.078V676.477H283.724V675.455ZM287.821 682.132C289.666 682.132 290.872 680.781 290.872 678.757C290.872 676.72 289.666 675.369 287.821 675.369C285.975 675.369 284.77 676.72 284.77 678.757C284.77 680.781 285.975 682.132 287.821 682.132ZM287.825 681.062C286.619 681.062 286.056 680.01 286.056 678.753C286.056 677.5 286.619 676.435 287.825 676.435C289.022 676.435 289.585 677.5 289.585 678.753C289.585 680.01 289.022 681.062 287.825 681.062ZM292.294 682H293.568V678.003C293.568 677.146 294.229 676.528 295.132 676.528C295.396 676.528 295.695 676.575 295.797 676.605V675.386C295.669 675.369 295.418 675.357 295.256 675.357C294.489 675.357 293.832 675.791 293.594 676.494H293.526V675.455H292.294V682ZM301.804 677.053C301.54 676.034 300.743 675.369 299.328 675.369C297.85 675.369 296.801 676.149 296.801 677.308C296.801 678.237 297.364 678.855 298.591 679.128L299.699 679.371C300.33 679.511 300.624 679.793 300.624 680.202C300.624 680.709 300.083 681.105 299.248 681.105C298.485 681.105 297.995 680.777 297.841 680.134L296.61 680.321C296.823 681.48 297.786 682.132 299.256 682.132C300.837 682.132 301.932 681.293 301.932 680.108C301.932 679.183 301.344 678.612 300.142 678.335L299.103 678.097C298.382 677.926 298.071 677.683 298.076 677.24C298.071 676.737 298.617 676.379 299.341 676.379C300.134 676.379 300.5 676.818 300.65 677.257L301.804 677.053ZM309.564 675.455H308.222V673.886H306.948V675.455H305.989V676.477H306.948V680.342C306.944 681.531 307.851 682.107 308.857 682.085C309.262 682.081 309.534 682.004 309.684 681.949L309.453 680.896C309.368 680.913 309.211 680.952 309.006 680.952C308.593 680.952 308.222 680.815 308.222 680.078V676.477H309.564V675.455ZM312.388 678.114C312.388 677.07 313.049 676.473 313.957 676.473C314.835 676.473 315.359 677.031 315.359 677.99V682H316.633V677.837C316.633 676.205 315.738 675.369 314.391 675.369C313.373 675.369 312.759 675.812 312.452 676.52H312.371V673.273H311.114V682H312.388V678.114ZM318.333 682H319.607V675.455H318.333V682ZM318.977 674.445C319.415 674.445 319.782 674.104 319.782 673.686C319.782 673.268 319.415 672.923 318.977 672.923C318.533 672.923 318.171 673.268 318.171 673.686C318.171 674.104 318.533 674.445 318.977 674.445ZM326.226 677.053C325.962 676.034 325.165 675.369 323.75 675.369C322.272 675.369 321.223 676.149 321.223 677.308C321.223 678.237 321.786 678.855 323.013 679.128L324.121 679.371C324.752 679.511 325.046 679.793 325.046 680.202C325.046 680.709 324.505 681.105 323.669 681.105C322.907 681.105 322.417 680.777 322.263 680.134L321.032 680.321C321.245 681.48 322.208 682.132 323.678 682.132C325.259 682.132 326.354 681.293 326.354 680.108C326.354 679.183 325.766 678.612 324.564 678.335L323.525 678.097C322.804 677.926 322.493 677.683 322.498 677.24C322.493 676.737 323.039 676.379 323.763 676.379C324.556 676.379 324.922 676.818 325.071 677.257L326.226 677.053ZM331.736 684.455C332.789 684.455 333.453 683.905 333.833 682.874L336.539 675.467L335.162 675.455L333.505 680.534H333.436L331.779 675.455H330.415L332.81 682.085L332.652 682.52C332.328 683.389 331.873 683.462 331.174 683.27L330.867 684.314C331.02 684.382 331.353 684.455 331.736 684.455ZM340.326 682.132C341.754 682.132 342.763 681.429 343.053 680.364L341.847 680.146C341.617 680.764 341.063 681.08 340.339 681.08C339.248 681.08 338.515 680.372 338.481 679.111H343.134V678.659C343.134 676.294 341.719 675.369 340.237 675.369C338.413 675.369 337.211 676.759 337.211 678.77C337.211 680.803 338.396 682.132 340.326 682.132ZM338.485 678.156C338.536 677.227 339.21 676.422 340.245 676.422C341.234 676.422 341.881 677.155 341.886 678.156H338.485ZM346.453 682.145C347.535 682.145 348.145 681.595 348.387 681.105H348.439V682H349.683V677.653C349.683 675.749 348.183 675.369 347.143 675.369C345.958 675.369 344.868 675.847 344.441 677.04L345.639 677.312C345.826 676.848 346.304 676.401 347.16 676.401C347.983 676.401 348.404 676.831 348.404 677.572V677.602C348.404 678.067 347.927 678.058 346.751 678.195C345.511 678.339 344.241 678.663 344.241 680.151C344.241 681.438 345.208 682.145 346.453 682.145ZM346.73 681.122C346.01 681.122 345.49 680.798 345.49 680.168C345.49 679.486 346.095 679.243 346.832 679.145C347.245 679.089 348.225 678.979 348.409 678.795V679.639C348.409 680.415 347.791 681.122 346.73 681.122ZM351.38 682H352.654V678.003C352.654 677.146 353.315 676.528 354.218 676.528C354.482 676.528 354.781 676.575 354.883 676.605V675.386C354.755 675.369 354.504 675.357 354.342 675.357C353.575 675.357 352.918 675.791 352.68 676.494H352.612V675.455H351.38V682Z" fill="#677788"/>
<path d="M250 587.095C250 587.095 258.175 605.756 266.5 605.697C273.434 605.648 275.163 596.485 281.5 592.607C286.184 589.74 288.915 586.215 294 587.095C299.698 588.081 300.445 596.802 306 598.808C317.176 602.842 320.066 575.85 331.5 578.138C342.431 580.326 338.5 605.697 351.5 605.697C364.5 605.697 370 579.516 377.5 592.607C385 605.697 388.871 595.83 395.5 592.607C401.798 589.544 402.385 579.408 409 578.138C420.803 575.871 414.829 609.268 426.5 612.587C437.719 615.778 441.744 599.64 452 592.607C461.159 586.326 476 578.138 476 578.138" stroke="#377DFF" stroke-width="2"/>
<circle cx="416" cy="584" r="2.75" fill="#377DFF" stroke="white" stroke-width="0.5"/>
<defs>
<filter id="filter0_d_192_45" x="29" y="0" width="644" height="498.064" filterUnits="userSpaceOnUse" color-interpolation-filters="sRGB">
<feFlood flood-opacity="0" result="BackgroundImageFix"/>
<feColorMatrix in="SourceAlpha" type="matrix" values="0 0 0 0 0 0 0 0 0 0 0 0 0 0 0 0 0 0 127 0" result="hardAlpha"/>
<feOffset dy="10"/>
<feGaussianBlur stdDeviation="5"/>
<feComposite in2="hardAlpha" operator="out"/>
<feColorMatrix type="matrix" values="0 0 0 0 0.215686 0 0 0 0 0.490196 0 0 0 0 1 0 0 0 0.1 0"/>
<feBlend mode="normal" in2="BackgroundImageFix" result="effect1_dropShadow_192_45"/>
<feBlend mode="normal" in="SourceGraphic" in2="effect1_dropShadow_192_45" result="shape"/>
</filter>
<filter id="filter1_d_192_45" x="0" y="372" width="170" height="170" filterUnits="userSpaceOnUse" color-interpolation-filters="sRGB">
<feFlood flood-opacity="0" result="BackgroundImageFix"/>
<feColorMatrix in="SourceAlpha" type="matrix" values="0 0 0 0 0 0 0 0 0 0 0 0 0 0 0 0 0 0 127 0" result="hardAlpha"/>
<feOffset dx="1" dy="2"/>
<feGaussianBlur stdDeviation="5"/>
<feComposite in2="hardAlpha" operator="out"/>
<feColorMatrix type="matrix" values="0 0 0 0 0 0 0 0 0 0 0 0 0 0 0 0 0 0 0.06 0"/>
<feBlend mode="normal" in2="BackgroundImageFix" result="effect1_dropShadow_192_45"/>
<feBlend mode="normal" in="SourceGraphic" in2="effect1_dropShadow_192_45" result="shape"/>
</filter>
<filter id="filter2_d_192_45" x="220" y="537" width="288" height="188" filterUnits="userSpaceOnUse" color-interpolation-filters="sRGB">
<feFlood flood-opacity="0" result="BackgroundImageFix"/>
<feColorMatrix in="SourceAlpha" type="matrix" values="0 0 0 0 0 0 0 0 0 0 0 0 0 0 0 0 0 0 127 0" result="hardAlpha"/>
<feOffset dx="1" dy="2"/>
<feGaussianBlur stdDeviation="9.5"/>
<feComposite in2="hardAlpha" operator="out"/>
<feColorMatrix type="matrix" values="0 0 0 0 0 0 0 0 0 0 0 0 0 0 0 0 0 0 0.06 0"/>
<feBlend mode="normal" in2="BackgroundImageFix" result="effect1_dropShadow_192_45"/>
<feBlend mode="normal" in="SourceGraphic" in2="effect1_dropShadow_192_45" result="shape"/>
</filter>
<filter id="filter3_d_192_45" x="54" y="122" width="260" height="150" filterUnits="userSpaceOnUse" color-interpolation-filters="sRGB">
<feFlood flood-opacity="0" result="BackgroundImageFix"/>
<feColorMatrix in="SourceAlpha" type="matrix" values="0 0 0 0 0 0 0 0 0 0 0 0 0 0 0 0 0 0 127 0" result="hardAlpha"/>
<feOffset dx="1" dy="2"/>
<feGaussianBlur stdDeviation="5"/>
<feComposite in2="hardAlpha" operator="out"/>
<feColorMatrix type="matrix" values="0 0 0 0 0 0 0 0 0 0 0 0 0 0 0 0 0 0 0.06 0"/>
<feBlend mode="normal" in2="BackgroundImageFix" result="effect1_dropShadow_192_45"/>
<feBlend mode="normal" in="SourceGraphic" in2="effect1_dropShadow_192_45" result="shape"/>
</filter>
<filter id="filter4_d_192_45" x="405" y="227" width="170" height="200" filterUnits="userSpaceOnUse" color-interpolation-filters="sRGB">
<feFlood flood-opacity="0" result="BackgroundImageFix"/>
<feColorMatrix in="SourceAlpha" type="matrix" values="0 0 0 0 0 0 0 0 0 0 0 0 0 0 0 0 0 0 127 0" result="hardAlpha"/>
<feOffset dx="1" dy="2"/>
<feGaussianBlur stdDeviation="5"/>
<feComposite in2="hardAlpha" operator="out"/>
<feColorMatrix type="matrix" values="0 0 0 0 0 0 0 0 0 0 0 0 0 0 0 0 0 0 0.05 0"/>
<feBlend mode="normal" in2="BackgroundImageFix" result="effect1_dropShadow_192_45"/>
<feBlend mode="normal" in="SourceGraphic" in2="effect1_dropShadow_192_45" result="shape"/>
</filter>
</defs>
</svg>
