<svg width="695" height="516" viewBox="0 0 695 516" fill="none" xmlns="http://www.w3.org/2000/svg">
<mask id="mask0_1013_627" style="mask-type:alpha" maskUnits="userSpaceOnUse" x="0" y="0" width="695" height="516">
<rect width="695" height="516" fill="#D9D9D9"/>
</mask>
<g mask="url(#mask0_1013_627)">
<g clip-path="url(#clip0_1013_627)">
<path d="M486.947 246.582C487.631 246.582 488.185 246.228 488.185 245.791C488.185 245.354 487.631 245 486.947 245C486.263 245 485.709 245.354 485.709 245.791C485.709 246.228 486.263 246.582 486.947 246.582Z" fill="#377DFF"/>
<path d="M514.8 246.582C515.484 246.582 516.038 246.228 516.038 245.791C516.038 245.354 515.484 245 514.8 245C514.117 245 513.562 245.354 513.562 245.791C513.562 246.228 514.117 246.582 514.8 246.582Z" fill="#377DFF"/>
<path d="M542.652 246.582C543.336 246.582 543.89 246.228 543.89 245.791C543.89 245.354 543.336 245 542.652 245C541.968 245 541.414 245.354 541.414 245.791C541.414 246.228 541.968 246.582 542.652 246.582Z" fill="#377DFF"/>
<path d="M570.505 246.582C571.189 246.582 571.743 246.228 571.743 245.791C571.743 245.354 571.189 245 570.505 245C569.822 245 569.268 245.354 569.268 245.791C569.268 246.228 569.822 246.582 570.505 246.582Z" fill="#377DFF"/>
<path d="M598.357 246.582C599.041 246.582 599.595 246.228 599.595 245.791C599.595 245.354 599.041 245 598.357 245C597.673 245 597.119 245.354 597.119 245.791C597.119 246.228 597.673 246.582 598.357 246.582Z" fill="#377DFF"/>
<path d="M626.211 246.582C626.894 246.582 627.448 246.228 627.448 245.791C627.448 245.354 626.894 245 626.211 245C625.527 245 624.973 245.354 624.973 245.791C624.973 246.228 625.527 246.582 626.211 246.582Z" fill="#377DFF"/>
<path d="M486.947 264.384C487.631 264.384 488.185 264.029 488.185 263.592C488.185 263.155 487.631 262.801 486.947 262.801C486.263 262.801 485.709 263.155 485.709 263.592C485.709 264.029 486.263 264.384 486.947 264.384Z" fill="#377DFF"/>
<path d="M514.8 264.384C515.484 264.384 516.038 264.029 516.038 263.592C516.038 263.155 515.484 262.801 514.8 262.801C514.117 262.801 513.562 263.155 513.562 263.592C513.562 264.029 514.117 264.384 514.8 264.384Z" fill="#377DFF"/>
<path d="M542.652 264.384C543.336 264.384 543.89 264.029 543.89 263.592C543.89 263.155 543.336 262.801 542.652 262.801C541.968 262.801 541.414 263.155 541.414 263.592C541.414 264.029 541.968 264.384 542.652 264.384Z" fill="#377DFF"/>
<path d="M570.505 264.384C571.189 264.384 571.743 264.029 571.743 263.592C571.743 263.155 571.189 262.801 570.505 262.801C569.822 262.801 569.268 263.155 569.268 263.592C569.268 264.029 569.822 264.384 570.505 264.384Z" fill="#377DFF"/>
<path d="M598.357 264.384C599.041 264.384 599.595 264.029 599.595 263.592C599.595 263.155 599.041 262.801 598.357 262.801C597.673 262.801 597.119 263.155 597.119 263.592C597.119 264.029 597.673 264.384 598.357 264.384Z" fill="#377DFF"/>
<path d="M626.211 264.384C626.894 264.384 627.448 264.029 627.448 263.592C627.448 263.155 626.894 262.801 626.211 262.801C625.527 262.801 624.973 263.155 624.973 263.592C624.973 264.029 625.527 264.384 626.211 264.384Z" fill="#377DFF"/>
<path d="M486.947 282.185C487.631 282.185 488.185 281.831 488.185 281.394C488.185 280.957 487.631 280.603 486.947 280.603C486.263 280.603 485.709 280.957 485.709 281.394C485.709 281.831 486.263 282.185 486.947 282.185Z" fill="#377DFF"/>
<path d="M514.8 282.185C515.484 282.185 516.038 281.831 516.038 281.394C516.038 280.957 515.484 280.603 514.8 280.603C514.117 280.603 513.562 280.957 513.562 281.394C513.562 281.831 514.117 282.185 514.8 282.185Z" fill="#377DFF"/>
<path d="M542.652 282.185C543.336 282.185 543.89 281.831 543.89 281.394C543.89 280.957 543.336 280.603 542.652 280.603C541.968 280.603 541.414 280.957 541.414 281.394C541.414 281.831 541.968 282.185 542.652 282.185Z" fill="#377DFF"/>
<path d="M570.505 282.185C571.189 282.185 571.743 281.831 571.743 281.394C571.743 280.957 571.189 280.603 570.505 280.603C569.822 280.603 569.268 280.957 569.268 281.394C569.268 281.831 569.822 282.185 570.505 282.185Z" fill="#377DFF"/>
<path d="M598.357 282.185C599.041 282.185 599.595 281.831 599.595 281.394C599.595 280.957 599.041 280.603 598.357 280.603C597.673 280.603 597.119 280.957 597.119 281.394C597.119 281.831 597.673 282.185 598.357 282.185Z" fill="#377DFF"/>
<path d="M626.211 282.185C626.894 282.185 627.448 281.831 627.448 281.394C627.448 280.957 626.894 280.603 626.211 280.603C625.527 280.603 624.973 280.957 624.973 281.394C624.973 281.831 625.527 282.185 626.211 282.185Z" fill="#377DFF"/>
<path d="M486.947 299.986C487.631 299.986 488.185 299.632 488.185 299.195C488.185 298.758 487.631 298.404 486.947 298.404C486.263 298.404 485.709 298.758 485.709 299.195C485.709 299.632 486.263 299.986 486.947 299.986Z" fill="#377DFF"/>
<path d="M514.8 299.986C515.484 299.986 516.038 299.632 516.038 299.195C516.038 298.758 515.484 298.404 514.8 298.404C514.117 298.404 513.562 298.758 513.562 299.195C513.562 299.632 514.117 299.986 514.8 299.986Z" fill="#377DFF"/>
<path d="M542.652 299.986C543.336 299.986 543.89 299.632 543.89 299.195C543.89 298.758 543.336 298.404 542.652 298.404C541.968 298.404 541.414 298.758 541.414 299.195C541.414 299.632 541.968 299.986 542.652 299.986Z" fill="#377DFF"/>
<path d="M570.505 299.986C571.189 299.986 571.743 299.632 571.743 299.195C571.743 298.758 571.189 298.404 570.505 298.404C569.822 298.404 569.268 298.758 569.268 299.195C569.268 299.632 569.822 299.986 570.505 299.986Z" fill="#377DFF"/>
<path d="M598.357 299.986C599.041 299.986 599.595 299.632 599.595 299.195C599.595 298.758 599.041 298.404 598.357 298.404C597.673 298.404 597.119 298.758 597.119 299.195C597.119 299.632 597.673 299.986 598.357 299.986Z" fill="#377DFF"/>
<path d="M626.211 299.986C626.894 299.986 627.448 299.632 627.448 299.195C627.448 298.758 626.894 298.404 626.211 298.404C625.527 298.404 624.973 298.758 624.973 299.195C624.973 299.632 625.527 299.986 626.211 299.986Z" fill="#377DFF"/>
<path d="M486.947 317.788C487.631 317.788 488.185 317.434 488.185 316.997C488.185 316.56 487.631 316.206 486.947 316.206C486.263 316.206 485.709 316.56 485.709 316.997C485.709 317.434 486.263 317.788 486.947 317.788Z" fill="#377DFF"/>
<path d="M514.8 317.788C515.484 317.788 516.038 317.434 516.038 316.997C516.038 316.56 515.484 316.206 514.8 316.206C514.117 316.206 513.562 316.56 513.562 316.997C513.562 317.434 514.117 317.788 514.8 317.788Z" fill="#377DFF"/>
<path d="M542.652 317.788C543.336 317.788 543.89 317.434 543.89 316.997C543.89 316.56 543.336 316.206 542.652 316.206C541.968 316.206 541.414 316.56 541.414 316.997C541.414 317.434 541.968 317.788 542.652 317.788Z" fill="#377DFF"/>
<path d="M570.505 317.788C571.189 317.788 571.743 317.434 571.743 316.997C571.743 316.56 571.189 316.206 570.505 316.206C569.822 316.206 569.268 316.56 569.268 316.997C569.268 317.434 569.822 317.788 570.505 317.788Z" fill="#377DFF"/>
<path d="M598.357 317.788C599.041 317.788 599.595 317.434 599.595 316.997C599.595 316.56 599.041 316.206 598.357 316.206C597.673 316.206 597.119 316.56 597.119 316.997C597.119 317.434 597.673 317.788 598.357 317.788Z" fill="#377DFF"/>
<path d="M626.211 317.788C626.894 317.788 627.448 317.434 627.448 316.997C627.448 316.56 626.894 316.206 626.211 316.206C625.527 316.206 624.973 316.56 624.973 316.997C624.973 317.434 625.527 317.788 626.211 317.788Z" fill="#377DFF"/>
<path d="M486.947 335.589C487.631 335.589 488.185 335.235 488.185 334.798C488.185 334.361 487.631 334.007 486.947 334.007C486.263 334.007 485.709 334.361 485.709 334.798C485.709 335.235 486.263 335.589 486.947 335.589Z" fill="#377DFF"/>
<path d="M514.8 335.589C515.484 335.589 516.038 335.235 516.038 334.798C516.038 334.361 515.484 334.007 514.8 334.007C514.117 334.007 513.562 334.361 513.562 334.798C513.562 335.235 514.117 335.589 514.8 335.589Z" fill="#377DFF"/>
<path d="M542.652 335.589C543.336 335.589 543.89 335.235 543.89 334.798C543.89 334.361 543.336 334.007 542.652 334.007C541.968 334.007 541.414 334.361 541.414 334.798C541.414 335.235 541.968 335.589 542.652 335.589Z" fill="#377DFF"/>
<path d="M570.505 335.589C571.189 335.589 571.743 335.235 571.743 334.798C571.743 334.361 571.189 334.007 570.505 334.007C569.822 334.007 569.268 334.361 569.268 334.798C569.268 335.235 569.822 335.589 570.505 335.589Z" fill="#377DFF"/>
<path d="M598.357 335.589C599.041 335.589 599.595 335.235 599.595 334.798C599.595 334.361 599.041 334.007 598.357 334.007C597.673 334.007 597.119 334.361 597.119 334.798C597.119 335.235 597.673 335.589 598.357 335.589Z" fill="#377DFF"/>
<path d="M626.211 335.589C626.894 335.589 627.448 335.235 627.448 334.798C627.448 334.361 626.894 334.007 626.211 334.007C625.527 334.007 624.973 334.361 624.973 334.798C624.973 335.235 625.527 335.589 626.211 335.589Z" fill="#377DFF"/>
<path d="M486.947 353.39C487.631 353.39 488.185 353.036 488.185 352.599C488.185 352.162 487.631 351.808 486.947 351.808C486.263 351.808 485.709 352.162 485.709 352.599C485.709 353.036 486.263 353.39 486.947 353.39Z" fill="#377DFF"/>
<path d="M514.8 353.39C515.484 353.39 516.038 353.036 516.038 352.599C516.038 352.162 515.484 351.808 514.8 351.808C514.117 351.808 513.562 352.162 513.562 352.599C513.562 353.036 514.117 353.39 514.8 353.39Z" fill="#377DFF"/>
<path d="M542.652 353.39C543.336 353.39 543.89 353.036 543.89 352.599C543.89 352.162 543.336 351.808 542.652 351.808C541.968 351.808 541.414 352.162 541.414 352.599C541.414 353.036 541.968 353.39 542.652 353.39Z" fill="#377DFF"/>
<path d="M570.505 353.39C571.189 353.39 571.743 353.036 571.743 352.599C571.743 352.162 571.189 351.808 570.505 351.808C569.822 351.808 569.268 352.162 569.268 352.599C569.268 353.036 569.822 353.39 570.505 353.39Z" fill="#377DFF"/>
<path d="M598.357 353.39C599.041 353.39 599.595 353.036 599.595 352.599C599.595 352.162 599.041 351.808 598.357 351.808C597.673 351.808 597.119 352.162 597.119 352.599C597.119 353.036 597.673 353.39 598.357 353.39Z" fill="#377DFF"/>
<path d="M626.211 353.39C626.894 353.39 627.448 353.036 627.448 352.599C627.448 352.162 626.894 351.808 626.211 351.808C625.527 351.808 624.973 352.162 624.973 352.599C624.973 353.036 625.527 353.39 626.211 353.39Z" fill="#377DFF"/>
<path d="M486.947 371.192C487.631 371.192 488.185 370.837 488.185 370.401C488.185 369.964 487.631 369.609 486.947 369.609C486.263 369.609 485.709 369.964 485.709 370.401C485.709 370.837 486.263 371.192 486.947 371.192Z" fill="#377DFF"/>
<path d="M514.8 371.192C515.484 371.192 516.038 370.837 516.038 370.401C516.038 369.964 515.484 369.609 514.8 369.609C514.117 369.609 513.562 369.964 513.562 370.401C513.562 370.837 514.117 371.192 514.8 371.192Z" fill="#377DFF"/>
<path d="M542.652 371.192C543.336 371.192 543.89 370.837 543.89 370.401C543.89 369.964 543.336 369.609 542.652 369.609C541.968 369.609 541.414 369.964 541.414 370.401C541.414 370.837 541.968 371.192 542.652 371.192Z" fill="#377DFF"/>
<path d="M570.505 371.192C571.189 371.192 571.743 370.837 571.743 370.401C571.743 369.964 571.189 369.609 570.505 369.609C569.822 369.609 569.268 369.964 569.268 370.401C569.268 370.837 569.822 371.192 570.505 371.192Z" fill="#377DFF"/>
<path d="M598.357 371.192C599.041 371.192 599.595 370.837 599.595 370.401C599.595 369.964 599.041 369.609 598.357 369.609C597.673 369.609 597.119 369.964 597.119 370.401C597.119 370.837 597.673 371.192 598.357 371.192Z" fill="#377DFF"/>
<path d="M626.211 371.192C626.894 371.192 627.448 370.837 627.448 370.401C627.448 369.964 626.894 369.609 626.211 369.609C625.527 369.609 624.973 369.964 624.973 370.401C624.973 370.837 625.527 371.192 626.211 371.192Z" fill="#377DFF"/>
<path d="M486.947 388.993C487.631 388.993 488.185 388.639 488.185 388.202C488.185 387.765 487.631 387.411 486.947 387.411C486.263 387.411 485.709 387.765 485.709 388.202C485.709 388.639 486.263 388.993 486.947 388.993Z" fill="#377DFF"/>
<path d="M514.8 388.993C515.484 388.993 516.038 388.639 516.038 388.202C516.038 387.765 515.484 387.411 514.8 387.411C514.117 387.411 513.562 387.765 513.562 388.202C513.562 388.639 514.117 388.993 514.8 388.993Z" fill="#377DFF"/>
<path d="M542.652 388.993C543.336 388.993 543.89 388.639 543.89 388.202C543.89 387.765 543.336 387.411 542.652 387.411C541.968 387.411 541.414 387.765 541.414 388.202C541.414 388.639 541.968 388.993 542.652 388.993Z" fill="#377DFF"/>
<path d="M570.505 388.993C571.189 388.993 571.743 388.639 571.743 388.202C571.743 387.765 571.189 387.411 570.505 387.411C569.822 387.411 569.268 387.765 569.268 388.202C569.268 388.639 569.822 388.993 570.505 388.993Z" fill="#377DFF"/>
<path d="M598.357 388.993C599.041 388.993 599.595 388.639 599.595 388.202C599.595 387.765 599.041 387.411 598.357 387.411C597.673 387.411 597.119 387.765 597.119 388.202C597.119 388.639 597.673 388.993 598.357 388.993Z" fill="#377DFF"/>
<path d="M626.211 388.993C626.894 388.993 627.448 388.639 627.448 388.202C627.448 387.765 626.894 387.411 626.211 387.411C625.527 387.411 624.973 387.765 624.973 388.202C624.973 388.639 625.527 388.993 626.211 388.993Z" fill="#377DFF"/>
<path d="M486.947 406.794C487.631 406.794 488.185 406.44 488.185 406.003C488.185 405.566 487.631 405.212 486.947 405.212C486.263 405.212 485.709 405.566 485.709 406.003C485.709 406.44 486.263 406.794 486.947 406.794Z" fill="#377DFF"/>
<path d="M514.8 406.794C515.484 406.794 516.038 406.44 516.038 406.003C516.038 405.566 515.484 405.212 514.8 405.212C514.117 405.212 513.562 405.566 513.562 406.003C513.562 406.44 514.117 406.794 514.8 406.794Z" fill="#377DFF"/>
<path d="M542.652 406.794C543.336 406.794 543.89 406.44 543.89 406.003C543.89 405.566 543.336 405.212 542.652 405.212C541.968 405.212 541.414 405.566 541.414 406.003C541.414 406.44 541.968 406.794 542.652 406.794Z" fill="#377DFF"/>
<path d="M570.505 406.794C571.189 406.794 571.743 406.44 571.743 406.003C571.743 405.566 571.189 405.212 570.505 405.212C569.822 405.212 569.268 405.566 569.268 406.003C569.268 406.44 569.822 406.794 570.505 406.794Z" fill="#377DFF"/>
<path d="M598.357 406.794C599.041 406.794 599.595 406.44 599.595 406.003C599.595 405.566 599.041 405.212 598.357 405.212C597.673 405.212 597.119 405.566 597.119 406.003C597.119 406.44 597.673 406.794 598.357 406.794Z" fill="#377DFF"/>
<path d="M626.211 406.794C626.894 406.794 627.448 406.44 627.448 406.003C627.448 405.566 626.894 405.212 626.211 405.212C625.527 405.212 624.973 405.566 624.973 406.003C624.973 406.44 625.527 406.794 626.211 406.794Z" fill="#377DFF"/>
<path d="M486.947 424.596C487.631 424.596 488.185 424.242 488.185 423.805C488.185 423.368 487.631 423.014 486.947 423.014C486.263 423.014 485.709 423.368 485.709 423.805C485.709 424.242 486.263 424.596 486.947 424.596Z" fill="#377DFF"/>
<path d="M514.8 424.596C515.484 424.596 516.038 424.242 516.038 423.805C516.038 423.368 515.484 423.014 514.8 423.014C514.117 423.014 513.562 423.368 513.562 423.805C513.562 424.242 514.117 424.596 514.8 424.596Z" fill="#377DFF"/>
<path d="M542.652 424.596C543.336 424.596 543.89 424.242 543.89 423.805C543.89 423.368 543.336 423.014 542.652 423.014C541.968 423.014 541.414 423.368 541.414 423.805C541.414 424.242 541.968 424.596 542.652 424.596Z" fill="#377DFF"/>
<path d="M570.505 424.596C571.189 424.596 571.743 424.242 571.743 423.805C571.743 423.368 571.189 423.014 570.505 423.014C569.822 423.014 569.268 423.368 569.268 423.805C569.268 424.242 569.822 424.596 570.505 424.596Z" fill="#377DFF"/>
<path d="M598.357 424.596C599.041 424.596 599.595 424.242 599.595 423.805C599.595 423.368 599.041 423.014 598.357 423.014C597.673 423.014 597.119 423.368 597.119 423.805C597.119 424.242 597.673 424.596 598.357 424.596Z" fill="#377DFF"/>
<path d="M626.211 424.596C626.894 424.596 627.448 424.242 627.448 423.805C627.448 423.368 626.894 423.014 626.211 423.014C625.527 423.014 624.973 423.368 624.973 423.805C624.973 424.242 625.527 424.596 626.211 424.596Z" fill="#377DFF"/>
<path d="M654.06 246.582C654.744 246.582 655.298 246.228 655.298 245.791C655.298 245.354 654.744 245 654.06 245C653.377 245 652.822 245.354 652.822 245.791C652.822 246.228 653.377 246.582 654.06 246.582Z" fill="#377DFF"/>
<path d="M681.914 246.582C682.597 246.582 683.152 246.228 683.152 245.791C683.152 245.354 682.597 245 681.914 245C681.23 245 680.676 245.354 680.676 245.791C680.676 246.228 681.23 246.582 681.914 246.582Z" fill="#377DFF"/>
<path d="M654.06 264.384C654.744 264.384 655.298 264.029 655.298 263.592C655.298 263.155 654.744 262.801 654.06 262.801C653.377 262.801 652.822 263.155 652.822 263.592C652.822 264.029 653.377 264.384 654.06 264.384Z" fill="#377DFF"/>
<path d="M681.914 264.384C682.597 264.384 683.152 264.029 683.152 263.592C683.152 263.155 682.597 262.801 681.914 262.801C681.23 262.801 680.676 263.155 680.676 263.592C680.676 264.029 681.23 264.384 681.914 264.384Z" fill="#377DFF"/>
<path d="M654.06 282.185C654.744 282.185 655.298 281.831 655.298 281.394C655.298 280.957 654.744 280.603 654.06 280.603C653.377 280.603 652.822 280.957 652.822 281.394C652.822 281.831 653.377 282.185 654.06 282.185Z" fill="#377DFF"/>
<path d="M681.914 282.185C682.597 282.185 683.152 281.831 683.152 281.394C683.152 280.957 682.597 280.603 681.914 280.603C681.23 280.603 680.676 280.957 680.676 281.394C680.676 281.831 681.23 282.185 681.914 282.185Z" fill="#377DFF"/>
<path d="M654.06 299.986C654.744 299.986 655.298 299.632 655.298 299.195C655.298 298.758 654.744 298.404 654.06 298.404C653.377 298.404 652.822 298.758 652.822 299.195C652.822 299.632 653.377 299.986 654.06 299.986Z" fill="#377DFF"/>
<path d="M681.914 299.986C682.597 299.986 683.152 299.632 683.152 299.195C683.152 298.758 682.597 298.404 681.914 298.404C681.23 298.404 680.676 298.758 680.676 299.195C680.676 299.632 681.23 299.986 681.914 299.986Z" fill="#377DFF"/>
<path d="M654.06 317.788C654.744 317.788 655.298 317.434 655.298 316.997C655.298 316.56 654.744 316.206 654.06 316.206C653.377 316.206 652.822 316.56 652.822 316.997C652.822 317.434 653.377 317.788 654.06 317.788Z" fill="#377DFF"/>
<path d="M681.914 317.788C682.597 317.788 683.152 317.434 683.152 316.997C683.152 316.56 682.597 316.206 681.914 316.206C681.23 316.206 680.676 316.56 680.676 316.997C680.676 317.434 681.23 317.788 681.914 317.788Z" fill="#377DFF"/>
<path d="M654.06 335.589C654.744 335.589 655.298 335.235 655.298 334.798C655.298 334.361 654.744 334.007 654.06 334.007C653.377 334.007 652.822 334.361 652.822 334.798C652.822 335.235 653.377 335.589 654.06 335.589Z" fill="#377DFF"/>
<path d="M681.914 335.589C682.597 335.589 683.152 335.235 683.152 334.798C683.152 334.361 682.597 334.007 681.914 334.007C681.23 334.007 680.676 334.361 680.676 334.798C680.676 335.235 681.23 335.589 681.914 335.589Z" fill="#377DFF"/>
<path d="M654.06 353.39C654.744 353.39 655.298 353.036 655.298 352.599C655.298 352.162 654.744 351.808 654.06 351.808C653.377 351.808 652.822 352.162 652.822 352.599C652.822 353.036 653.377 353.39 654.06 353.39Z" fill="#377DFF"/>
<path d="M681.914 353.39C682.597 353.39 683.152 353.036 683.152 352.599C683.152 352.162 682.597 351.808 681.914 351.808C681.23 351.808 680.676 352.162 680.676 352.599C680.676 353.036 681.23 353.39 681.914 353.39Z" fill="#377DFF"/>
<path d="M654.06 371.192C654.744 371.192 655.298 370.837 655.298 370.401C655.298 369.964 654.744 369.609 654.06 369.609C653.377 369.609 652.822 369.964 652.822 370.401C652.822 370.837 653.377 371.192 654.06 371.192Z" fill="#377DFF"/>
<path d="M681.914 371.192C682.597 371.192 683.152 370.837 683.152 370.401C683.152 369.964 682.597 369.609 681.914 369.609C681.23 369.609 680.676 369.964 680.676 370.401C680.676 370.837 681.23 371.192 681.914 371.192Z" fill="#377DFF"/>
<path d="M654.06 388.993C654.744 388.993 655.298 388.639 655.298 388.202C655.298 387.765 654.744 387.411 654.06 387.411C653.377 387.411 652.822 387.765 652.822 388.202C652.822 388.639 653.377 388.993 654.06 388.993Z" fill="#377DFF"/>
<path d="M681.914 388.993C682.597 388.993 683.152 388.639 683.152 388.202C683.152 387.765 682.597 387.411 681.914 387.411C681.23 387.411 680.676 387.765 680.676 388.202C680.676 388.639 681.23 388.993 681.914 388.993Z" fill="#377DFF"/>
<path d="M654.06 406.794C654.744 406.794 655.298 406.44 655.298 406.003C655.298 405.566 654.744 405.212 654.06 405.212C653.377 405.212 652.822 405.566 652.822 406.003C652.822 406.44 653.377 406.794 654.06 406.794Z" fill="#377DFF"/>
<path d="M681.914 406.794C682.597 406.794 683.152 406.44 683.152 406.003C683.152 405.566 682.597 405.212 681.914 405.212C681.23 405.212 680.676 405.566 680.676 406.003C680.676 406.44 681.23 406.794 681.914 406.794Z" fill="#377DFF"/>
<path d="M654.06 424.596C654.744 424.596 655.298 424.242 655.298 423.805C655.298 423.368 654.744 423.014 654.06 423.014C653.377 423.014 652.822 423.368 652.822 423.805C652.822 424.242 653.377 424.596 654.06 424.596Z" fill="#377DFF"/>
<path d="M681.914 424.596C682.597 424.596 683.152 424.242 683.152 423.805C683.152 423.368 682.597 423.014 681.914 423.014C681.23 423.014 680.676 423.368 680.676 423.805C680.676 424.242 681.23 424.596 681.914 424.596Z" fill="#377DFF"/>
<path d="M486.947 442.397C487.631 442.397 488.185 442.043 488.185 441.606C488.185 441.169 487.631 440.815 486.947 440.815C486.263 440.815 485.709 441.169 485.709 441.606C485.709 442.043 486.263 442.397 486.947 442.397Z" fill="#377DFF"/>
<path d="M514.8 442.397C515.484 442.397 516.038 442.043 516.038 441.606C516.038 441.169 515.484 440.815 514.8 440.815C514.117 440.815 513.562 441.169 513.562 441.606C513.562 442.043 514.117 442.397 514.8 442.397Z" fill="#377DFF"/>
<path d="M542.652 442.397C543.336 442.397 543.89 442.043 543.89 441.606C543.89 441.169 543.336 440.815 542.652 440.815C541.968 440.815 541.414 441.169 541.414 441.606C541.414 442.043 541.968 442.397 542.652 442.397Z" fill="#377DFF"/>
<path d="M570.505 442.397C571.189 442.397 571.743 442.043 571.743 441.606C571.743 441.169 571.189 440.815 570.505 440.815C569.822 440.815 569.268 441.169 569.268 441.606C569.268 442.043 569.822 442.397 570.505 442.397Z" fill="#377DFF"/>
<path d="M598.357 442.397C599.041 442.397 599.595 442.043 599.595 441.606C599.595 441.169 599.041 440.815 598.357 440.815C597.673 440.815 597.119 441.169 597.119 441.606C597.119 442.043 597.673 442.397 598.357 442.397Z" fill="#377DFF"/>
<path d="M626.211 442.397C626.894 442.397 627.448 442.043 627.448 441.606C627.448 441.169 626.894 440.815 626.211 440.815C625.527 440.815 624.973 441.169 624.973 441.606C624.973 442.043 625.527 442.397 626.211 442.397Z" fill="#377DFF"/>
<path d="M486.947 460.199C487.631 460.199 488.185 459.844 488.185 459.407C488.185 458.97 487.631 458.616 486.947 458.616C486.263 458.616 485.709 458.97 485.709 459.407C485.709 459.844 486.263 460.199 486.947 460.199Z" fill="#377DFF"/>
<path d="M514.8 460.199C515.484 460.199 516.038 459.844 516.038 459.407C516.038 458.97 515.484 458.616 514.8 458.616C514.117 458.616 513.562 458.97 513.562 459.407C513.562 459.844 514.117 460.199 514.8 460.199Z" fill="#377DFF"/>
<path d="M542.652 460.199C543.336 460.199 543.89 459.844 543.89 459.407C543.89 458.97 543.336 458.616 542.652 458.616C541.968 458.616 541.414 458.97 541.414 459.407C541.414 459.844 541.968 460.199 542.652 460.199Z" fill="#377DFF"/>
<path d="M570.505 460.199C571.189 460.199 571.743 459.844 571.743 459.407C571.743 458.97 571.189 458.616 570.505 458.616C569.822 458.616 569.268 458.97 569.268 459.407C569.268 459.844 569.822 460.199 570.505 460.199Z" fill="#377DFF"/>
<path d="M598.357 460.199C599.041 460.199 599.595 459.844 599.595 459.407C599.595 458.97 599.041 458.616 598.357 458.616C597.673 458.616 597.119 458.97 597.119 459.407C597.119 459.844 597.673 460.199 598.357 460.199Z" fill="#377DFF"/>
<path d="M626.211 460.199C626.894 460.199 627.448 459.844 627.448 459.407C627.448 458.97 626.894 458.616 626.211 458.616C625.527 458.616 624.973 458.97 624.973 459.407C624.973 459.844 625.527 460.199 626.211 460.199Z" fill="#377DFF"/>
<path d="M486.947 478C487.631 478 488.185 477.646 488.185 477.209C488.185 476.772 487.631 476.417 486.947 476.417C486.263 476.417 485.709 476.772 485.709 477.209C485.709 477.646 486.263 478 486.947 478Z" fill="#377DFF"/>
<path d="M514.8 478C515.484 478 516.038 477.646 516.038 477.209C516.038 476.772 515.484 476.417 514.8 476.417C514.117 476.417 513.562 476.772 513.562 477.209C513.562 477.646 514.117 478 514.8 478Z" fill="#377DFF"/>
<path d="M542.652 478C543.336 478 543.89 477.646 543.89 477.209C543.89 476.772 543.336 476.417 542.652 476.417C541.968 476.417 541.414 476.772 541.414 477.209C541.414 477.646 541.968 478 542.652 478Z" fill="#377DFF"/>
<path d="M570.505 478C571.189 478 571.743 477.646 571.743 477.209C571.743 476.772 571.189 476.417 570.505 476.417C569.822 476.417 569.268 476.772 569.268 477.209C569.268 477.646 569.822 478 570.505 478Z" fill="#377DFF"/>
<path d="M598.357 478C599.041 478 599.595 477.646 599.595 477.209C599.595 476.772 599.041 476.417 598.357 476.417C597.673 476.417 597.119 476.772 597.119 477.209C597.119 477.646 597.673 478 598.357 478Z" fill="#377DFF"/>
<path d="M626.211 478C626.894 478 627.448 477.646 627.448 477.209C627.448 476.772 626.894 476.417 626.211 476.417C625.527 476.417 624.973 476.772 624.973 477.209C624.973 477.646 625.527 478 626.211 478Z" fill="#377DFF"/>
<path d="M654.06 442.397C654.744 442.397 655.298 442.043 655.298 441.606C655.298 441.169 654.744 440.815 654.06 440.815C653.377 440.815 652.822 441.169 652.822 441.606C652.822 442.043 653.377 442.397 654.06 442.397Z" fill="#377DFF"/>
<path d="M681.914 442.397C682.597 442.397 683.152 442.043 683.152 441.606C683.152 441.169 682.597 440.815 681.914 440.815C681.23 440.815 680.676 441.169 680.676 441.606C680.676 442.043 681.23 442.397 681.914 442.397Z" fill="#377DFF"/>
<path d="M654.06 460.199C654.744 460.199 655.298 459.844 655.298 459.407C655.298 458.97 654.744 458.616 654.06 458.616C653.377 458.616 652.822 458.97 652.822 459.407C652.822 459.844 653.377 460.199 654.06 460.199Z" fill="#377DFF"/>
<path d="M681.914 460.199C682.597 460.199 683.152 459.844 683.152 459.407C683.152 458.97 682.597 458.616 681.914 458.616C681.23 458.616 680.676 458.97 680.676 459.407C680.676 459.844 681.23 460.199 681.914 460.199Z" fill="#377DFF"/>
<path d="M654.06 478C654.744 478 655.298 477.646 655.298 477.209C655.298 476.772 654.744 476.417 654.06 476.417C653.377 476.417 652.822 476.772 652.822 477.209C652.822 477.646 653.377 478 654.06 478Z" fill="#377DFF"/>
<path d="M681.914 478C682.597 478 683.152 477.646 683.152 477.209C683.152 476.772 682.597 476.417 681.914 476.417C681.23 476.417 680.676 476.772 680.676 477.209C680.676 477.646 681.23 478 681.914 478Z" fill="#377DFF"/>
</g>
<path d="M490.644 1C490.644 66.6609 477.876 131.679 453.07 192.342C428.264 253.005 391.905 308.124 346.069 354.553C300.233 400.983 245.819 437.812 185.931 462.94C126.044 488.067 61.8572 501 -2.96435 501L-2.96432 1H490.644Z" fill="#377DFF"/>
<path d="M247.789 0.5C247.789 35.1033 241.303 69.3678 228.701 101.337C216.1 133.306 197.63 162.354 174.345 186.823C151.061 211.291 123.418 230.7 92.995 243.942C62.5723 257.184 29.9654 264 -2.96397 264L-2.96396 0.5H247.789Z" fill="white" fill-opacity="0.1"/>
<path d="M480.772 -2.5C480.772 19.8904 476.265 42.0615 467.509 62.7475C458.752 83.4335 445.918 102.229 429.738 118.062C413.558 133.894 394.349 146.453 373.209 155.021C352.069 163.59 329.411 168 306.529 168C283.647 168 260.989 163.59 239.849 155.021C218.708 146.453 199.5 133.894 183.32 118.062C167.14 102.229 154.305 83.4335 145.549 62.7475C136.792 42.0615 132.285 19.8904 132.285 -2.50001L306.529 -2.5H480.772Z" fill="white" fill-opacity="0.2"/>
<g filter="url(#filter0_d_1013_627)">
<rect x="106.615" y="92" width="493.608" height="330" rx="25" fill="#FDFDFD"/>
<rect x="107.115" y="92.5" width="492.608" height="329" rx="24.5" stroke="#E9E9E9"/>
</g>
<rect x="126.359" y="112" width="454.119" height="290" fill="#E7E9F2"/>
<rect x="126.359" y="112" width="34.5526" height="290" fill="#F8F8F8"/>
<rect x="136.232" y="169" width="14.8082" height="15" fill="#E3E3E3"/>
<rect x="136.232" y="289" width="14.8082" height="15" fill="#E3E3E3"/>
<rect x="136.232" y="259" width="14.8082" height="15" fill="#E3E3E3"/>
<rect x="136.232" y="199" width="14.8082" height="15" fill="#E3E3E3"/>
<rect x="126.359" y="222" width="34.5526" height="30" fill="#E7E9F2"/>
<rect x="136.232" y="230" width="14.8082" height="15" fill="#377DFF"/>
<path d="M127.348 222V252" stroke="#377DFF" stroke-width="2"/>
<rect x="180.656" y="164" width="88.8494" height="120" rx="5" fill="white"/>
<rect x="283.328" y="164" width="276.42" height="120" rx="5" fill="white"/>
<rect x="180.656" y="296" width="276.42" height="90" rx="5" fill="white"/>
<rect x="470.898" y="296" width="88.8494" height="90" rx="5" fill="#FAFAFA"/>
<g filter="url(#filter1_f_1013_627)">
<rect x="338.611" y="210" width="206.328" height="44" fill="#E6F2F9"/>
</g>
<g filter="url(#filter2_d_1013_627)">
<path d="M541.316 207.587C541.316 207.587 528.717 230.889 514.919 231.624C499.962 232.42 500.413 206.047 485.445 206.599C473.503 207.039 472.09 224.146 460.141 224.154C447.876 224.162 445.849 201.013 434.476 205.697C424.087 209.976 432.033 233.659 425.662 233.546C419.291 233.433 422.172 208.481 408.449 208.238C394.727 207.995 390.797 253.494 368.501 250.538C352.501 248.417 338.108 221.996 338.108 221.996L338.59 194L541.488 197.588L541.316 207.587Z" fill="white"/>
</g>
<path d="M357.367 181C357.367 224.74 357.367 243.225 357.367 247" stroke="#F2F2F2" stroke-width="0.5"/>
<path d="M523.221 181C523.221 212.148 523.221 225.312 523.221 228" stroke="#F2F2F2" stroke-width="0.5"/>
<path d="M492.617 181C492.617 200.219 492.617 208.341 492.617 210" stroke="#F2F2F2" stroke-width="0.5"/>
<path d="M461.027 181C461.027 209.497 461.027 221.54 461.027 224" stroke="#F2F2F2" stroke-width="0.5"/>
<path d="M432.396 181C432.396 200.219 432.396 208.341 432.396 210" stroke="#F2F2F2" stroke-width="0.5"/>
<path d="M391.922 181C391.922 212.148 391.922 225.312 391.922 228" stroke="#F2F2F2" stroke-width="0.5"/>
<path d="M338.611 216.501C338.611 216.501 352.115 244.106 368.228 246.001C389.952 248.555 391.921 206.001 404.755 203.001C417.589 200.001 421.044 220.001 424.499 227.001C427.954 234.001 422.525 206.001 433.878 200.001C445.231 194 447.583 220.362 460.532 220.001C473.022 219.652 473.233 200.731 485.706 200.001C501.241 199.091 502.983 229.5 515.323 227.001C530.028 224.022 542.965 200.001 542.965 200.001" stroke="#377DFF"/>
<rect x="348.484" y="266" width="19.7443" height="2" rx="1" fill="#E6E6E6"/>
<rect x="233.967" y="315" width="29.6165" height="2" rx="1" fill="#E6E6E6"/>
<rect x="278.391" y="315" width="29.6165" height="2" rx="1" fill="#C7C7C7"/>
<rect x="325.777" y="315" width="51.3352" height="2" rx="1" fill="#E2E2E2"/>
<rect x="325.777" y="349" width="68.1179" height="2" rx="1" fill="#E2E2E2"/>
<rect x="325.777" y="332" width="44.4247" height="2" rx="1" fill="#E2E2E2"/>
<rect x="325.777" y="365" width="31.5909" height="2" rx="1" fill="#E2E2E2"/>
<rect x="278.391" y="349" width="29.6165" height="2" rx="1" fill="#C7C7C7"/>
<rect x="278.391" y="365" width="29.6165" height="2" rx="1" fill="#C7C7C7"/>
<rect x="278.391" y="332" width="29.6165" height="2" rx="1" fill="#C7C7C7"/>
<rect x="233.967" y="332" width="29.6165" height="2" rx="1" fill="#E6E6E6"/>
<rect x="233.967" y="366" width="29.6165" height="2" rx="1" fill="#E6E6E6"/>
<rect x="233.967" y="349" width="29.6165" height="2" rx="1" fill="#E6E6E6"/>
<rect x="451.154" y="266" width="19.7443" height="2" rx="1" fill="#E6E6E6"/>
<rect x="513.348" y="266" width="19.7443" height="2" rx="1" fill="#E6E6E6"/>
<rect x="482.746" y="266" width="19.7443" height="2" rx="1" fill="#E6E6E6"/>
<rect x="422.523" y="266" width="19.7443" height="2" rx="1" fill="#E6E6E6"/>
<rect x="382.049" y="266" width="19.7443" height="2" rx="1" fill="#E6E6E6"/>
<g filter="url(#filter3_d_1013_627)">
<rect x="180.656" y="68" width="158.942" height="200" rx="10" fill="white"/>
</g>
<ellipse cx="199.413" cy="367" rx="4.93608" ry="5" fill="#E5E5E5"/>
<ellipse cx="199.413" cy="333" rx="4.93608" ry="5" fill="#E5E5E5"/>
<ellipse cx="199.413" cy="316" rx="4.93608" ry="5" fill="#E5E5E5"/>
<ellipse cx="199.413" cy="350" rx="4.93608" ry="5" fill="#E5E5E5"/>
<rect x="416.602" y="313" width="24.6804" height="5" rx="2" fill="#FF0000" fill-opacity="0.1"/>
<path d="M421.537 315.5C421.537 314.948 421.985 314.5 422.537 314.5H435.345C435.898 314.5 436.345 314.948 436.345 315.5V315.5C436.345 316.052 435.898 316.5 435.345 316.5H422.537C421.985 316.5 421.537 316.052 421.537 315.5V315.5Z" fill="#FF0000"/>
<rect x="416.604" y="330" width="24.6804" height="5" rx="2" fill="#377DFF" fill-opacity="0.1"/>
<path d="M421.537 332.5C421.537 331.948 421.985 331.5 422.537 331.5H435.345C435.898 331.5 436.345 331.948 436.345 332.5V332.5C436.345 333.052 435.898 333.5 435.345 333.5H422.537C421.985 333.5 421.537 333.052 421.537 332.5V332.5Z" fill="#377DFF"/>
<rect x="416.602" y="347" width="24.6804" height="5" rx="2" fill="#1EDA00" fill-opacity="0.1"/>
<path d="M421.537 349.5C421.537 348.948 421.985 348.5 422.537 348.5H435.345C435.898 348.5 436.345 348.948 436.345 349.5V349.5C436.345 350.052 435.898 350.5 435.345 350.5H422.537C421.985 350.5 421.537 350.052 421.537 349.5V349.5Z" fill="#1EDA00"/>
<rect x="416.602" y="363" width="24.6804" height="5" rx="2" fill="#FF0000" fill-opacity="0.1"/>
<path d="M421.537 365.5C421.537 364.948 421.985 364.5 422.537 364.5H435.345C435.898 364.5 436.345 364.948 436.345 365.5V365.5C436.345 366.052 435.898 366.5 435.345 366.5H422.537C421.985 366.5 421.537 366.052 421.537 365.5V365.5Z" fill="#E289F2"/>
<g filter="url(#filter4_d_1013_627)">
<rect x="482.746" y="236" width="148.082" height="150" rx="10" fill="white"/>
</g>
<rect x="328.738" y="414" width="50.348" height="3" rx="1.5" fill="#C4C4C4"/>
<ellipse cx="485.706" cy="137" rx="9.87216" ry="10" fill="#377DFF" fill-opacity="0.5"/>
<rect x="505.451" y="135" width="49.3608" height="5" rx="2" fill="#37B7FF" fill-opacity="0.25"/>
<g filter="url(#filter5_d_1013_627)">
<path d="M67.6218 422.277C74.8366 420.96 625.051 420.228 644.771 422.277C664.49 424.326 575.032 431 575.032 431H134.475C134.475 431 60.407 423.594 67.6218 422.277Z" fill="url(#paint0_linear_1013_627)"/>
<path d="M67.6218 422.277C74.8366 420.96 625.051 420.228 644.771 422.277C664.49 424.326 575.032 431 575.032 431H134.475C134.475 431 60.407 423.594 67.6218 422.277Z" stroke="#E4E4E4"/>
</g>
<path d="M596.272 311C596.272 319.159 593.809 327.123 589.213 333.824C584.617 340.525 578.107 345.641 570.559 348.487C563.01 351.334 554.782 351.773 546.979 349.747C539.176 347.722 532.172 343.327 526.905 337.154C521.639 330.98 518.362 323.323 517.514 315.209C516.667 307.095 518.289 298.913 522.163 291.759C526.038 284.606 531.98 278.824 539.191 275.189C546.402 271.554 554.539 270.24 562.509 271.423L556.784 311H596.272Z" fill="#627DAE"/>
<path d="M596.272 311C596.272 320.633 592.841 329.942 586.608 337.217C580.375 344.492 571.759 349.245 562.345 350.601C552.93 351.958 543.348 349.827 535.36 344.601C527.371 339.375 521.513 331.405 518.861 322.154L556.784 311H596.272Z" fill="#C7DBFF"/>
<path d="M596.272 311C596.272 317.298 594.804 323.508 591.987 329.123C589.17 334.738 585.083 339.599 580.061 343.312C575.038 347.025 569.22 349.483 563.082 350.488C556.944 351.493 550.658 351.015 544.737 349.093L556.784 311H596.272Z" fill="#A1BDF0"/>
<path d="M598.248 313C598.248 302.129 594.363 291.626 587.311 283.431C580.26 275.237 570.518 269.905 559.886 268.421L553.823 313H598.248Z" fill="#377DFF"/>
<ellipse cx="556.784" cy="311" rx="24.6804" ry="25" fill="white"/>
<path d="M203.99 104.091V93.1818H204.689V104.091H203.99ZM206.006 96.6719C205.966 96.2997 205.799 96.0099 205.503 95.8026C205.211 95.5952 204.83 95.4915 204.361 95.4915C204.032 95.4915 203.749 95.5412 203.513 95.6406C203.277 95.7401 203.097 95.875 202.972 96.0455C202.847 96.2159 202.783 96.4105 202.78 96.6293C202.78 96.8111 202.821 96.9687 202.904 97.1023C202.989 97.2358 203.104 97.3494 203.249 97.4432C203.394 97.5341 203.554 97.6108 203.73 97.6733C203.907 97.7358 204.084 97.7884 204.263 97.831L205.081 98.0355C205.411 98.1122 205.728 98.2159 206.032 98.3466C206.338 98.4773 206.613 98.642 206.854 98.8409C207.098 99.0398 207.292 99.2798 207.434 99.5611C207.576 99.8423 207.647 100.172 207.647 100.55C207.647 101.061 207.516 101.511 207.255 101.901C206.993 102.287 206.615 102.589 206.121 102.808C205.63 103.024 205.034 103.132 204.336 103.132C203.657 103.132 203.067 103.027 202.567 102.817C202.07 102.607 201.681 102.3 201.4 101.896C201.121 101.493 200.971 101.001 200.948 100.422H202.503C202.526 100.726 202.62 100.979 202.784 101.18C202.949 101.382 203.164 101.533 203.428 101.632C203.695 101.732 203.993 101.781 204.323 101.781C204.667 101.781 204.968 101.73 205.226 101.628C205.488 101.523 205.692 101.378 205.84 101.193C205.988 101.006 206.063 100.787 206.066 100.537C206.063 100.31 205.996 100.122 205.865 99.9744C205.735 99.8239 205.551 99.6989 205.316 99.5994C205.083 99.4972 204.81 99.4062 204.498 99.3267L203.505 99.071C202.786 98.8864 202.218 98.6065 201.8 98.2315C201.385 97.8537 201.178 97.3523 201.178 96.7273C201.178 96.2131 201.317 95.7628 201.596 95.3764C201.877 94.9901 202.259 94.6903 202.742 94.4773C203.225 94.2614 203.772 94.1534 204.382 94.1534C205.002 94.1534 205.544 94.2614 206.01 94.4773C206.479 94.6903 206.847 94.9872 207.114 95.3679C207.381 95.7457 207.519 96.1804 207.527 96.6719H206.006Z" fill="#132144"/>
<path d="M214.073 108L220.259 95.7557V95.6562H213.079V93.4545H222.987V95.706L216.808 108H214.073ZM231.395 93.4545V108H228.76V96.0185H228.675L225.273 98.1918V95.777L228.888 93.4545H231.395ZM240.338 93.2557C241.034 93.2604 241.711 93.3835 242.369 93.625C243.032 93.8617 243.629 94.25 244.159 94.7898C244.689 95.3248 245.111 96.0421 245.423 96.9418C245.736 97.8414 245.892 98.9541 245.892 100.28C245.897 101.53 245.764 102.647 245.494 103.632C245.229 104.612 244.848 105.441 244.351 106.118C243.854 106.795 243.255 107.311 242.554 107.666C241.853 108.021 241.065 108.199 240.189 108.199C239.27 108.199 238.456 108.019 237.746 107.659C237.04 107.299 236.47 106.807 236.034 106.182C235.598 105.557 235.331 104.842 235.231 104.037H237.824C237.956 104.615 238.226 105.074 238.633 105.415C239.045 105.751 239.564 105.919 240.189 105.919C241.197 105.919 241.974 105.481 242.518 104.605C243.063 103.729 243.335 102.512 243.335 100.955H243.236C243.004 101.371 242.703 101.731 242.334 102.034C241.964 102.332 241.545 102.562 241.077 102.723C240.613 102.884 240.12 102.964 239.599 102.964C238.747 102.964 237.98 102.761 237.298 102.354C236.621 101.946 236.084 101.388 235.686 100.678C235.293 99.9673 235.094 99.1553 235.089 98.2415C235.089 97.2945 235.307 96.4446 235.743 95.6918C236.183 94.9342 236.796 94.3376 237.582 93.902C238.368 93.4616 239.287 93.2462 240.338 93.2557ZM240.345 95.3864C239.834 95.3864 239.372 95.5118 238.96 95.7628C238.553 96.009 238.231 96.3452 237.994 96.7713C237.762 97.1927 237.646 97.6638 237.646 98.1847C237.651 98.7008 237.767 99.1695 237.994 99.5909C238.226 100.012 238.541 100.346 238.939 100.592C239.341 100.839 239.801 100.962 240.317 100.962C240.7 100.962 241.058 100.888 241.389 100.741C241.721 100.595 242.009 100.391 242.256 100.131C242.507 99.8655 242.701 99.5649 242.838 99.2287C242.98 98.8925 243.049 98.5374 243.044 98.1634C243.044 97.6662 242.926 97.2069 242.689 96.7855C242.457 96.3641 242.137 96.0256 241.73 95.7699C241.328 95.5142 240.866 95.3864 240.345 95.3864ZM253.784 108.199C253.088 108.194 252.408 108.073 251.745 107.837C251.083 107.595 250.486 107.205 249.956 106.665C249.425 106.12 249.004 105.398 248.691 104.499C248.379 103.594 248.225 102.474 248.23 101.139C248.23 99.8939 248.362 98.7836 248.628 97.8082C248.893 96.8329 249.274 96.009 249.771 95.3366C250.268 94.6596 250.867 94.1435 251.568 93.7884C252.273 93.4332 253.062 93.2557 253.933 93.2557C254.847 93.2557 255.656 93.4356 256.362 93.7955C257.072 94.1553 257.645 94.6477 258.081 95.2727C258.516 95.893 258.786 96.5938 258.89 97.375H256.298C256.165 96.8163 255.893 96.3712 255.481 96.0398C255.074 95.7036 254.558 95.5355 253.933 95.5355C252.924 95.5355 252.148 95.9735 251.603 96.8494C251.064 97.7254 250.791 98.928 250.787 100.457H250.886C251.118 100.041 251.419 99.6832 251.788 99.3849C252.157 99.0866 252.574 98.857 253.038 98.696C253.507 98.5303 254.002 98.4474 254.522 98.4474C255.375 98.4474 256.139 98.651 256.816 99.0582C257.498 99.4654 258.038 100.027 258.436 100.741C258.833 101.452 259.03 102.266 259.025 103.185C259.03 104.141 258.812 105 258.372 105.763C257.931 106.52 257.318 107.117 256.532 107.553C255.746 107.988 254.83 108.204 253.784 108.199ZM253.77 106.068C254.286 106.068 254.747 105.943 255.155 105.692C255.562 105.441 255.884 105.102 256.12 104.676C256.357 104.25 256.473 103.772 256.468 103.241C256.473 102.721 256.36 102.25 256.128 101.828C255.9 101.407 255.585 101.073 255.183 100.827C254.78 100.58 254.321 100.457 253.805 100.457C253.422 100.457 253.064 100.531 252.733 100.678C252.401 100.824 252.112 101.028 251.866 101.288C251.62 101.544 251.426 101.842 251.284 102.183C251.146 102.519 251.075 102.879 251.071 103.263C251.075 103.769 251.194 104.236 251.426 104.662C251.658 105.088 251.977 105.429 252.385 105.685C252.792 105.94 253.253 106.068 253.77 106.068ZM267.002 108.277C265.833 108.277 264.829 107.981 263.991 107.389C263.158 106.793 262.516 105.933 262.066 104.811C261.621 103.684 261.399 102.328 261.399 100.741C261.403 99.1553 261.628 97.8059 262.073 96.6932C262.523 95.5758 263.165 94.7235 263.998 94.1364C264.836 93.5492 265.837 93.2557 267.002 93.2557C268.167 93.2557 269.168 93.5492 270.006 94.1364C270.845 94.7235 271.486 95.5758 271.931 96.6932C272.381 97.8106 272.606 99.16 272.606 100.741C272.606 102.332 272.381 103.691 271.931 104.818C271.486 105.94 270.845 106.797 270.006 107.389C269.173 107.981 268.172 108.277 267.002 108.277ZM267.002 106.054C267.911 106.054 268.629 105.607 269.154 104.712C269.685 103.812 269.95 102.489 269.95 100.741C269.95 99.5862 269.829 98.6155 269.587 97.8295C269.346 97.0436 269.005 96.4517 268.565 96.054C268.124 95.6515 267.604 95.4503 267.002 95.4503C266.098 95.4503 265.383 95.9001 264.857 96.7997C264.332 97.6946 264.067 99.0085 264.062 100.741C264.057 101.902 264.173 102.877 264.41 103.668C264.651 104.458 264.992 105.055 265.433 105.457C265.873 105.855 266.396 106.054 267.002 106.054Z" fill="#132144"/>
<rect x="201.389" y="119" width="39.4886" height="4" rx="2" fill="#E6E6E6"/>
<rect x="248.773" y="119" width="39.4886" height="4" rx="2" fill="#E6E6E6"/>
<path d="M207.311 146L211.586 153.5H203.036L207.311 146Z" fill="#377DFF"/>
<path d="M221.091 154.119C220.478 154.119 219.932 154.014 219.455 153.804C218.98 153.594 218.605 153.301 218.33 152.926C218.054 152.551 217.908 152.118 217.891 151.626H219.493C219.507 151.862 219.586 152.068 219.728 152.244C219.87 152.418 220.059 152.553 220.294 152.649C220.53 152.746 220.794 152.794 221.087 152.794C221.4 152.794 221.676 152.74 221.918 152.632C222.159 152.521 222.348 152.368 222.485 152.172C222.621 151.976 222.688 151.75 222.685 151.494C222.688 151.23 222.62 150.997 222.48 150.795C222.341 150.594 222.14 150.436 221.875 150.322C221.614 150.209 221.299 150.152 220.929 150.152H220.158V148.933H220.929C221.233 148.933 221.499 148.881 221.726 148.776C221.956 148.67 222.137 148.523 222.267 148.332C222.398 148.139 222.462 147.916 222.459 147.663C222.462 147.416 222.407 147.202 222.293 147.02C222.182 146.835 222.025 146.692 221.82 146.589C221.618 146.487 221.381 146.436 221.108 146.436C220.841 146.436 220.594 146.484 220.367 146.581C220.14 146.678 219.956 146.815 219.817 146.994C219.678 147.17 219.604 147.381 219.596 147.625H218.074C218.086 147.136 218.226 146.707 218.496 146.338C218.769 145.966 219.132 145.676 219.587 145.469C220.042 145.259 220.551 145.153 221.117 145.153C221.699 145.153 222.205 145.263 222.634 145.482C223.066 145.697 223.4 145.989 223.635 146.355C223.871 146.722 223.989 147.126 223.989 147.57C223.992 148.061 223.847 148.473 223.554 148.805C223.265 149.138 222.884 149.355 222.412 149.457V149.526C223.026 149.611 223.496 149.838 223.823 150.207C224.152 150.574 224.316 151.03 224.313 151.575C224.313 152.064 224.174 152.501 223.895 152.888C223.62 153.271 223.239 153.572 222.753 153.791C222.27 154.01 221.716 154.119 221.091 154.119ZM229.092 154.119C228.674 154.116 228.266 154.044 227.869 153.902C227.471 153.757 227.113 153.523 226.795 153.199C226.477 152.872 226.224 152.439 226.036 151.899C225.849 151.357 225.756 150.685 225.759 149.884C225.759 149.136 225.839 148.47 225.998 147.885C226.157 147.3 226.386 146.805 226.684 146.402C226.982 145.996 227.342 145.686 227.762 145.473C228.185 145.26 228.658 145.153 229.181 145.153C229.729 145.153 230.215 145.261 230.638 145.477C231.065 145.693 231.408 145.989 231.67 146.364C231.931 146.736 232.093 147.156 232.156 147.625H230.6C230.521 147.29 230.357 147.023 230.11 146.824C229.866 146.622 229.556 146.521 229.181 146.521C228.576 146.521 228.11 146.784 227.783 147.31C227.459 147.835 227.296 148.557 227.293 149.474H227.353C227.492 149.224 227.673 149.01 227.894 148.831C228.116 148.652 228.366 148.514 228.644 148.418C228.925 148.318 229.222 148.268 229.535 148.268C230.046 148.268 230.505 148.391 230.911 148.635C231.32 148.879 231.644 149.216 231.883 149.645C232.121 150.071 232.239 150.56 232.236 151.111C232.239 151.685 232.109 152.2 231.844 152.658C231.58 153.112 231.212 153.47 230.741 153.732C230.269 153.993 229.719 154.122 229.092 154.119ZM229.083 152.841C229.393 152.841 229.67 152.766 229.914 152.615C230.158 152.464 230.352 152.261 230.494 152.006C230.636 151.75 230.705 151.463 230.702 151.145C230.705 150.832 230.637 150.55 230.498 150.297C230.361 150.044 230.173 149.844 229.931 149.696C229.69 149.548 229.414 149.474 229.104 149.474C228.874 149.474 228.66 149.518 228.461 149.607C228.262 149.695 228.089 149.817 227.941 149.973C227.793 150.126 227.677 150.305 227.592 150.51C227.509 150.712 227.467 150.928 227.464 151.158C227.467 151.462 227.538 151.741 227.677 151.997C227.816 152.253 228.008 152.457 228.252 152.611C228.496 152.764 228.773 152.841 229.083 152.841ZM237.023 154.166C236.321 154.166 235.719 153.989 235.216 153.634C234.716 153.276 234.331 152.76 234.061 152.087C233.794 151.411 233.66 150.597 233.66 149.645C233.663 148.693 233.798 147.884 234.065 147.216C234.335 146.545 234.72 146.034 235.22 145.682C235.723 145.33 236.324 145.153 237.023 145.153C237.722 145.153 238.322 145.33 238.825 145.682C239.328 146.034 239.713 146.545 239.98 147.216C240.25 147.886 240.385 148.696 240.385 149.645C240.385 150.599 240.25 151.415 239.98 152.091C239.713 152.764 239.328 153.278 238.825 153.634C238.325 153.989 237.724 154.166 237.023 154.166ZM237.023 152.832C237.568 152.832 237.999 152.564 238.314 152.027C238.632 151.487 238.791 150.693 238.791 149.645C238.791 148.952 238.719 148.369 238.574 147.898C238.429 147.426 238.224 147.071 237.96 146.832C237.696 146.591 237.383 146.47 237.023 146.47C236.48 146.47 236.051 146.74 235.736 147.28C235.42 147.817 235.261 148.605 235.258 149.645C235.256 150.341 235.325 150.926 235.467 151.401C235.612 151.875 235.817 152.233 236.081 152.474C236.345 152.713 236.659 152.832 237.023 152.832ZM245.147 154.166C244.445 154.166 243.843 153.989 243.34 153.634C242.84 153.276 242.455 152.76 242.185 152.087C241.918 151.411 241.784 150.597 241.784 149.645C241.787 148.693 241.922 147.884 242.189 147.216C242.459 146.545 242.844 146.034 243.344 145.682C243.847 145.33 244.448 145.153 245.147 145.153C245.845 145.153 246.446 145.33 246.949 145.682C247.452 146.034 247.837 146.545 248.104 147.216C248.374 147.886 248.509 148.696 248.509 149.645C248.509 150.599 248.374 151.415 248.104 152.091C247.837 152.764 247.452 153.278 246.949 153.634C246.449 153.989 245.848 154.166 245.147 154.166ZM245.147 152.832C245.692 152.832 246.122 152.564 246.438 152.027C246.756 151.487 246.915 150.693 246.915 149.645C246.915 148.952 246.843 148.369 246.698 147.898C246.553 147.426 246.348 147.071 246.084 146.832C245.82 146.591 245.507 146.47 245.147 146.47C244.604 146.47 244.175 146.74 243.86 147.28C243.544 147.817 243.385 148.605 243.382 149.645C243.38 150.341 243.449 150.926 243.591 151.401C243.736 151.875 243.941 152.233 244.205 152.474C244.469 152.713 244.783 152.832 245.147 152.832Z" fill="#377DFF"/>
<g filter="url(#filter6_d_1013_627)">
<rect x="210.273" y="181" width="98.7216" height="25" rx="12.5" fill="#377DFF"/>
</g>
<path d="M234.191 192.555C234.126 192.344 234.036 192.155 233.922 191.988C233.81 191.819 233.674 191.674 233.516 191.555C233.359 191.435 233.18 191.345 232.977 191.285C232.773 191.223 232.552 191.191 232.313 191.191C231.883 191.191 231.5 191.299 231.164 191.516C230.828 191.732 230.564 192.049 230.371 192.469C230.181 192.885 230.086 193.393 230.086 193.992C230.086 194.596 230.181 195.108 230.371 195.527C230.561 195.947 230.826 196.266 231.164 196.484C231.503 196.701 231.896 196.809 232.344 196.809C232.75 196.809 233.102 196.73 233.398 196.574C233.698 196.418 233.928 196.197 234.09 195.91C234.251 195.621 234.332 195.283 234.332 194.895L234.66 194.945H232.488V193.812H235.734V194.773C235.734 195.458 235.589 196.051 235.297 196.551C235.005 197.051 234.604 197.436 234.094 197.707C233.583 197.975 232.997 198.109 232.336 198.109C231.599 198.109 230.952 197.944 230.395 197.613C229.84 197.28 229.406 196.807 229.094 196.195C228.784 195.581 228.629 194.852 228.629 194.008C228.629 193.362 228.72 192.785 228.902 192.277C229.087 191.77 229.345 191.339 229.676 190.984C230.007 190.628 230.395 190.357 230.84 190.172C231.285 189.984 231.77 189.891 232.293 189.891C232.736 189.891 233.148 189.956 233.531 190.086C233.914 190.214 234.254 190.396 234.551 190.633C234.85 190.87 235.096 191.151 235.289 191.477C235.482 191.802 235.608 192.161 235.668 192.555H234.191ZM239.839 198.117C239.238 198.117 238.718 197.992 238.281 197.742C237.846 197.49 237.511 197.133 237.277 196.672C237.043 196.208 236.925 195.663 236.925 195.035C236.925 194.418 237.043 193.876 237.277 193.41C237.514 192.941 237.845 192.577 238.269 192.316C238.694 192.053 239.192 191.922 239.765 191.922C240.135 191.922 240.484 191.982 240.812 192.102C241.143 192.219 241.435 192.401 241.687 192.648C241.942 192.896 242.143 193.211 242.289 193.594C242.435 193.974 242.507 194.427 242.507 194.953V195.387H237.589V194.434H241.152C241.149 194.163 241.091 193.922 240.976 193.711C240.862 193.497 240.701 193.329 240.496 193.207C240.293 193.085 240.056 193.023 239.785 193.023C239.496 193.023 239.242 193.094 239.023 193.234C238.804 193.372 238.634 193.555 238.511 193.781C238.392 194.005 238.33 194.251 238.328 194.52V195.352C238.328 195.701 238.392 196 238.519 196.25C238.647 196.497 238.825 196.687 239.054 196.82C239.284 196.951 239.552 197.016 239.859 197.016C240.065 197.016 240.251 196.987 240.418 196.93C240.584 196.87 240.729 196.783 240.851 196.668C240.974 196.553 241.066 196.411 241.129 196.242L242.449 196.391C242.366 196.74 242.207 197.044 241.972 197.305C241.741 197.562 241.444 197.763 241.082 197.906C240.72 198.047 240.306 198.117 239.839 198.117ZM246.81 192V193.094H243.361V192H246.81ZM244.212 190.562H245.626V196.195C245.626 196.385 245.655 196.531 245.712 196.633C245.772 196.732 245.85 196.799 245.947 196.836C246.043 196.872 246.15 196.891 246.267 196.891C246.355 196.891 246.436 196.884 246.509 196.871C246.585 196.858 246.642 196.846 246.681 196.836L246.919 197.941C246.844 197.967 246.736 197.996 246.595 198.027C246.457 198.059 246.288 198.077 246.087 198.082C245.733 198.092 245.414 198.039 245.13 197.922C244.846 197.802 244.621 197.617 244.454 197.367C244.29 197.117 244.21 196.805 244.212 196.43V190.562ZM255.351 192.199C255.315 191.858 255.161 191.592 254.89 191.402C254.622 191.212 254.273 191.117 253.843 191.117C253.541 191.117 253.282 191.163 253.066 191.254C252.85 191.345 252.684 191.469 252.57 191.625C252.455 191.781 252.397 191.96 252.394 192.16C252.394 192.327 252.432 192.471 252.507 192.594C252.586 192.716 252.691 192.82 252.824 192.906C252.957 192.99 253.104 193.06 253.265 193.117C253.427 193.174 253.589 193.223 253.753 193.262L254.503 193.449C254.806 193.52 255.096 193.615 255.375 193.734C255.656 193.854 255.907 194.005 256.128 194.188C256.352 194.37 256.53 194.59 256.66 194.848C256.79 195.105 256.855 195.408 256.855 195.754C256.855 196.223 256.735 196.635 256.496 196.992C256.256 197.346 255.91 197.624 255.457 197.824C255.006 198.022 254.461 198.121 253.82 198.121C253.197 198.121 252.657 198.025 252.199 197.832C251.743 197.639 251.386 197.358 251.128 196.988C250.873 196.618 250.735 196.168 250.714 195.637H252.14C252.161 195.915 252.247 196.147 252.398 196.332C252.549 196.517 252.746 196.655 252.988 196.746C253.233 196.837 253.506 196.883 253.808 196.883C254.123 196.883 254.399 196.836 254.636 196.742C254.876 196.646 255.063 196.513 255.199 196.344C255.334 196.172 255.403 195.971 255.406 195.742C255.403 195.534 255.342 195.362 255.222 195.227C255.102 195.089 254.934 194.974 254.718 194.883C254.505 194.789 254.255 194.706 253.968 194.633L253.058 194.398C252.399 194.229 251.878 193.973 251.496 193.629C251.115 193.283 250.925 192.823 250.925 192.25C250.925 191.779 251.053 191.366 251.308 191.012C251.566 190.658 251.916 190.383 252.359 190.187C252.802 189.99 253.303 189.891 253.863 189.891C254.431 189.891 254.928 189.99 255.355 190.187C255.785 190.383 256.122 190.655 256.367 191.004C256.612 191.35 256.738 191.749 256.746 192.199H255.351ZM261.191 192V193.094H257.741V192H261.191ZM258.593 190.562H260.007V196.195C260.007 196.385 260.036 196.531 260.093 196.633C260.153 196.732 260.231 196.799 260.327 196.836C260.424 196.872 260.53 196.891 260.648 196.891C260.736 196.891 260.817 196.884 260.89 196.871C260.965 196.858 261.023 196.846 261.062 196.836L261.3 197.941C261.224 197.967 261.116 197.996 260.976 198.027C260.838 198.059 260.668 198.077 260.468 198.082C260.114 198.092 259.795 198.039 259.511 197.922C259.227 197.802 259.002 197.617 258.835 197.367C258.671 197.117 258.59 196.805 258.593 196.43V190.562ZM264.21 198.121C263.83 198.121 263.487 198.053 263.182 197.918C262.88 197.78 262.641 197.577 262.464 197.309C262.289 197.04 262.202 196.71 262.202 196.316C262.202 195.978 262.264 195.698 262.389 195.477C262.514 195.255 262.685 195.078 262.901 194.945C263.117 194.812 263.361 194.712 263.632 194.645C263.905 194.574 264.188 194.523 264.479 194.492C264.831 194.456 265.116 194.423 265.335 194.395C265.554 194.363 265.712 194.316 265.811 194.254C265.913 194.189 265.964 194.089 265.964 193.953V193.93C265.964 193.635 265.876 193.408 265.702 193.246C265.528 193.085 265.276 193.004 264.948 193.004C264.602 193.004 264.327 193.079 264.124 193.23C263.923 193.382 263.788 193.56 263.718 193.766L262.397 193.578C262.501 193.214 262.673 192.909 262.913 192.664C263.153 192.417 263.445 192.232 263.792 192.109C264.138 191.984 264.521 191.922 264.94 191.922C265.229 191.922 265.517 191.956 265.804 192.023C266.09 192.091 266.352 192.203 266.589 192.359C266.826 192.513 267.016 192.723 267.159 192.988C267.305 193.254 267.378 193.586 267.378 193.984V198H266.018V197.176H265.972C265.886 197.342 265.764 197.499 265.608 197.645C265.455 197.788 265.261 197.904 265.026 197.992C264.794 198.078 264.522 198.121 264.21 198.121ZM264.577 197.082C264.861 197.082 265.107 197.026 265.315 196.914C265.524 196.799 265.684 196.648 265.796 196.461C265.91 196.273 265.968 196.069 265.968 195.848V195.141C265.923 195.177 265.848 195.211 265.741 195.242C265.637 195.273 265.52 195.301 265.389 195.324C265.259 195.348 265.13 195.368 265.003 195.387C264.875 195.405 264.764 195.421 264.671 195.434C264.46 195.462 264.271 195.509 264.104 195.574C263.938 195.639 263.806 195.73 263.71 195.848C263.613 195.962 263.565 196.111 263.565 196.293C263.565 196.553 263.66 196.75 263.85 196.883C264.041 197.016 264.283 197.082 264.577 197.082ZM268.91 198V192H270.281V193H270.343C270.453 192.654 270.64 192.387 270.906 192.199C271.174 192.009 271.48 191.914 271.824 191.914C271.902 191.914 271.989 191.918 272.085 191.926C272.184 191.931 272.266 191.94 272.332 191.953V193.254C272.272 193.233 272.177 193.215 272.046 193.199C271.919 193.181 271.795 193.172 271.675 193.172C271.417 193.172 271.186 193.228 270.98 193.34C270.777 193.449 270.617 193.602 270.499 193.797C270.382 193.992 270.324 194.217 270.324 194.473V198H268.91ZM276.699 192V193.094H273.25V192H276.699ZM274.102 190.562H275.516V196.195C275.516 196.385 275.544 196.531 275.602 196.633C275.662 196.732 275.74 196.799 275.836 196.836C275.932 196.872 276.039 196.891 276.156 196.891C276.245 196.891 276.326 196.884 276.399 196.871C276.474 196.858 276.531 196.846 276.57 196.836L276.809 197.941C276.733 197.967 276.625 197.996 276.484 198.027C276.346 198.059 276.177 198.077 275.977 198.082C275.623 198.092 275.304 198.039 275.02 197.922C274.736 197.802 274.511 197.617 274.344 197.367C274.18 197.117 274.099 196.805 274.102 196.43V190.562ZM280.584 198.117C279.982 198.117 279.463 197.992 279.025 197.742C278.59 197.49 278.256 197.133 278.021 196.672C277.787 196.208 277.67 195.663 277.67 195.035C277.67 194.418 277.787 193.876 278.021 193.41C278.258 192.941 278.589 192.577 279.013 192.316C279.438 192.053 279.937 191.922 280.51 191.922C280.879 191.922 281.228 191.982 281.556 192.102C281.887 192.219 282.179 192.401 282.431 192.648C282.687 192.896 282.887 193.211 283.033 193.594C283.179 193.974 283.252 194.427 283.252 194.953V195.387H278.334V194.434H281.896C281.894 194.163 281.835 193.922 281.72 193.711C281.606 193.497 281.446 193.329 281.24 193.207C281.037 193.085 280.8 193.023 280.529 193.023C280.24 193.023 279.986 193.094 279.767 193.234C279.549 193.372 279.378 193.555 279.256 193.781C279.136 194.005 279.075 194.251 279.072 194.52V195.352C279.072 195.701 279.136 196 279.263 196.25C279.391 196.497 279.569 196.687 279.799 196.82C280.028 196.951 280.296 197.016 280.603 197.016C280.809 197.016 280.995 196.987 281.162 196.93C281.329 196.87 281.473 196.783 281.595 196.668C281.718 196.553 281.81 196.411 281.873 196.242L283.193 196.391C283.11 196.74 282.951 197.044 282.717 197.305C282.485 197.562 282.188 197.763 281.826 197.906C281.464 198.047 281.05 198.117 280.584 198.117ZM286.785 198.105C286.313 198.105 285.891 197.984 285.519 197.742C285.147 197.5 284.852 197.148 284.636 196.687C284.42 196.227 284.312 195.667 284.312 195.008C284.312 194.341 284.421 193.779 284.64 193.32C284.861 192.859 285.16 192.512 285.535 192.277C285.91 192.04 286.328 191.922 286.788 191.922C287.14 191.922 287.429 191.982 287.656 192.102C287.882 192.219 288.062 192.361 288.195 192.527C288.328 192.691 288.43 192.846 288.503 192.992H288.562V190H289.98V198H288.589V197.055H288.503C288.43 197.201 288.325 197.355 288.187 197.52C288.049 197.681 287.867 197.819 287.64 197.934C287.413 198.048 287.128 198.105 286.785 198.105ZM287.179 196.945C287.479 196.945 287.734 196.865 287.945 196.703C288.156 196.539 288.316 196.311 288.425 196.02C288.535 195.728 288.589 195.388 288.589 195C288.589 194.612 288.535 194.275 288.425 193.988C288.318 193.702 288.16 193.479 287.949 193.32C287.74 193.161 287.484 193.082 287.179 193.082C286.864 193.082 286.601 193.164 286.39 193.328C286.179 193.492 286.02 193.719 285.913 194.008C285.807 194.297 285.753 194.628 285.753 195C285.753 195.375 285.807 195.71 285.913 196.004C286.023 196.296 286.183 196.526 286.394 196.695C286.607 196.862 286.869 196.945 287.179 196.945Z" fill="white"/>
<rect x="200.402" y="224" width="118.466" height="5" rx="2.5" fill="#EEEEEE"/>
<rect x="200.402" y="224" width="53.3097" height="5" rx="2.5" fill="#377DFF"/>
<rect x="200.402" y="224" width="53.3097" height="5" rx="2.5" fill="#377DFF"/>
<rect x="200.402" y="224" width="53.3097" height="5" rx="2.5" fill="#377DFF"/>
<rect x="200.402" y="239" width="118.466" height="5" rx="2.5" fill="#EEEEEE"/>
<rect x="200.402" y="239" width="79.9645" height="5" rx="2.5" fill="#377DFF"/>
<rect x="200.402" y="239" width="79.9645" height="5" rx="2.5" fill="#377DFF"/>
<rect x="200.402" y="239" width="79.9645" height="5" rx="2.5" fill="#377DFF"/>
</g>
<defs>
<filter id="filter0_d_1013_627" x="94.6152" y="77" width="523.607" height="360" filterUnits="userSpaceOnUse" color-interpolation-filters="sRGB">
<feFlood flood-opacity="0" result="BackgroundImageFix"/>
<feColorMatrix in="SourceAlpha" type="matrix" values="0 0 0 0 0 0 0 0 0 0 0 0 0 0 0 0 0 0 127 0" result="hardAlpha"/>
<feOffset dx="3"/>
<feGaussianBlur stdDeviation="7.5"/>
<feComposite in2="hardAlpha" operator="out"/>
<feColorMatrix type="matrix" values="0 0 0 0 0 0 0 0 0 0 0 0 0 0 0 0 0 0 0.05 0"/>
<feBlend mode="normal" in2="BackgroundImageFix" result="effect1_dropShadow_1013_627"/>
<feBlend mode="normal" in="SourceGraphic" in2="effect1_dropShadow_1013_627" result="shape"/>
</filter>
<filter id="filter1_f_1013_627" x="318.611" y="190" width="246.328" height="84" filterUnits="userSpaceOnUse" color-interpolation-filters="sRGB">
<feFlood flood-opacity="0" result="BackgroundImageFix"/>
<feBlend mode="normal" in="SourceGraphic" in2="BackgroundImageFix" result="shape"/>
<feGaussianBlur stdDeviation="10" result="effect1_foregroundBlur_1013_627"/>
</filter>
<filter id="filter2_d_1013_627" x="334.107" y="194" width="211.381" height="66.6763" filterUnits="userSpaceOnUse" color-interpolation-filters="sRGB">
<feFlood flood-opacity="0" result="BackgroundImageFix"/>
<feColorMatrix in="SourceAlpha" type="matrix" values="0 0 0 0 0 0 0 0 0 0 0 0 0 0 0 0 0 0 127 0" result="hardAlpha"/>
<feOffset dy="6"/>
<feGaussianBlur stdDeviation="2"/>
<feComposite in2="hardAlpha" operator="out"/>
<feColorMatrix type="matrix" values="0 0 0 0 0.215686 0 0 0 0 0.490196 0 0 0 0 1 0 0 0 0.1 0"/>
<feBlend mode="normal" in2="BackgroundImageFix" result="effect1_dropShadow_1013_627"/>
<feBlend mode="normal" in="SourceGraphic" in2="effect1_dropShadow_1013_627" result="shape"/>
</filter>
<filter id="filter3_d_1013_627" x="163.656" y="51" width="208.941" height="250" filterUnits="userSpaceOnUse" color-interpolation-filters="sRGB">
<feFlood flood-opacity="0" result="BackgroundImageFix"/>
<feColorMatrix in="SourceAlpha" type="matrix" values="0 0 0 0 0 0 0 0 0 0 0 0 0 0 0 0 0 0 127 0" result="hardAlpha"/>
<feOffset dx="8" dy="8"/>
<feGaussianBlur stdDeviation="12.5"/>
<feComposite in2="hardAlpha" operator="out"/>
<feColorMatrix type="matrix" values="0 0 0 0 0 0 0 0 0 0 0 0 0 0 0 0 0 0 0.1 0"/>
<feBlend mode="normal" in2="BackgroundImageFix" result="effect1_dropShadow_1013_627"/>
<feBlend mode="normal" in="SourceGraphic" in2="effect1_dropShadow_1013_627" result="shape"/>
</filter>
<filter id="filter4_d_1013_627" x="465.746" y="219" width="198.082" height="200" filterUnits="userSpaceOnUse" color-interpolation-filters="sRGB">
<feFlood flood-opacity="0" result="BackgroundImageFix"/>
<feColorMatrix in="SourceAlpha" type="matrix" values="0 0 0 0 0 0 0 0 0 0 0 0 0 0 0 0 0 0 127 0" result="hardAlpha"/>
<feOffset dx="8" dy="8"/>
<feGaussianBlur stdDeviation="12.5"/>
<feComposite in2="hardAlpha" operator="out"/>
<feColorMatrix type="matrix" values="0 0 0 0 0 0 0 0 0 0 0 0 0 0 0 0 0 0 0.1 0"/>
<feBlend mode="normal" in2="BackgroundImageFix" result="effect1_dropShadow_1013_627"/>
<feBlend mode="normal" in="SourceGraphic" in2="effect1_dropShadow_1013_627" result="shape"/>
</filter>
<filter id="filter5_d_1013_627" x="56.627" y="414.5" width="601.482" height="31" filterUnits="userSpaceOnUse" color-interpolation-filters="sRGB">
<feFlood flood-opacity="0" result="BackgroundImageFix"/>
<feColorMatrix in="SourceAlpha" type="matrix" values="0 0 0 0 0 0 0 0 0 0 0 0 0 0 0 0 0 0 127 0" result="hardAlpha"/>
<feOffset dy="4"/>
<feGaussianBlur stdDeviation="5"/>
<feComposite in2="hardAlpha" operator="out"/>
<feColorMatrix type="matrix" values="0 0 0 0 0 0 0 0 0 0 0 0 0 0 0 0 0 0 0.05 0"/>
<feBlend mode="normal" in2="BackgroundImageFix" result="effect1_dropShadow_1013_627"/>
<feBlend mode="normal" in="SourceGraphic" in2="effect1_dropShadow_1013_627" result="shape"/>
</filter>
<filter id="filter6_d_1013_627" x="202.273" y="176" width="114.721" height="41" filterUnits="userSpaceOnUse" color-interpolation-filters="sRGB">
<feFlood flood-opacity="0" result="BackgroundImageFix"/>
<feColorMatrix in="SourceAlpha" type="matrix" values="0 0 0 0 0 0 0 0 0 0 0 0 0 0 0 0 0 0 127 0" result="hardAlpha"/>
<feMorphology radius="2" operator="erode" in="SourceAlpha" result="effect1_dropShadow_1013_627"/>
<feOffset dy="3"/>
<feGaussianBlur stdDeviation="5"/>
<feComposite in2="hardAlpha" operator="out"/>
<feColorMatrix type="matrix" values="0 0 0 0 0.215686 0 0 0 0 0.490196 0 0 0 0 1 0 0 0 0.5 0"/>
<feBlend mode="normal" in2="BackgroundImageFix" result="effect1_dropShadow_1013_627"/>
<feBlend mode="normal" in="SourceGraphic" in2="effect1_dropShadow_1013_627" result="shape"/>
</filter>
<linearGradient id="paint0_linear_1013_627" x1="357.368" y1="421" x2="357.368" y2="431" gradientUnits="userSpaceOnUse">
<stop offset="0.346875" stop-color="white"/>
<stop offset="1" stop-color="#E2E2E2"/>
</linearGradient>
<clipPath id="clip0_1013_627">
<rect width="197.443" height="233" fill="white" transform="translate(485.709 245)"/>
</clipPath>
</defs>
</svg>
