<svg width="345" height="50" viewBox="0 0 345 50" fill="none" xmlns="http://www.w3.org/2000/svg">
<path d="M72.4375 31.999H84.623V36H66.2119V33.0781L78.165 15.8623H66.2285V11.8281H84.3574V14.6836L72.4375 31.999ZM95.3643 36.332C92.7301 36.332 90.583 35.5241 88.9229 33.9082C87.2738 32.2923 86.4492 30.1396 86.4492 27.4502V26.9854C86.4492 25.1813 86.7979 23.571 87.4951 22.1543C88.1924 20.7266 89.1774 19.6309 90.4502 18.8672C91.734 18.0924 93.195 17.7051 94.833 17.7051C97.29 17.7051 99.2214 18.4798 100.627 20.0293C102.044 21.5788 102.752 23.7757 102.752 26.6201V28.5791H91.3135C91.4684 29.7523 91.9333 30.693 92.708 31.4014C93.4938 32.1097 94.4844 32.4639 95.6797 32.4639C97.528 32.4639 98.9723 31.7943 100.013 30.4551L102.37 33.0947C101.651 34.113 100.677 34.9098 99.4482 35.4854C98.2197 36.0498 96.8584 36.332 95.3643 36.332ZM94.8164 21.5898C93.8646 21.5898 93.0898 21.9108 92.4922 22.5527C91.9056 23.1947 91.5293 24.1133 91.3633 25.3086H98.0371V24.9268C98.015 23.8643 97.7272 23.0452 97.1738 22.4697C96.6204 21.8831 95.8346 21.5898 94.8164 21.5898ZM113.759 36.332C111.125 36.332 108.978 35.5241 107.317 33.9082C105.668 32.2923 104.844 30.1396 104.844 27.4502V26.9854C104.844 25.1813 105.192 23.571 105.89 22.1543C106.587 20.7266 107.572 19.6309 108.845 18.8672C110.129 18.0924 111.59 17.7051 113.228 17.7051C115.685 17.7051 117.616 18.4798 119.021 20.0293C120.438 21.5788 121.146 23.7757 121.146 26.6201V28.5791H109.708C109.863 29.7523 110.328 30.693 111.103 31.4014C111.888 32.1097 112.879 32.4639 114.074 32.4639C115.923 32.4639 117.367 31.7943 118.407 30.4551L120.765 33.0947C120.045 34.113 119.071 34.9098 117.843 35.4854C116.614 36.0498 115.253 36.332 113.759 36.332ZM113.211 21.5898C112.259 21.5898 111.484 21.9108 110.887 22.5527C110.3 23.1947 109.924 24.1133 109.758 25.3086H116.432V24.9268C116.41 23.8643 116.122 23.0452 115.568 22.4697C115.015 21.8831 114.229 21.5898 113.211 21.5898ZM144.023 24.4619C144.023 26.7197 143.658 28.6842 142.928 30.3555C142.197 32.0156 141.185 33.3493 139.89 34.3564L143.907 37.5107L140.736 40.3164L135.59 36.1826C135.003 36.2822 134.395 36.332 133.764 36.332C131.76 36.332 129.973 35.8506 128.401 34.8877C126.83 33.9248 125.612 32.5524 124.749 30.7705C123.886 28.9775 123.449 26.9189 123.438 24.5947V23.3994C123.438 21.0199 123.864 18.9281 124.716 17.124C125.579 15.3089 126.791 13.9199 128.352 12.957C129.923 11.9831 131.716 11.4961 133.73 11.4961C135.745 11.4961 137.532 11.9831 139.093 12.957C140.664 13.9199 141.876 15.3089 142.729 17.124C143.592 18.9281 144.023 21.0143 144.023 23.3828V24.4619ZM138.977 23.3662C138.977 20.8317 138.523 18.9059 137.615 17.5889C136.708 16.2718 135.413 15.6133 133.73 15.6133C132.059 15.6133 130.77 16.2663 129.862 17.5723C128.955 18.8672 128.495 20.7708 128.484 23.2832V24.4619C128.484 26.93 128.938 28.8447 129.846 30.2061C130.753 31.5674 132.059 32.248 133.764 32.248C135.435 32.248 136.719 31.5951 137.615 30.2891C138.512 28.972 138.965 27.0573 138.977 24.5449V23.3662Z" fill="#377DFF"/>
<path d="M72.4375 31.999L72.1904 31.8289L71.8668 32.299H72.4375V31.999ZM84.623 31.999H84.923V31.699H84.623V31.999ZM84.623 36V36.3H84.923V36H84.623ZM66.2119 36H65.9119V36.3H66.2119V36ZM66.2119 33.0781L65.9655 32.907L65.9119 32.9842V33.0781H66.2119ZM78.165 15.8623L78.4115 16.0334L78.7386 15.5623H78.165V15.8623ZM66.2285 15.8623H65.9285V16.1623H66.2285V15.8623ZM66.2285 11.8281V11.5281H65.9285V11.8281H66.2285ZM84.3574 11.8281H84.6574V11.5281H84.3574V11.8281ZM84.3574 14.6836L84.6045 14.8537L84.6574 14.7769V14.6836H84.3574ZM72.4375 32.299H84.623V31.699H72.4375V32.299ZM84.323 31.999V36H84.923V31.999H84.323ZM84.623 35.7H66.2119V36.3H84.623V35.7ZM66.5119 36V33.0781H65.9119V36H66.5119ZM66.4583 33.2492L78.4115 16.0334L77.9186 15.6912L65.9655 32.907L66.4583 33.2492ZM78.165 15.5623H66.2285V16.1623H78.165V15.5623ZM66.5285 15.8623V11.8281H65.9285V15.8623H66.5285ZM66.2285 12.1281H84.3574V11.5281H66.2285V12.1281ZM84.0574 11.8281V14.6836H84.6574V11.8281H84.0574ZM84.1103 14.5135L72.1904 31.8289L72.6846 32.1691L84.6045 14.8537L84.1103 14.5135ZM88.9229 33.9082L88.7129 34.1225L88.7136 34.1232L88.9229 33.9082ZM87.4951 22.1543L87.7643 22.2868L87.7647 22.2859L87.4951 22.1543ZM90.4502 18.8672L90.6045 19.1244L90.6052 19.124L90.4502 18.8672ZM100.627 20.0293L100.405 20.2309L100.406 20.2317L100.627 20.0293ZM102.752 28.5791V28.8791H103.052V28.5791H102.752ZM91.3135 28.5791V28.2791H90.9712L91.0161 28.6184L91.3135 28.5791ZM92.708 31.4014L92.5056 31.6228L92.5071 31.6242L92.708 31.4014ZM100.013 30.4551L100.236 30.2552L99.9966 29.9867L99.7758 30.271L100.013 30.4551ZM102.37 33.0947L102.615 33.2678L102.753 33.0729L102.594 32.8949L102.37 33.0947ZM99.4482 35.4854L99.5735 35.758L99.5755 35.757L99.4482 35.4854ZM92.4922 22.5527L92.2726 22.3483L92.2707 22.3504L92.4922 22.5527ZM91.3633 25.3086L91.0661 25.2673L91.0187 25.6086H91.3633V25.3086ZM98.0371 25.3086V25.6086H98.3371V25.3086H98.0371ZM98.0371 24.9268H98.3372L98.337 24.9205L98.0371 24.9268ZM97.1738 22.4697L96.9556 22.6756L96.9576 22.6777L97.1738 22.4697ZM95.3643 36.032C92.7967 36.032 90.7284 35.247 89.1321 33.6932L88.7136 34.1232C90.4376 35.8012 92.6636 36.632 95.3643 36.632V36.032ZM89.1328 33.6939C87.5508 32.1438 86.7492 30.0734 86.7492 27.4502H86.1492C86.1492 30.2059 86.9967 32.4408 88.7129 34.1225L89.1328 33.6939ZM86.7492 27.4502V26.9854H86.1492V27.4502H86.7492ZM86.7492 26.9854C86.7492 25.2207 87.09 23.6567 87.7643 22.2868L87.226 22.0218C86.5057 23.4852 86.1492 25.1419 86.1492 26.9854H86.7492ZM87.7647 22.2859C88.4384 20.9065 89.385 19.8561 90.6045 19.1244L90.2958 18.6099C88.9698 19.4056 87.9464 20.5466 87.2255 22.0226L87.7647 22.2859ZM90.6052 19.124C91.838 18.3801 93.2444 18.0051 94.833 18.0051V17.4051C93.1456 17.4051 91.6301 17.8048 90.2952 18.6103L90.6052 19.124ZM94.833 18.0051C97.2216 18.0051 99.066 18.7551 100.405 20.2309L100.849 19.8277C99.3767 18.2045 97.3585 17.4051 94.833 17.4051V18.0051ZM100.406 20.2317C101.756 21.7088 102.452 23.8237 102.452 26.6201H103.052C103.052 23.7277 102.331 21.4487 100.848 19.8269L100.406 20.2317ZM102.452 26.6201V28.5791H103.052V26.6201H102.452ZM102.752 28.2791H91.3135V28.8791H102.752V28.2791ZM91.0161 28.6184C91.179 29.8521 91.6721 30.8607 92.5056 31.6228L92.9104 31.18C92.1945 30.5253 91.7578 29.6525 91.6109 28.5398L91.0161 28.6184ZM92.5071 31.6242C93.3553 32.3887 94.4205 32.7639 95.6797 32.7639V32.1639C94.5482 32.1639 93.6323 31.8307 92.9089 31.1785L92.5071 31.6242ZM95.6797 32.7639C97.6111 32.7639 99.1468 32.0587 100.25 30.6391L99.7758 30.271C98.7979 31.5298 97.4449 32.1639 95.6797 32.1639V32.7639ZM99.7889 30.6549L102.146 33.2946L102.594 32.8949L100.236 30.2552L99.7889 30.6549ZM102.125 32.9216C101.438 33.8936 100.507 34.6582 99.321 35.2137L99.5755 35.757C100.847 35.1614 101.863 34.3323 102.615 33.2678L102.125 32.9216ZM99.323 35.2127C98.1377 35.7573 96.8197 36.032 95.3643 36.032V36.632C96.8971 36.632 98.3017 36.3423 99.5735 35.758L99.323 35.2127ZM94.8164 21.2898C93.7892 21.2898 92.9322 21.6399 92.2726 22.3483L92.7118 22.7572C93.2475 22.1817 93.9399 21.8898 94.8164 21.8898V21.2898ZM92.2707 22.3504C91.6301 23.0514 91.2374 24.0345 91.0661 25.2673L91.6604 25.3499C91.8212 24.1921 92.1811 23.3379 92.7136 22.7551L92.2707 22.3504ZM91.3633 25.6086H98.0371V25.0086H91.3633V25.6086ZM98.3371 25.3086V24.9268H97.7371V25.3086H98.3371ZM98.337 24.9205C98.3139 23.8081 98.011 22.9076 97.3901 22.2618L96.9576 22.6777C97.4434 23.1829 97.7161 23.9204 97.7372 24.933L98.337 24.9205ZM97.392 22.2639C96.7679 21.6023 95.8942 21.2898 94.8164 21.2898V21.8898C95.7751 21.8898 96.473 22.164 96.9556 22.6756L97.392 22.2639ZM107.317 33.9082L107.107 34.1225L107.108 34.1232L107.317 33.9082ZM105.89 22.1543L106.159 22.2868L106.159 22.2859L105.89 22.1543ZM108.845 18.8672L108.999 19.1244L109 19.124L108.845 18.8672ZM119.021 20.0293L118.799 20.2309L118.8 20.2317L119.021 20.0293ZM121.146 28.5791V28.8791H121.446V28.5791H121.146ZM109.708 28.5791V28.2791H109.366L109.411 28.6184L109.708 28.5791ZM111.103 31.4014L110.9 31.6228L110.902 31.6242L111.103 31.4014ZM118.407 30.4551L118.631 30.2552L118.391 29.9867L118.17 30.271L118.407 30.4551ZM120.765 33.0947L121.01 33.2678L121.147 33.0729L120.988 32.8949L120.765 33.0947ZM117.843 35.4854L117.968 35.758L117.97 35.757L117.843 35.4854ZM110.887 22.5527L110.667 22.3483L110.665 22.3504L110.887 22.5527ZM109.758 25.3086L109.461 25.2673L109.413 25.6086H109.758V25.3086ZM116.432 25.3086V25.6086H116.732V25.3086H116.432ZM116.432 24.9268H116.732L116.732 24.9205L116.432 24.9268ZM115.568 22.4697L115.35 22.6756L115.352 22.6777L115.568 22.4697ZM113.759 36.032C111.191 36.032 109.123 35.247 107.527 33.6932L107.108 34.1232C108.832 35.8012 111.058 36.632 113.759 36.632V36.032ZM107.527 33.6939C105.945 32.1438 105.144 30.0734 105.144 27.4502H104.544C104.544 30.2059 105.391 32.4408 107.107 34.1225L107.527 33.6939ZM105.144 27.4502V26.9854H104.544V27.4502H105.144ZM105.144 26.9854C105.144 25.2207 105.485 23.6567 106.159 22.2868L105.62 22.0218C104.9 23.4852 104.544 25.1419 104.544 26.9854H105.144ZM106.159 22.2859C106.833 20.9065 107.78 19.8561 108.999 19.1244L108.69 18.6099C107.364 19.4056 106.341 20.5466 105.62 22.0226L106.159 22.2859ZM109 19.124C110.233 18.3801 111.639 18.0051 113.228 18.0051V17.4051C111.54 17.4051 110.025 17.8048 108.69 18.6103L109 19.124ZM113.228 18.0051C115.616 18.0051 117.461 18.7551 118.799 20.2309L119.244 19.8277C117.771 18.2045 115.753 17.4051 113.228 17.4051V18.0051ZM118.8 20.2317C120.151 21.7088 120.846 23.8237 120.846 26.6201H121.446C121.446 23.7277 120.726 21.4487 119.243 19.8269L118.8 20.2317ZM120.846 26.6201V28.5791H121.446V26.6201H120.846ZM121.146 28.2791H109.708V28.8791H121.146V28.2791ZM109.411 28.6184C109.574 29.8521 110.067 30.8607 110.9 31.6228L111.305 31.18C110.589 30.5253 110.152 29.6525 110.005 28.5398L109.411 28.6184ZM110.902 31.6242C111.75 32.3887 112.815 32.7639 114.074 32.7639V32.1639C112.943 32.1639 112.027 31.8307 111.303 31.1785L110.902 31.6242ZM114.074 32.7639C116.006 32.7639 117.541 32.0587 118.644 30.6391L118.17 30.271C117.192 31.5298 115.839 32.1639 114.074 32.1639V32.7639ZM118.183 30.6549L120.541 33.2946L120.988 32.8949L118.631 30.2552L118.183 30.6549ZM120.52 32.9216C119.833 33.8936 118.901 34.6582 117.716 35.2137L117.97 35.757C119.241 35.1614 120.258 34.3323 121.01 33.2678L120.52 32.9216ZM117.718 35.2127C116.532 35.7573 115.214 36.032 113.759 36.032V36.632C115.292 36.632 116.696 36.3423 117.968 35.758L117.718 35.2127ZM113.211 21.2898C112.184 21.2898 111.327 21.6399 110.667 22.3483L111.106 22.7572C111.642 22.1817 112.334 21.8898 113.211 21.8898V21.2898ZM110.665 22.3504C110.025 23.0514 109.632 24.0345 109.461 25.2673L110.055 25.3499C110.216 24.1921 110.576 23.3379 111.108 22.7551L110.665 22.3504ZM109.758 25.6086H116.432V25.0086H109.758V25.6086ZM116.732 25.3086V24.9268H116.132V25.3086H116.732ZM116.732 24.9205C116.708 23.8081 116.406 22.9076 115.785 22.2618L115.352 22.6777C115.838 23.1829 116.111 23.9204 116.132 24.933L116.732 24.9205ZM115.787 22.2639C115.162 21.6023 114.289 21.2898 113.211 21.2898V21.8898C114.17 21.8898 114.868 22.164 115.35 22.6756L115.787 22.2639ZM142.928 30.3555L143.202 30.4763L143.203 30.4756L142.928 30.3555ZM139.89 34.3564L139.705 34.1196L139.402 34.3553L139.704 34.5924L139.89 34.3564ZM143.907 37.5107L144.106 37.7354L144.376 37.497L144.092 37.2748L143.907 37.5107ZM140.736 40.3164L140.548 40.5503L140.746 40.7087L140.935 40.5411L140.736 40.3164ZM135.59 36.1826L135.778 35.9487L135.673 35.8643L135.54 35.8869L135.59 36.1826ZM124.749 30.7705L124.479 30.9007L124.479 30.9013L124.749 30.7705ZM123.438 24.5947H123.137L123.138 24.5962L123.438 24.5947ZM124.716 17.124L124.445 16.9952L124.445 16.9959L124.716 17.124ZM128.352 12.957L128.509 13.2123L128.51 13.212L128.352 12.957ZM139.093 12.957L138.934 13.2115L138.936 13.2128L139.093 12.957ZM142.729 17.124L142.457 17.2515L142.458 17.2535L142.729 17.124ZM129.862 17.5723L130.108 17.7444L130.109 17.7435L129.862 17.5723ZM128.484 23.2832L128.184 23.2819V23.2832H128.484ZM129.846 30.2061L130.095 30.0396L129.846 30.2061ZM137.615 30.2891L137.863 30.4588L137.863 30.4579L137.615 30.2891ZM138.977 24.5449L139.277 24.5462V24.5449H138.977ZM143.723 24.4619C143.723 26.6879 143.363 28.6099 142.653 30.2353L143.203 30.4756C143.953 28.7586 144.323 26.7515 144.323 24.4619H143.723ZM142.653 30.2346C141.941 31.8541 140.957 33.1462 139.705 34.1196L140.074 34.5933C141.412 33.5524 142.454 32.1771 143.202 30.4763L142.653 30.2346ZM139.704 34.5924L143.722 37.7467L144.092 37.2748L140.075 34.1205L139.704 34.5924ZM143.708 37.2861L140.538 40.0917L140.935 40.5411L144.106 37.7354L143.708 37.2861ZM140.924 40.0825L135.778 35.9487L135.402 36.4165L140.548 40.5503L140.924 40.0825ZM135.54 35.8869C134.971 35.9835 134.379 36.032 133.764 36.032V36.632C134.41 36.632 135.036 36.581 135.64 36.4784L135.54 35.8869ZM133.764 36.032C131.811 36.032 130.078 35.5634 128.558 34.6319L128.245 35.1435C129.868 36.1378 131.71 36.632 133.764 36.632V36.032ZM128.558 34.6319C127.039 33.7012 125.859 32.374 125.019 30.6397L124.479 30.9013C125.365 32.7308 126.62 34.1484 128.245 35.1435L128.558 34.6319ZM125.019 30.6404C124.178 28.8938 123.748 26.8804 123.737 24.5933L123.138 24.5962C123.149 26.9575 123.593 29.0613 124.479 30.9007L125.019 30.6404ZM123.737 24.5947V23.3994H123.138V24.5947H123.737ZM123.737 23.3994C123.737 21.0557 124.157 19.0092 124.987 17.2522L124.445 16.9959C123.57 18.847 123.138 20.984 123.138 23.3994H123.737ZM124.987 17.2529C125.828 15.4848 127.002 14.142 128.509 13.2123L128.194 12.7017C126.58 13.6979 125.331 15.1331 124.445 16.9952L124.987 17.2529ZM128.51 13.212C130.03 12.2701 131.767 11.7961 133.73 11.7961V11.1961C131.665 11.1961 129.817 11.696 128.194 12.702L128.51 13.212ZM133.73 11.7961C135.694 11.7961 137.426 12.2701 138.934 13.2115L139.252 12.7025C137.639 11.696 135.795 11.1961 133.73 11.1961V11.7961ZM138.936 13.2128C140.453 14.1424 141.627 15.4846 142.457 17.2515L143 16.9965C142.125 15.1332 140.876 13.6974 139.249 12.7012L138.936 13.2128ZM142.458 17.2535C143.299 19.0103 143.723 21.051 143.723 23.3828H144.323C144.323 20.9777 143.885 18.8458 142.999 16.9945L142.458 17.2535ZM143.723 23.3828V24.4619H144.323V23.3828H143.723ZM139.277 23.3662C139.277 20.8036 138.819 18.8072 137.862 17.4186L137.368 17.7591C138.226 19.0046 138.677 20.8598 138.677 23.3662H139.277ZM137.862 17.4186C136.895 16.0155 135.505 15.3133 133.73 15.3133V15.9133C135.32 15.9133 136.52 16.5282 137.368 17.7591L137.862 17.4186ZM133.73 15.3133C131.967 15.3133 130.583 16.0096 129.616 17.4011L130.109 17.7435C130.957 16.5229 132.152 15.9133 133.73 15.9133V15.3133ZM129.617 17.4001C128.659 18.7667 128.196 20.7415 128.184 23.2819L128.784 23.2845C128.795 20.8002 129.251 18.9677 130.108 17.7444L129.617 17.4001ZM128.184 23.2832V24.4619H128.784V23.2832H128.184ZM128.184 24.4619C128.184 26.961 128.643 28.9427 129.596 30.3725L130.095 30.0396C129.233 28.7467 128.784 26.899 128.784 24.4619H128.184ZM129.596 30.3725C130.562 31.8213 131.964 32.548 133.764 32.548V31.948C132.155 31.948 130.945 31.3134 130.095 30.0396L129.596 30.3725ZM133.764 32.548C135.527 32.548 136.907 31.8515 137.863 30.4588L137.368 30.1193C136.531 31.3386 135.342 31.948 133.764 31.948V32.548ZM137.863 30.4579C138.808 29.0704 139.265 27.0866 139.277 24.5462L138.677 24.5436C138.666 27.028 138.216 28.8736 137.367 30.1203L137.863 30.4579ZM139.277 24.5449V23.3662H138.677V24.5449H139.277Z" fill="#377DFF"/>
<rect x="6.35352" width="44.4972" height="43.75" rx="5" fill="#37B7FF" fill-opacity="0.8"/>
<rect x="3.19141" y="3.125" width="44.4972" height="43.75" rx="5" fill="#377DFF" fill-opacity="0.6"/>
<rect y="6.25" width="44.4972" height="43.75" rx="5" fill="#377DFF" fill-opacity="0.9"/>
<path d="M11.9975 41.5256C11.5487 41.9669 10.9932 42.1875 10.3311 42.1875C9.66892 42.1875 9.1061 41.9596 8.64254 41.5039C8.17905 41.0482 7.94732 40.4948 7.94727 39.8437C7.94732 39.2433 8.17171 38.6972 8.62049 38.2053L32.5025 14.7244C33.0028 14.2831 33.5583 14.0625 34.1688 14.0625C34.8311 14.0625 35.3939 14.2904 35.8574 14.7461C36.3209 15.2018 36.5526 15.7552 36.5526 16.4062C36.5526 17.0826 36.3283 17.6433 35.8794 18.0881L11.9975 41.5256ZM20.2636 18.75H10.3311C9.66892 18.75 9.1061 18.5222 8.64254 18.0664C8.17905 17.6107 7.94732 17.0572 7.94727 16.4062C7.94732 15.7552 8.17905 15.2018 8.64254 14.7461C9.1061 14.2904 9.66892 14.0625 10.3311 14.0625H20.2636C20.9257 14.0625 21.4885 14.2904 21.952 14.7461C22.4155 15.2018 22.6473 15.7552 22.6473 16.4062C22.6473 17.0572 22.4155 17.6107 21.952 18.0664C21.4885 18.5222 20.9257 18.75 20.2636 18.75ZM34.1688 42.1875H24.2365C23.5744 42.1875 23.0115 41.9596 22.5479 41.5039C22.0844 41.0482 21.8526 40.4948 21.8526 39.8437C21.8526 39.1927 22.0844 38.6393 22.5479 38.1836C23.0115 37.7278 23.5744 37.5 24.2365 37.5H34.1688C34.8311 37.5 35.3939 37.7278 35.8574 38.1836C36.3209 38.6393 36.5526 39.1927 36.5526 39.8437C36.5526 40.4948 36.3209 41.0482 35.8574 41.5039C35.3939 41.9596 34.8311 42.1875 34.1688 42.1875Z" fill="white"/>
<rect x="6.35352" width="44.4972" height="43.75" rx="5" fill="#37B7FF" fill-opacity="0.8"/>
<rect x="3.19141" y="3.125" width="44.4972" height="43.75" rx="5" fill="#377DFF" fill-opacity="0.6"/>
<rect y="6.25" width="44.4972" height="43.75" rx="5" fill="#377DFF" fill-opacity="0.9"/>
<path d="M11.9975 41.5256C11.5487 41.9669 10.9932 42.1875 10.3311 42.1875C9.66892 42.1875 9.1061 41.9596 8.64254 41.5039C8.17905 41.0482 7.94732 40.4948 7.94727 39.8437C7.94732 39.2433 8.17171 38.6972 8.62049 38.2053L32.5025 14.7244C33.0028 14.2831 33.5583 14.0625 34.1688 14.0625C34.8311 14.0625 35.3939 14.2904 35.8574 14.7461C36.3209 15.2018 36.5526 15.7552 36.5526 16.4062C36.5526 17.0826 36.3283 17.6433 35.8794 18.0881L11.9975 41.5256ZM20.2636 18.75H10.3311C9.66892 18.75 9.1061 18.5222 8.64254 18.0664C8.17905 17.6107 7.94732 17.0572 7.94727 16.4062C7.94732 15.7552 8.17905 15.2018 8.64254 14.7461C9.1061 14.2904 9.66892 14.0625 10.3311 14.0625H20.2636C20.9257 14.0625 21.4885 14.2904 21.952 14.7461C22.4155 15.2018 22.6473 15.7552 22.6473 16.4062C22.6473 17.0572 22.4155 17.6107 21.952 18.0664C21.4885 18.5222 20.9257 18.75 20.2636 18.75ZM34.1688 42.1875H24.2365C23.5744 42.1875 23.0115 41.9596 22.5479 41.5039C22.0844 41.0482 21.8526 40.4948 21.8526 39.8437C21.8526 39.1927 22.0844 38.6393 22.5479 38.1836C23.0115 37.7278 23.5744 37.5 24.2365 37.5H34.1688C34.8311 37.5 35.3939 37.7278 35.8574 38.1836C36.3209 38.6393 36.5526 39.1927 36.5526 39.8437C36.5526 40.4948 36.3209 41.0482 35.8574 41.5039C35.3939 41.9596 34.8311 42.1875 34.1688 42.1875Z" fill="white"/>
<g clip-path="url(#clip0_181_915)">
<path d="M310.388 17.7328C310.326 19.4734 310.678 21.2061 311.421 22.8183C312.164 24.4306 313.282 25.8863 314.702 27.0911C317.394 29.4534 321.034 30.7731 324.824 30.7602C328.613 30.7474 332.242 29.4032 334.914 27.0228C336.28 25.82 337.356 24.3845 338.078 22.803C338.8 21.2215 339.152 19.5267 339.114 17.8212C339.163 16.1189 338.821 14.4256 338.109 12.8439C337.397 11.2621 336.33 9.825 334.972 8.61964C333.659 7.4018 332.073 6.44042 330.316 5.79717C328.559 5.15392 326.67 4.843 324.769 4.88436C322.867 4.84951 320.977 5.16334 319.218 5.80613C317.46 6.44893 315.87 7.40681 314.549 8.61964C313.188 9.80752 312.118 11.2296 311.402 12.7983C310.686 14.3669 310.341 16.0488 310.388 17.7401V17.7328ZM304.481 17.6654C304.45 15.3347 304.967 13.0238 306 10.8802C307.034 8.73664 308.561 6.80749 310.484 5.21598C312.355 3.53182 314.594 2.20144 317.063 1.30526C319.532 0.409092 322.181 -0.0342449 324.849 0.00206274C327.496 -0.0293091 330.123 0.420139 332.567 1.32268C335.011 2.22522 337.22 3.56171 339.058 5.24968C340.972 6.87673 342.487 8.8351 343.51 11.003C344.533 13.1709 345.041 15.502 345.003 17.8513C345.048 20.2002 344.539 22.5316 343.509 24.6965C342.479 26.8613 340.95 28.812 339.02 30.4237C335.308 33.6427 330.353 35.4929 325.159 35.6001C319.965 35.7073 314.919 34.0636 311.041 31.0013C308.897 29.3501 307.196 27.2963 306.061 24.9893C304.926 22.6824 304.387 20.1804 304.481 17.6654Z" fill="#0075BC"/>
<path d="M214.833 30.1322L209.08 18.4645L203.064 30.1322H214.833ZM217.211 35.0063H200.624L196.309 43.346H190L209.176 6.84772L227.68 43.346H221.276L217.211 35.0063Z" fill="#0098DA"/>
<path d="M226.99 5.53974V35.0066H221.141V5.53974H212.225V0.665649H235.884V5.53974H226.99Z" fill="#007FA1"/>
<path d="M292.784 25.954H294.97C300.34 25.954 303.025 24.1255 303.025 20.4685C303.025 16.9191 300.257 15.1471 294.721 15.1526H292.784V25.954ZM292.784 30.7606V44.7042H286.936V10.3632H293.551C296.024 10.2975 298.496 10.497 300.915 10.9572C302.586 11.3592 304.108 12.1449 305.326 13.2348C306.422 14.1785 307.285 15.3137 307.859 16.5684C308.434 17.8231 308.707 19.1699 308.663 20.5232C308.735 21.9252 308.452 23.3237 307.835 24.6163C307.218 25.909 306.282 27.063 305.096 27.9938C302.719 29.828 299.51 30.7451 295.47 30.7451H292.785L292.784 30.7606Z" fill="#005A95"/>
<path d="M246.436 39.5245L254.586 2.60162L267.893 29.2825L281.677 2.60162L289.002 39.5245H283.019L279.261 18.7873L267.793 41.1079L256.656 18.77L252.476 39.5236L246.436 39.5245Z" fill="#5AA13E"/>
<path d="M251.786 20.5536H236.253V28.7904H251.345V33.6644H236.253V45.1436H251.786V50.0013H230.404V15.6795H251.786V20.5536Z" fill="#007A62"/>
</g>
<defs>
<clipPath id="clip0_181_915">
<rect width="155" height="50" fill="white" transform="translate(190)"/>
</clipPath>
</defs>
</svg>
