<svg width="119" height="35" viewBox="0 0 119 35" fill="none" xmlns="http://www.w3.org/2000/svg">
<path d="M51.5625 25.4697H62.3145V29H46.0693V26.4219L56.6162 11.2314H46.084V7.67188H62.0801V10.1914L51.5625 25.4697ZM71.792 29.293C69.4678 29.293 67.5732 28.5801 66.1084 27.1543C64.6533 25.7285 63.9258 23.8291 63.9258 21.4561V21.0459C63.9258 19.4541 64.2334 18.0332 64.8486 16.7832C65.4639 15.5234 66.333 14.5566 67.4561 13.8828C68.5889 13.1992 69.8779 12.8574 71.3232 12.8574C73.4912 12.8574 75.1953 13.541 76.4355 14.9082C77.6855 16.2754 78.3105 18.2139 78.3105 20.7236V22.4521H68.2178C68.3545 23.4873 68.7646 24.3174 69.4482 24.9424C70.1416 25.5674 71.0156 25.8799 72.0703 25.8799C73.7012 25.8799 74.9756 25.2891 75.8936 24.1074L77.9736 26.4365C77.3389 27.335 76.4795 28.0381 75.3955 28.5459C74.3115 29.0439 73.1104 29.293 71.792 29.293ZM71.3086 16.2852C70.4688 16.2852 69.7852 16.5684 69.2578 17.1348C68.7402 17.7012 68.4082 18.5117 68.2617 19.5664H74.1504V19.2295C74.1309 18.292 73.877 17.5693 73.3887 17.0615C72.9004 16.5439 72.207 16.2852 71.3086 16.2852ZM88.0225 29.293C85.6982 29.293 83.8037 28.5801 82.3389 27.1543C80.8838 25.7285 80.1562 23.8291 80.1562 21.4561V21.0459C80.1562 19.4541 80.4639 18.0332 81.0791 16.7832C81.6943 15.5234 82.5635 14.5566 83.6865 13.8828C84.8193 13.1992 86.1084 12.8574 87.5537 12.8574C89.7217 12.8574 91.4258 13.541 92.666 14.9082C93.916 16.2754 94.541 18.2139 94.541 20.7236V22.4521H84.4482C84.585 23.4873 84.9951 24.3174 85.6787 24.9424C86.3721 25.5674 87.2461 25.8799 88.3008 25.8799C89.9316 25.8799 91.2061 25.2891 92.124 24.1074L94.2041 26.4365C93.5693 27.335 92.71 28.0381 91.626 28.5459C90.542 29.0439 89.3408 29.293 88.0225 29.293ZM87.5391 16.2852C86.6992 16.2852 86.0156 16.5684 85.4883 17.1348C84.9707 17.7012 84.6387 18.5117 84.4922 19.5664H90.3809V19.2295C90.3613 18.292 90.1074 17.5693 89.6191 17.0615C89.1309 16.5439 88.4375 16.2852 87.5391 16.2852ZM114.727 18.8193C114.727 20.8115 114.404 22.5449 113.76 24.0195C113.115 25.4844 112.222 26.6611 111.079 27.5498L114.624 30.333L111.826 32.8086L107.285 29.1611C106.768 29.249 106.23 29.293 105.674 29.293C103.906 29.293 102.329 28.8682 100.942 28.0186C99.5557 27.1689 98.4814 25.958 97.7197 24.3857C96.958 22.8037 96.5723 20.9873 96.5625 18.9365V17.8818C96.5625 15.7822 96.9385 13.9365 97.6904 12.3447C98.4521 10.7432 99.5215 9.51758 100.898 8.66797C102.285 7.80859 103.867 7.37891 105.645 7.37891C107.422 7.37891 108.999 7.80859 110.376 8.66797C111.763 9.51758 112.832 10.7432 113.584 12.3447C114.346 13.9365 114.727 15.7773 114.727 17.8672V18.8193ZM110.273 17.8525C110.273 15.6162 109.873 13.917 109.072 12.7549C108.271 11.5928 107.129 11.0117 105.645 11.0117C104.17 11.0117 103.032 11.5879 102.231 12.7402C101.431 13.8828 101.025 15.5625 101.016 17.7793V18.8193C101.016 20.9971 101.416 22.6865 102.217 23.8877C103.018 25.0889 104.17 25.6895 105.674 25.6895C107.148 25.6895 108.281 25.1133 109.072 23.9609C109.863 22.7988 110.264 21.1094 110.273 18.8926V17.8525Z" fill="white"/>
<path d="M51.5625 25.4697L51.3154 25.2996L50.9918 25.7697H51.5625V25.4697ZM62.3145 25.4697H62.6145V25.1697H62.3145V25.4697ZM62.3145 29V29.3H62.6145V29H62.3145ZM46.0693 29H45.7693V29.3H46.0693V29ZM46.0693 26.4219L45.8229 26.2508L45.7693 26.3279V26.4219H46.0693ZM56.6162 11.2314L56.8626 11.4025L57.1897 10.9314H56.6162V11.2314ZM46.084 11.2314H45.784V11.5314H46.084V11.2314ZM46.084 7.67188V7.37187H45.784V7.67188H46.084ZM62.0801 7.67188H62.3801V7.37187H62.0801V7.67188ZM62.0801 10.1914L62.3272 10.3615L62.3801 10.2847V10.1914H62.0801ZM51.5625 25.7697H62.3145V25.1697H51.5625V25.7697ZM62.0145 25.4697V29H62.6145V25.4697H62.0145ZM62.3145 28.7H46.0693V29.3H62.3145V28.7ZM46.3693 29V26.4219H45.7693V29H46.3693ZM46.3158 26.593L56.8626 11.4025L56.3698 11.0603L45.8229 26.2508L46.3158 26.593ZM56.6162 10.9314H46.084V11.5314H56.6162V10.9314ZM46.384 11.2314V7.67188H45.784V11.2314H46.384ZM46.084 7.97188H62.0801V7.37187H46.084V7.97188ZM61.7801 7.67188V10.1914H62.3801V7.67188H61.7801ZM61.833 10.0213L51.3154 25.2996L51.8096 25.6398L62.3272 10.3615L61.833 10.0213ZM66.1084 27.1543L65.8984 27.3686L65.8992 27.3693L66.1084 27.1543ZM64.8486 16.7832L65.1178 16.9157L65.1182 16.9149L64.8486 16.7832ZM67.4561 13.8828L67.6104 14.1401L67.6111 14.1397L67.4561 13.8828ZM76.4355 14.9082L76.2133 15.1098L76.2141 15.1106L76.4355 14.9082ZM78.3105 22.4521V22.7521H78.6105V22.4521H78.3105ZM68.2178 22.4521V22.1521H67.8755L67.9204 22.4914L68.2178 22.4521ZM69.4482 24.9424L69.2458 25.1638L69.2474 25.1652L69.4482 24.9424ZM75.8936 24.1074L76.1173 23.9076L75.8775 23.6391L75.6566 23.9234L75.8936 24.1074ZM77.9736 26.4365L78.2187 26.6096L78.3564 26.4147L78.1974 26.2367L77.9736 26.4365ZM75.3955 28.5459L75.5208 28.8185L75.5228 28.8176L75.3955 28.5459ZM69.2578 17.1348L69.0382 16.9303L69.0364 16.9324L69.2578 17.1348ZM68.2617 19.5664L67.9646 19.5251L67.9172 19.8664H68.2617V19.5664ZM74.1504 19.5664V19.8664H74.4504V19.5664H74.1504ZM74.1504 19.2295H74.4505L74.4503 19.2232L74.1504 19.2295ZM73.3887 17.0615L73.1704 17.2674L73.1724 17.2695L73.3887 17.0615ZM71.792 28.993C69.5343 28.993 67.7187 28.303 66.3176 26.9393L65.8992 27.3693C67.4278 28.8572 69.4012 29.593 71.792 29.593V28.993ZM66.3184 26.94C64.9304 25.58 64.2258 23.7629 64.2258 21.4561H63.6258C63.6258 23.8953 64.3762 25.877 65.8984 27.3686L66.3184 26.94ZM64.2258 21.4561V21.0459H63.6258V21.4561H64.2258ZM64.2258 21.0459C64.2258 19.4935 64.5256 18.1189 65.1178 16.9157L64.5795 16.6507C63.9412 17.9475 63.6258 19.4147 63.6258 21.0459H64.2258ZM65.1182 16.9149C65.7099 15.7034 66.5406 14.7819 67.6104 14.1401L67.3017 13.6256C66.1254 14.3314 65.2179 15.3435 64.5791 16.6516L65.1182 16.9149ZM67.6111 14.1397C68.6928 13.4869 69.9273 13.1574 71.3232 13.1574V12.5574C69.8285 12.5574 68.4849 12.9116 67.3011 13.626L67.6111 14.1397ZM71.3232 13.1574C73.4227 13.1574 75.04 13.8163 76.2134 15.1098L76.6577 14.7066C75.3506 13.2657 73.5597 12.5574 71.3232 12.5574V13.1574ZM76.2141 15.1106C77.3979 16.4054 78.0105 18.2618 78.0105 20.7236H78.6105C78.6105 18.1659 77.9731 16.1454 76.657 14.7058L76.2141 15.1106ZM78.0105 20.7236V22.4521H78.6105V20.7236H78.0105ZM78.3105 22.1521H68.2178V22.7521H78.3105V22.1521ZM67.9204 22.4914C68.0651 23.5871 68.5035 24.4851 69.2458 25.1638L69.6507 24.721C69.0258 24.1497 68.6439 23.3875 68.5152 22.4129L67.9204 22.4914ZM69.2474 25.1652C70.0031 25.8464 70.9518 26.1799 72.0703 26.1799V25.5799C71.0795 25.5799 70.2801 25.2884 69.6491 24.7196L69.2474 25.1652ZM72.0703 26.1799C73.7842 26.1799 75.15 25.5535 76.1305 24.2915L75.6566 23.9234C74.8011 25.0246 73.6181 25.5799 72.0703 25.5799V26.1799ZM75.6698 24.3073L77.7499 26.6364L78.1974 26.2367L76.1173 23.9076L75.6698 24.3073ZM77.7286 26.2634C77.1265 27.1156 76.3094 27.7865 75.2682 28.2742L75.5228 28.8176C76.6496 28.2897 77.5512 27.5543 78.2187 26.6096L77.7286 26.2634ZM75.2703 28.2733C74.2295 28.7515 73.0717 28.993 71.792 28.993V29.593C73.149 29.593 74.3935 29.3364 75.5208 28.8185L75.2703 28.2733ZM71.3086 15.9852C70.3934 15.9852 69.6275 16.2974 69.0382 16.9303L69.4774 17.3392C69.9428 16.8393 70.5441 16.5852 71.3086 16.5852V15.9852ZM69.0364 16.9324C68.4647 17.5579 68.1163 18.4329 67.9646 19.5251L68.5589 19.6077C68.7001 18.5905 69.0157 17.8444 69.4793 17.3371L69.0364 16.9324ZM68.2617 19.8664H74.1504V19.2664H68.2617V19.8664ZM74.4504 19.5664V19.2295H73.8504V19.5664H74.4504ZM74.4503 19.2232C74.4298 18.2359 74.1608 17.4317 73.6049 16.8536L73.1724 17.2695C73.5931 17.707 73.832 18.3481 73.8505 19.2357L74.4503 19.2232ZM73.6069 16.8557C73.0478 16.2631 72.2666 15.9852 71.3086 15.9852V16.5852C72.1475 16.5852 72.7529 16.8248 73.1705 17.2674L73.6069 16.8557ZM82.3389 27.1543L82.1289 27.3686L82.1296 27.3693L82.3389 27.1543ZM81.0791 16.7832L81.3483 16.9157L81.3487 16.9149L81.0791 16.7832ZM83.6865 13.8828L83.8409 14.1401L83.8415 14.1397L83.6865 13.8828ZM92.666 14.9082L92.4438 15.1098L92.4446 15.1106L92.666 14.9082ZM94.541 22.4521V22.7521H94.841V22.4521H94.541ZM84.4482 22.4521V22.1521H84.106L84.1508 22.4914L84.4482 22.4521ZM85.6787 24.9424L85.4763 25.1638L85.4778 25.1652L85.6787 24.9424ZM92.124 24.1074L92.3478 23.9076L92.108 23.6391L91.8871 23.9234L92.124 24.1074ZM94.2041 26.4365L94.4491 26.6096L94.5868 26.4147L94.4279 26.2367L94.2041 26.4365ZM91.626 28.5459L91.7512 28.8185L91.7532 28.8176L91.626 28.5459ZM85.4883 17.1348L85.2687 16.9303L85.2668 16.9324L85.4883 17.1348ZM84.4922 19.5664L84.195 19.5251L84.1476 19.8664H84.4922V19.5664ZM90.3809 19.5664V19.8664H90.6809V19.5664H90.3809ZM90.3809 19.2295H90.6809L90.6808 19.2232L90.3809 19.2295ZM89.6191 17.0615L89.4009 17.2674L89.4029 17.2695L89.6191 17.0615ZM88.0225 28.993C85.7648 28.993 83.9492 28.303 82.5481 26.9393L82.1296 27.3693C83.6583 28.8572 85.6317 29.593 88.0225 29.593V28.993ZM82.5488 26.94C81.1609 25.58 80.4562 23.7629 80.4562 21.4561H79.8563C79.8563 23.8953 80.6067 25.877 82.1289 27.3686L82.5488 26.94ZM80.4562 21.4561V21.0459H79.8563V21.4561H80.4562ZM80.4562 21.0459C80.4562 19.4935 80.756 18.1189 81.3483 16.9157L80.8099 16.6507C80.1717 17.9475 79.8563 19.4147 79.8563 21.0459H80.4562ZM81.3487 16.9149C81.9403 15.7034 82.7711 14.7819 83.8409 14.1401L83.5322 13.6256C82.3558 14.3314 81.4483 15.3435 80.8095 16.6516L81.3487 16.9149ZM83.8415 14.1397C84.9233 13.4869 86.1578 13.1574 87.5537 13.1574V12.5574C86.059 12.5574 84.7154 12.9116 83.5315 13.626L83.8415 14.1397ZM87.5537 13.1574C89.6532 13.1574 91.2705 13.8163 92.4438 15.1098L92.8882 14.7066C91.5811 13.2657 89.7901 12.5574 87.5537 12.5574V13.1574ZM92.4446 15.1106C93.6284 16.4054 94.241 18.2618 94.241 20.7236H94.841C94.841 18.1659 94.2036 16.1454 92.8874 14.7058L92.4446 15.1106ZM94.241 20.7236V22.4521H94.841V20.7236H94.241ZM94.541 22.1521H84.4482V22.7521H94.541V22.1521ZM84.1508 22.4914C84.2955 23.5871 84.7339 24.4851 85.4763 25.1638L85.8811 24.721C85.2563 24.1497 84.8744 23.3875 84.7457 22.4129L84.1508 22.4914ZM85.4778 25.1652C86.2335 25.8464 87.1822 26.1799 88.3008 26.1799V25.5799C87.3099 25.5799 86.5106 25.2884 85.8796 24.7196L85.4778 25.1652ZM88.3008 26.1799C90.0147 26.1799 91.3805 25.5535 92.3609 24.2915L91.8871 23.9234C91.0316 25.0246 89.8486 25.5799 88.3008 25.5799V26.1799ZM91.9003 24.3073L93.9803 26.6364L94.4279 26.2367L92.3478 23.9076L91.9003 24.3073ZM93.9591 26.2634C93.357 27.1156 92.5398 27.7865 91.4987 28.2742L91.7532 28.8176C92.8801 28.2897 93.7817 27.5543 94.4491 26.6096L93.9591 26.2634ZM91.5007 28.2733C90.46 28.7515 89.3022 28.993 88.0225 28.993V29.593C89.3795 29.593 90.624 29.3364 91.7512 28.8185L91.5007 28.2733ZM87.5391 15.9852C86.6239 15.9852 85.858 16.2974 85.2687 16.9303L85.7078 17.3392C86.1733 16.8393 86.7746 16.5852 87.5391 16.5852V15.9852ZM85.2668 16.9324C84.6952 17.5579 84.3467 18.4329 84.195 19.5251L84.7893 19.6077C84.9306 18.5905 85.2462 17.8444 85.7097 17.3371L85.2668 16.9324ZM84.4922 19.8664H90.3809V19.2664H84.4922V19.8664ZM90.6809 19.5664V19.2295H90.0809V19.5664H90.6809ZM90.6808 19.2232C90.6602 18.2359 90.3912 17.4317 89.8354 16.8536L89.4029 17.2695C89.8236 17.707 90.0624 18.3481 90.0809 19.2357L90.6808 19.2232ZM89.8374 16.8557C89.2783 16.2631 88.497 15.9852 87.5391 15.9852V16.5852C88.378 16.5852 88.9834 16.8248 89.4009 17.2674L89.8374 16.8557ZM113.76 24.0195L114.034 24.1404L114.035 24.1397L113.76 24.0195ZM111.079 27.5498L110.895 27.313L110.592 27.5487L110.894 27.7858L111.079 27.5498ZM114.624 30.333L114.823 30.5577L115.092 30.3192L114.809 30.097L114.624 30.333ZM111.826 32.8086L111.638 33.0425L111.836 33.2009L112.025 33.0333L111.826 32.8086ZM107.285 29.1611L107.473 28.9272L107.368 28.8428L107.235 28.8654L107.285 29.1611ZM97.7197 24.3857L97.4494 24.5159L97.4497 24.5165L97.7197 24.3857ZM96.5625 18.9365H96.2625L96.2625 18.938L96.5625 18.9365ZM97.6904 12.3447L97.4195 12.2159L97.4192 12.2166L97.6904 12.3447ZM100.898 8.66797L101.056 8.92328L101.056 8.92297L100.898 8.66797ZM110.376 8.66797L110.217 8.92248L110.219 8.92378L110.376 8.66797ZM113.584 12.3447L113.312 12.4722L113.313 12.4742L113.584 12.3447ZM109.072 12.7549L108.825 12.9251L109.072 12.7549ZM102.231 12.7402L102.477 12.9124L102.478 12.9114L102.231 12.7402ZM101.016 17.7793L100.716 17.778V17.7793H101.016ZM109.072 23.9609L109.32 24.1307L109.32 24.1297L109.072 23.9609ZM110.273 18.8926L110.573 18.8939V18.8926H110.273ZM114.427 18.8193C114.427 20.7797 114.109 22.4705 113.485 23.8994L114.035 24.1397C114.699 22.6193 115.027 20.8433 115.027 18.8193H114.427ZM113.485 23.8987C112.859 25.3229 111.994 26.458 110.895 27.313L111.263 27.7866C112.449 26.8642 113.372 25.6459 114.034 24.1404L113.485 23.8987ZM110.894 27.7858L114.439 30.569L114.809 30.097L111.264 27.3138L110.894 27.7858ZM114.425 30.1083L111.627 32.5839L112.025 33.0333L114.823 30.5577L114.425 30.1083ZM112.014 32.5747L107.473 28.9272L107.097 29.395L111.638 33.0425L112.014 32.5747ZM107.235 28.8654C106.735 28.9503 106.215 28.993 105.674 28.993V29.593C106.246 29.593 106.8 29.5478 107.335 29.4569L107.235 28.8654ZM105.674 28.993C103.957 28.993 102.435 28.581 101.099 27.7627L100.786 28.2744C102.224 29.1554 103.856 29.593 105.674 29.593V28.993ZM101.099 27.7627C99.765 26.9454 98.7284 25.7796 97.9897 24.2549L97.4497 24.5165C98.2345 26.1364 99.3463 27.3925 100.786 28.2744L101.099 27.7627ZM97.99 24.2556C97.2506 22.7199 96.8721 20.9487 96.8625 18.9351L96.2625 18.938C96.2724 21.0259 96.6654 22.8875 97.4494 24.5159L97.99 24.2556ZM96.8625 18.9365V17.8818H96.2625V18.9365H96.8625ZM96.8625 17.8818C96.8625 15.8181 97.232 14.0176 97.9617 12.4729L97.4192 12.2166C96.645 13.8554 96.2625 15.7463 96.2625 17.8818H96.8625ZM97.9613 12.4736C98.7007 10.919 99.7329 9.73964 101.056 8.92328L100.741 8.41266C99.3101 9.29551 98.2036 10.5673 97.4195 12.2159L97.9613 12.4736ZM101.056 8.92297C102.392 8.09562 103.918 7.67891 105.645 7.67891V7.07891C103.817 7.07891 102.179 7.52156 100.74 8.41297L101.056 8.92297ZM105.645 7.67891C107.371 7.67891 108.892 8.09563 110.217 8.92247L110.535 8.41347C109.106 7.52156 107.473 7.07891 105.645 7.07891V7.67891ZM110.219 8.92378C111.552 9.74006 112.583 10.9189 113.312 12.4722L113.856 12.2172C113.081 10.5675 111.974 9.2951 110.533 8.41216L110.219 8.92378ZM113.313 12.4742C114.052 14.0188 114.427 15.814 114.427 17.8672H115.027C115.027 15.7407 114.639 13.8542 113.855 12.2152L113.313 12.4742ZM114.427 17.8672V18.8193H115.027V17.8672H114.427ZM110.573 17.8525C110.573 15.5881 110.169 13.8183 109.319 12.5847L108.825 12.9251C109.577 14.0157 109.973 15.6443 109.973 17.8525H110.573ZM109.319 12.5847C108.459 11.3364 107.222 10.7117 105.645 10.7117V11.3117C107.036 11.3117 108.084 11.8491 108.825 12.9251L109.319 12.5847ZM105.645 10.7117C104.078 10.7117 102.845 11.3313 101.985 12.569L102.478 12.9114C103.219 11.8445 104.262 11.3117 105.645 11.3117V10.7117ZM101.986 12.5681C101.135 13.7823 100.726 15.5332 100.716 17.778L101.316 17.7806C101.325 15.5918 101.727 13.9833 102.477 12.9124L101.986 12.5681ZM100.716 17.7793V18.8193H101.316V17.7793H100.716ZM100.716 18.8193C100.716 21.0281 101.121 22.7845 101.967 24.0541L102.466 23.7213C101.711 22.5885 101.316 20.966 101.316 18.8193H100.716ZM101.967 24.0541C102.826 25.3428 104.075 25.9895 105.674 25.9895V25.3895C104.265 25.3895 103.209 24.8349 102.466 23.7213L101.967 24.0541ZM105.674 25.9895C107.241 25.9895 108.469 25.3698 109.32 24.1307L108.825 23.7912C108.093 24.8568 107.056 25.3895 105.674 25.3895V25.9895ZM109.32 24.1297C110.159 22.8973 110.564 21.1387 110.573 18.8939L109.973 18.8913C109.964 21.08 109.567 22.7004 108.824 23.7921L109.32 24.1297ZM110.573 18.8926V17.8525H109.973V18.8926H110.573Z" fill="white"/>
<rect x="4.375" width="30.625" height="30.625" rx="5" fill="white" fill-opacity="0.5"/>
<rect x="2.1875" y="2.1875" width="30.625" height="30.625" rx="5" fill="white" fill-opacity="0.7"/>
<rect y="4.375" width="30.625" height="30.625" rx="5" fill="white"/>
<path d="M8.2563 29.0679C7.94743 29.3768 7.56511 29.5312 7.10939 29.5312C6.65367 29.5312 6.26631 29.3717 5.94727 29.0527C5.62827 28.7337 5.46879 28.3463 5.46875 27.8906C5.46879 27.4703 5.62322 27.088 5.93209 26.7437L22.3688 10.3071C22.7131 9.99819 23.0954 9.84375 23.5156 9.84375C23.9714 9.84375 24.3588 10.0033 24.6778 10.3223C24.9968 10.6413 25.1562 11.0286 25.1562 11.4843C25.1562 11.9578 25.0018 12.3503 24.693 12.6617L8.2563 29.0679ZM13.9454 13.125H7.10939C6.65367 13.125 6.26631 12.9655 5.94727 12.6465C5.62827 12.3275 5.46879 11.9401 5.46875 11.4843C5.46879 11.0286 5.62827 10.6413 5.94727 10.3223C6.26631 10.0033 6.65367 9.84375 7.10939 9.84375H13.9454C14.4011 9.84375 14.7884 10.0033 15.1074 10.3223C15.4264 10.6413 15.586 11.0286 15.586 11.4843C15.586 11.9401 15.4264 12.3275 15.1074 12.6465C14.7884 12.9655 14.4011 13.125 13.9454 13.125ZM23.5156 29.5312H16.6797C16.224 29.5312 15.8366 29.3717 15.5176 29.0527C15.1986 28.7337 15.039 28.3463 15.039 27.8906C15.039 27.4349 15.1986 27.0475 15.5176 26.7285C15.8366 26.4095 16.224 26.25 16.6797 26.25H23.5156C23.9714 26.25 24.3588 26.4095 24.6778 26.7285C24.9968 27.0475 25.1562 27.4349 25.1562 27.8906C25.1562 28.3463 24.9968 28.7337 24.6778 29.0527C24.3588 29.3717 23.9714 29.5312 23.5156 29.5312Z" fill="#377DFF"/>
</svg>
