<svg width="554" height="451" viewBox="0 0 554 451" fill="none" xmlns="http://www.w3.org/2000/svg">
<path d="M42.7997 50H50.5923L57.7756 25.2741H58.071L65.2727 50H73.0653L83.8864 12.1818H75.152L68.892 38.5142H68.5597L61.6719 12.1818H54.1932L47.2869 38.4588H46.973L40.7131 12.1818H31.9787L42.7997 50ZM95.8846 33.6023C95.9031 29.946 98.1374 27.804 101.35 27.804C104.545 27.804 106.429 29.8537 106.41 33.3438V50H114.277V31.9403C114.295 25.2926 110.38 21.267 104.471 21.267C100.169 21.267 97.288 23.2983 95.9954 26.6406H95.663V12.1818H88.0181V50H95.8846V33.6023ZM128.555 50.5355C132.747 50.5355 135.462 48.7074 136.847 46.0668H137.068V50H144.528V30.8693C144.528 24.1108 138.804 21.267 132.489 21.267C125.693 21.267 121.224 24.517 120.135 29.6875L127.411 30.2784C127.946 28.3949 129.626 27.0099 132.452 27.0099C135.129 27.0099 136.662 28.358 136.662 30.6847V30.7955C136.662 32.6236 134.723 32.8636 129.793 33.3438C124.179 33.8608 119.138 35.7443 119.138 42.0781C119.138 47.6918 123.145 50.5355 128.555 50.5355ZM130.808 45.1065C128.389 45.1065 126.653 43.9801 126.653 41.8196C126.653 39.6037 128.482 38.5142 131.251 38.1264C132.969 37.8864 135.776 37.4801 136.717 36.8523V39.8622C136.717 42.8352 134.261 45.1065 130.808 45.1065ZM165.718 21.6364H160.381V14.8409H152.515V21.6364H148.637V27.5455H152.515V42.3182C152.478 47.8764 156.263 50.6278 161.969 50.3878C164.001 50.3139 165.441 49.9077 166.235 49.6491L164.998 43.7955C164.61 43.8693 163.779 44.054 163.04 44.054C161.471 44.054 160.381 43.4631 160.381 41.2841V27.5455H165.718V21.6364ZM182.877 50H190.744V21.6364H182.877V50ZM186.829 17.9801C189.174 17.9801 191.095 16.1889 191.095 13.9915C191.095 11.8125 189.174 10.0213 186.829 10.0213C184.502 10.0213 182.582 11.8125 182.582 13.9915C182.582 16.1889 184.502 17.9801 186.829 17.9801ZM220.645 29.7244C219.943 24.4986 215.733 21.267 208.568 21.267C201.311 21.267 196.528 24.6278 196.547 30.0938C196.528 34.3409 199.206 37.0923 204.746 38.2003L209.658 39.179C212.132 39.6776 213.259 40.5824 213.295 42.0043C213.259 43.6847 211.43 44.8849 208.679 44.8849C205.872 44.8849 204.007 43.6847 203.527 41.3764L195.79 41.7827C196.528 47.2116 201.145 50.554 208.661 50.554C216.01 50.554 221.273 46.8054 221.291 41.2102C221.273 37.1108 218.595 34.6548 213.092 33.5284L207.959 32.4943C205.318 31.9219 204.339 31.017 204.358 29.6506C204.339 27.9517 206.26 26.8438 208.697 26.8438C211.43 26.8438 213.055 28.3395 213.443 30.1676L220.645 29.7244ZM238.021 50H266.976V43.4077H248.048L266.939 16.9276V12.1818H237.984V18.7741H256.893L238.021 45.2543V50ZM285.89 50.554C292.907 50.554 297.634 47.1378 298.742 41.875L291.466 41.3949C290.672 43.5554 288.641 44.6818 286.019 44.6818C282.086 44.6818 279.593 42.0781 279.593 37.8494V37.831H298.908V35.6705C298.908 26.0312 293.073 21.267 285.576 21.267C277.229 21.267 271.819 27.1946 271.819 35.9474C271.819 44.9403 277.155 50.554 285.89 50.554ZM279.593 32.956C279.759 29.7244 282.215 27.1392 285.705 27.1392C289.121 27.1392 291.485 29.5767 291.503 32.956H279.593ZM316.968 50.554C323.985 50.554 328.712 47.1378 329.82 41.875L322.544 41.3949C321.75 43.5554 319.719 44.6818 317.097 44.6818C313.164 44.6818 310.671 42.0781 310.671 37.8494V37.831H329.986V35.6705C329.986 26.0312 324.151 21.267 316.654 21.267C308.307 21.267 302.897 27.1946 302.897 35.9474C302.897 44.9403 308.233 50.554 316.968 50.554ZM310.671 32.956C310.837 29.7244 313.293 27.1392 316.783 27.1392C320.199 27.1392 322.563 29.5767 322.581 32.956H310.671ZM370.02 31.0909C370.02 18.7188 362.338 11.6648 352.311 11.6648C342.229 11.6648 334.603 18.7188 334.603 31.0909C334.603 43.4077 342.229 50.517 352.311 50.517C354.675 50.517 356.909 50.1293 358.941 49.3537L361.988 53.1023H369.448L364.037 46.3068C367.73 43.0014 370.02 37.831 370.02 31.0909ZM349.542 36.8523L354.38 43.2415C353.733 43.3707 353.032 43.4446 352.311 43.4446C346.495 43.4446 342.709 39.1051 342.709 31.0909C342.709 23.0767 346.495 18.7372 352.311 18.7372C358.11 18.7372 361.914 23.0767 361.914 31.0909C361.914 35.2088 360.898 38.3665 359.144 40.4531L356.337 36.8523H349.542ZM394.589 38.6619H401.588V38.0341C401.625 34.4332 402.917 32.7528 405.835 30.9986C409.288 28.9489 411.541 26.2344 411.541 21.8949C411.541 15.4318 406.333 11.6648 399.002 11.6648C392.299 11.6648 386.833 15.1733 386.667 22.5597H394.201C394.312 19.5497 396.547 17.9432 398.966 17.9432C401.458 17.9432 403.471 19.6051 403.471 22.1719C403.471 24.5909 401.717 26.1974 399.446 27.6378C396.343 29.5952 394.608 31.571 394.589 38.0341V38.6619ZM398.227 50.4801C400.591 50.4801 402.64 48.5043 402.659 46.0483C402.64 43.6293 400.591 41.6534 398.227 41.6534C395.789 41.6534 393.777 43.6293 393.795 46.0483C393.777 48.5043 395.789 50.4801 398.227 50.4801Z" fill="#132144"/>
<path d="M38.751 88.6201H46.0723V90H36.7559V88.7344L43.7695 78.5918H36.8701V77.2031H45.791V78.4424L38.751 88.6201ZM52.1188 90.1758C50.8297 90.1758 49.7809 89.7539 48.9723 88.9102C48.1637 88.0605 47.7594 86.9268 47.7594 85.5088V85.21C47.7594 84.2666 47.9381 83.4258 48.2955 82.6875C48.6588 81.9434 49.1627 81.3633 49.8073 80.9473C50.4577 80.5254 51.1608 80.3145 51.9166 80.3145C53.153 80.3145 54.1139 80.7217 54.7995 81.5361C55.485 82.3506 55.8278 83.5166 55.8278 85.0342V85.7109H49.3854C49.4088 86.6484 49.6813 87.4072 50.2028 87.9873C50.7301 88.5615 51.3981 88.8486 52.2067 88.8486C52.7809 88.8486 53.2672 88.7314 53.6657 88.4971C54.0641 88.2627 54.4127 87.9521 54.7116 87.5654L55.7047 88.3389C54.9079 89.5635 53.7125 90.1758 52.1188 90.1758ZM51.9166 81.6504C51.2604 81.6504 50.7096 81.8906 50.2643 82.3711C49.819 82.8457 49.5436 83.5137 49.4381 84.375H54.2018V84.252C54.1549 83.4258 53.9323 82.7871 53.5338 82.3359C53.1354 81.8789 52.5963 81.6504 51.9166 81.6504ZM62.0237 90.1758C60.7346 90.1758 59.6858 89.7539 58.8772 88.9102C58.0686 88.0605 57.6643 86.9268 57.6643 85.5088V85.21C57.6643 84.2666 57.843 83.4258 58.2005 82.6875C58.5637 81.9434 59.0677 81.3633 59.7122 80.9473C60.3626 80.5254 61.0657 80.3145 61.8216 80.3145C63.0579 80.3145 64.0188 80.7217 64.7044 81.5361C65.3899 82.3506 65.7327 83.5166 65.7327 85.0342V85.7109H59.2903C59.3137 86.6484 59.5862 87.4072 60.1077 87.9873C60.635 88.5615 61.303 88.8486 62.1116 88.8486C62.6858 88.8486 63.1721 88.7314 63.5706 88.4971C63.969 88.2627 64.3177 87.9521 64.6165 87.5654L65.6096 88.3389C64.8128 89.5635 63.6175 90.1758 62.0237 90.1758ZM61.8216 81.6504C61.1653 81.6504 60.6145 81.8906 60.1692 82.3711C59.7239 82.8457 59.4485 83.5137 59.343 84.375H64.1067V84.252C64.0598 83.4258 63.8372 82.7871 63.4387 82.3359C63.0403 81.8789 62.5012 81.6504 61.8216 81.6504ZM78.0107 84.0146C78.0107 85.251 77.8144 86.3174 77.4218 87.2139C77.0292 88.1045 76.4784 88.8018 75.7695 89.3057L78.0546 91.0986L76.9032 92.1621L74.205 90.0176C73.7831 90.123 73.3378 90.1758 72.8691 90.1758C71.8612 90.1758 70.9677 89.9297 70.1884 89.4375C69.4091 88.9395 68.8027 88.2334 68.3691 87.3193C67.9413 86.3994 67.7216 85.3359 67.7099 84.1289V83.2061C67.7099 81.9756 67.9237 80.8887 68.3515 79.9453C68.7792 79.002 69.3827 78.2812 70.162 77.7832C70.9472 77.2793 71.8437 77.0273 72.8515 77.0273C73.8827 77.0273 74.788 77.2764 75.5673 77.7744C76.3525 78.2725 76.956 78.9902 77.3779 79.9277C77.7997 80.8594 78.0107 81.9492 78.0107 83.1973V84.0146ZM76.3232 83.1885C76.3232 81.6826 76.0214 80.5225 75.4179 79.708C74.8202 78.8877 73.9648 78.4775 72.8515 78.4775C71.7909 78.4775 70.953 78.8848 70.3378 79.6992C69.7284 80.5078 69.415 81.6328 69.3974 83.0742V84.0146C69.3974 85.4795 69.7021 86.6338 70.3114 87.4775C70.9267 88.3213 71.7792 88.7432 72.8691 88.7432C73.9589 88.7432 74.8027 88.3477 75.4003 87.5566C75.998 86.7598 76.3056 85.6201 76.3232 84.1377V83.1885ZM87.3088 90H85.6828V80.4902H87.3088V90ZM85.551 77.9678C85.551 77.7041 85.6301 77.4814 85.7883 77.2998C85.9523 77.1182 86.1926 77.0273 86.509 77.0273C86.8254 77.0273 87.0656 77.1182 87.2297 77.2998C87.3937 77.4814 87.4758 77.7041 87.4758 77.9678C87.4758 78.2314 87.3937 78.4512 87.2297 78.627C87.0656 78.8027 86.8254 78.8906 86.509 78.8906C86.1926 78.8906 85.9523 78.8027 85.7883 78.627C85.6301 78.4512 85.551 78.2314 85.551 77.9678ZM95.8162 87.4775C95.8162 87.0381 95.6493 86.6982 95.3153 86.458C94.9871 86.2119 94.41 86.001 93.5838 85.8252C92.7635 85.6494 92.1102 85.4385 91.6239 85.1924C91.1434 84.9463 90.786 84.6533 90.5516 84.3135C90.3231 83.9736 90.2088 83.5693 90.2088 83.1006C90.2088 82.3213 90.537 81.6621 91.1932 81.123C91.8553 80.584 92.6991 80.3145 93.7245 80.3145C94.8026 80.3145 95.6756 80.5928 96.3436 81.1494C97.0174 81.7061 97.3543 82.418 97.3543 83.2852H95.7196C95.7196 82.8398 95.5291 82.4561 95.1483 82.1338C94.7733 81.8115 94.2987 81.6504 93.7245 81.6504C93.1327 81.6504 92.6698 81.7793 92.3358 82.0371C92.0018 82.2949 91.8348 82.6318 91.8348 83.0479C91.8348 83.4404 91.9901 83.7363 92.3006 83.9355C92.6112 84.1348 93.1707 84.3252 93.9793 84.5068C94.7938 84.6885 95.453 84.9053 95.9569 85.1572C96.4608 85.4092 96.8329 85.7139 97.0731 86.0713C97.3192 86.4229 97.4422 86.8535 97.4422 87.3633C97.4422 88.2129 97.1024 88.8955 96.4227 89.4111C95.743 89.9209 94.8612 90.1758 93.7772 90.1758C93.0155 90.1758 92.3416 90.041 91.7557 89.7715C91.1698 89.502 90.7098 89.127 90.3758 88.6465C90.0477 88.1602 89.8836 87.6357 89.8836 87.0732H91.5096C91.5389 87.6182 91.7557 88.0518 92.16 88.374C92.5702 88.6904 93.1092 88.8486 93.7772 88.8486C94.3924 88.8486 94.8846 88.7256 95.2537 88.4795C95.6287 88.2275 95.8162 87.8936 95.8162 87.4775ZM110.616 90C110.523 89.8125 110.446 89.4785 110.388 88.998C109.632 89.7832 108.73 90.1758 107.681 90.1758C106.743 90.1758 105.973 89.9121 105.369 89.3848C104.772 88.8516 104.473 88.1777 104.473 87.3633C104.473 86.373 104.848 85.6055 105.598 85.0605C106.354 84.5098 107.414 84.2344 108.779 84.2344H110.361V83.4873C110.361 82.9189 110.192 82.4678 109.852 82.1338C109.512 81.7939 109.011 81.624 108.349 81.624C107.769 81.624 107.282 81.7705 106.89 82.0635C106.497 82.3564 106.301 82.7109 106.301 83.127H104.666C104.666 82.6523 104.833 82.1953 105.167 81.7559C105.507 81.3105 105.964 80.959 106.538 80.7012C107.118 80.4434 107.754 80.3145 108.445 80.3145C109.541 80.3145 110.4 80.5898 111.021 81.1406C111.642 81.6855 111.964 82.4385 111.987 83.3994V87.7764C111.987 88.6494 112.099 89.3438 112.321 89.8594V90H110.616ZM107.918 88.7607C108.428 88.7607 108.911 88.6289 109.368 88.3652C109.825 88.1016 110.156 87.7588 110.361 87.3369V85.3857H109.087C107.095 85.3857 106.099 85.9688 106.099 87.1348C106.099 87.6445 106.269 88.043 106.609 88.3301C106.948 88.6172 107.385 88.7607 107.918 88.7607ZM121.663 84.9902V90H119.976V77.2031H124.696C126.096 77.2031 127.192 77.5605 127.983 78.2754C128.78 78.9902 129.178 79.9365 129.178 81.1143C129.178 82.3564 128.788 83.3145 128.009 83.9883C127.236 84.6562 126.125 84.9902 124.678 84.9902H121.663ZM121.663 83.6104H124.696C125.598 83.6104 126.289 83.3994 126.77 82.9775C127.25 82.5498 127.491 81.9346 127.491 81.1318C127.491 80.3701 127.25 79.7607 126.77 79.3037C126.289 78.8467 125.63 78.6094 124.792 78.5918H121.663V83.6104ZM137.202 90C137.108 89.8125 137.032 89.4785 136.974 88.998C136.218 89.7832 135.315 90.1758 134.267 90.1758C133.329 90.1758 132.559 89.9121 131.955 89.3848C131.357 88.8516 131.059 88.1777 131.059 87.3633C131.059 86.373 131.434 85.6055 132.184 85.0605C132.939 84.5098 134 84.2344 135.365 84.2344H136.947V83.4873C136.947 82.9189 136.777 82.4678 136.438 82.1338C136.098 81.7939 135.597 81.624 134.935 81.624C134.355 81.624 133.868 81.7705 133.476 82.0635C133.083 82.3564 132.887 82.7109 132.887 83.127H131.252C131.252 82.6523 131.419 82.1953 131.753 81.7559C132.093 81.3105 132.55 80.959 133.124 80.7012C133.704 80.4434 134.34 80.3145 135.031 80.3145C136.127 80.3145 136.985 80.5898 137.606 81.1406C138.228 81.6855 138.55 82.4385 138.573 83.3994V87.7764C138.573 88.6494 138.685 89.3438 138.907 89.8594V90H137.202ZM134.504 88.7607C135.014 88.7607 135.497 88.6289 135.954 88.3652C136.411 88.1016 136.742 87.7588 136.947 87.3369V85.3857H135.673C133.681 85.3857 132.685 85.9688 132.685 87.1348C132.685 87.6445 132.855 88.043 133.194 88.3301C133.534 88.6172 133.971 88.7607 134.504 88.7607ZM147.353 90C147.259 89.8125 147.183 89.4785 147.125 88.998C146.369 89.7832 145.466 90.1758 144.418 90.1758C143.48 90.1758 142.71 89.9121 142.106 89.3848C141.508 88.8516 141.21 88.1777 141.21 87.3633C141.21 86.373 141.585 85.6055 142.335 85.0605C143.091 84.5098 144.151 84.2344 145.516 84.2344H147.098V83.4873C147.098 82.9189 146.928 82.4678 146.589 82.1338C146.249 81.7939 145.748 81.624 145.086 81.624C144.506 81.624 144.019 81.7705 143.627 82.0635C143.234 82.3564 143.038 82.7109 143.038 83.127H141.403C141.403 82.6523 141.57 82.1953 141.904 81.7559C142.244 81.3105 142.701 80.959 143.275 80.7012C143.855 80.4434 144.491 80.3145 145.182 80.3145C146.278 80.3145 147.136 80.5898 147.757 81.1406C148.379 81.6855 148.701 82.4385 148.724 83.3994V87.7764C148.724 88.6494 148.836 89.3438 149.058 89.8594V90H147.353ZM144.655 88.7607C145.165 88.7607 145.648 88.6289 146.105 88.3652C146.562 88.1016 146.893 87.7588 147.098 87.3369V85.3857H145.824C143.832 85.3857 142.836 85.9688 142.836 87.1348C142.836 87.6445 143.006 88.043 143.345 88.3301C143.685 88.6172 144.122 88.7607 144.655 88.7607ZM155.659 84.2959C154.211 83.8799 153.157 83.3701 152.494 82.7666C151.838 82.1572 151.51 81.4072 151.51 80.5166C151.51 79.5088 151.911 78.6768 152.714 78.0205C153.523 77.3584 154.572 77.0273 155.861 77.0273C156.74 77.0273 157.522 77.1973 158.207 77.5371C158.899 77.877 159.432 78.3457 159.807 78.9434C160.188 79.541 160.378 80.1943 160.378 80.9033H158.682C158.682 80.1299 158.436 79.5234 157.944 79.084C157.451 78.6387 156.757 78.416 155.861 78.416C155.029 78.416 154.378 78.6006 153.909 78.9697C153.447 79.333 153.215 79.8398 153.215 80.4902C153.215 81.0117 153.435 81.4541 153.874 81.8174C154.32 82.1748 155.073 82.5029 156.133 82.8018C157.2 83.1006 158.032 83.4316 158.629 83.7949C159.233 84.1523 159.678 84.5713 159.965 85.0518C160.258 85.5322 160.405 86.0977 160.405 86.748C160.405 87.7852 160 88.6172 159.192 89.2441C158.383 89.8652 157.302 90.1758 155.949 90.1758C155.07 90.1758 154.249 90.0088 153.488 89.6748C152.726 89.335 152.137 88.8721 151.721 88.2861C151.311 87.7002 151.106 87.0352 151.106 86.291H152.802C152.802 87.0645 153.086 87.6768 153.655 88.1279C154.229 88.5732 154.993 88.7959 155.949 88.7959C156.839 88.7959 157.522 88.6143 157.996 88.251C158.471 87.8877 158.708 87.3926 158.708 86.7656C158.708 86.1387 158.489 85.6553 158.049 85.3154C157.61 84.9697 156.813 84.6299 155.659 84.2959ZM169.712 78.1875V80.4902H171.487V81.7471H169.712V87.6445C169.712 88.0254 169.791 88.3125 169.949 88.5059C170.107 88.6934 170.377 88.7871 170.757 88.7871C170.945 88.7871 171.203 88.752 171.531 88.6816V90C171.103 90.1172 170.687 90.1758 170.283 90.1758C169.556 90.1758 169.008 89.9561 168.639 89.5166C168.27 89.0771 168.086 88.4531 168.086 87.6445V81.7471H166.354V80.4902H168.086V78.1875H169.712ZM175.38 81.6416C176.101 80.7568 177.038 80.3145 178.193 80.3145C180.202 80.3145 181.216 81.4482 181.234 83.7158V90H179.608V83.707C179.602 83.0215 179.444 82.5146 179.133 82.1865C178.828 81.8584 178.351 81.6943 177.7 81.6943C177.173 81.6943 176.71 81.835 176.312 82.1162C175.913 82.3975 175.603 82.7666 175.38 83.2236V90H173.754V76.5H175.38V81.6416ZM189.899 90C189.806 89.8125 189.729 89.4785 189.671 88.998C188.915 89.7832 188.013 90.1758 186.964 90.1758C186.026 90.1758 185.256 89.9121 184.652 89.3848C184.055 88.8516 183.756 88.1777 183.756 87.3633C183.756 86.373 184.131 85.6055 184.881 85.0605C185.637 84.5098 186.697 84.2344 188.062 84.2344H189.644V83.4873C189.644 82.9189 189.474 82.4678 189.135 82.1338C188.795 81.7939 188.294 81.624 187.632 81.624C187.052 81.624 186.565 81.7705 186.173 82.0635C185.78 82.3564 185.584 82.7109 185.584 83.127H183.949C183.949 82.6523 184.116 82.1953 184.45 81.7559C184.79 81.3105 185.247 80.959 185.821 80.7012C186.401 80.4434 187.037 80.3145 187.728 80.3145C188.824 80.3145 189.682 80.5898 190.304 81.1406C190.925 81.6855 191.247 82.4385 191.27 83.3994V87.7764C191.27 88.6494 191.382 89.3438 191.604 89.8594V90H189.899ZM187.201 88.7607C187.711 88.7607 188.194 88.6289 188.651 88.3652C189.108 88.1016 189.439 87.7588 189.644 87.3369V85.3857H188.37C186.378 85.3857 185.382 85.9688 185.382 87.1348C185.382 87.6445 185.552 88.043 185.891 88.3301C186.231 88.6172 186.668 88.7607 187.201 88.7607ZM196.385 78.1875V80.4902H198.161V81.7471H196.385V87.6445C196.385 88.0254 196.464 88.3125 196.623 88.5059C196.781 88.6934 197.05 88.7871 197.431 88.7871C197.619 88.7871 197.876 88.752 198.205 88.6816V90C197.777 90.1172 197.361 90.1758 196.957 90.1758C196.23 90.1758 195.682 89.9561 195.313 89.5166C194.944 89.0771 194.759 88.4531 194.759 87.6445V81.7471H193.028V80.4902H194.759V78.1875H196.385ZM213.286 85.3506C213.286 86.7979 212.955 87.9639 212.293 88.8486C211.631 89.7334 210.734 90.1758 209.603 90.1758C208.449 90.1758 207.541 89.8096 206.879 89.0771V93.6562H205.253V80.4902H206.738L206.817 81.5449C207.479 80.7246 208.399 80.3145 209.577 80.3145C210.72 80.3145 211.622 80.7451 212.284 81.6064C212.952 82.4678 213.286 83.666 213.286 85.2012V85.3506ZM211.66 85.166C211.66 84.0938 211.431 83.2471 210.974 82.626C210.517 82.0049 209.89 81.6943 209.094 81.6943C208.109 81.6943 207.371 82.1309 206.879 83.0039V87.5479C207.365 88.415 208.109 88.8486 209.111 88.8486C209.89 88.8486 210.509 88.541 210.966 87.9258C211.429 87.3047 211.66 86.3848 211.66 85.166ZM220.317 81.9492C220.071 81.9082 219.804 81.8877 219.517 81.8877C218.451 81.8877 217.727 82.3418 217.346 83.25V90H215.72V80.4902H217.302L217.329 81.5889C217.862 80.7393 218.618 80.3145 219.596 80.3145C219.913 80.3145 220.153 80.3555 220.317 80.4375V81.9492ZM221.573 85.1572C221.573 84.2256 221.755 83.3877 222.118 82.6436C222.487 81.8994 222.997 81.3252 223.648 80.9209C224.304 80.5166 225.051 80.3145 225.889 80.3145C227.184 80.3145 228.23 80.7627 229.026 81.6592C229.829 82.5557 230.231 83.748 230.231 85.2363V85.3506C230.231 86.2764 230.052 87.1084 229.694 87.8467C229.343 88.5791 228.836 89.1504 228.174 89.5605C227.518 89.9707 226.762 90.1758 225.906 90.1758C224.617 90.1758 223.571 89.7275 222.769 88.8311C221.972 87.9346 221.573 86.748 221.573 85.2715V85.1572ZM223.208 85.3506C223.208 86.4053 223.451 87.252 223.938 87.8906C224.43 88.5293 225.086 88.8486 225.906 88.8486C226.732 88.8486 227.389 88.5264 227.875 87.8818C228.361 87.2314 228.605 86.3232 228.605 85.1572C228.605 84.1143 228.356 83.2705 227.857 82.626C227.365 81.9756 226.709 81.6504 225.889 81.6504C225.086 81.6504 224.439 81.9697 223.946 82.6084C223.454 83.2471 223.208 84.1611 223.208 85.3506ZM235.627 87.7939L237.982 80.4902H239.643L236.233 90H234.994L231.549 80.4902H233.21L235.627 87.7939ZM243.334 90H241.708V80.4902H243.334V90ZM241.577 77.9678C241.577 77.7041 241.656 77.4814 241.814 77.2998C241.978 77.1182 242.218 77.0273 242.535 77.0273C242.851 77.0273 243.091 77.1182 243.255 77.2998C243.419 77.4814 243.501 77.7041 243.501 77.9678C243.501 78.2314 243.419 78.4512 243.255 78.627C243.091 78.8027 242.851 78.8906 242.535 78.8906C242.218 78.8906 241.978 78.8027 241.814 78.627C241.656 78.4512 241.577 78.2314 241.577 77.9678ZM245.909 85.166C245.909 83.707 246.255 82.5352 246.946 81.6504C247.638 80.7598 248.543 80.3145 249.662 80.3145C250.775 80.3145 251.657 80.6953 252.308 81.457V76.5H253.934V90H252.439L252.36 88.9805C251.71 89.7773 250.805 90.1758 249.645 90.1758C248.543 90.1758 247.644 89.7246 246.946 88.8223C246.255 87.9199 245.909 86.7422 245.909 85.2891V85.166ZM247.535 85.3506C247.535 86.4287 247.758 87.2725 248.203 87.8818C248.648 88.4912 249.264 88.7959 250.049 88.7959C251.08 88.7959 251.833 88.333 252.308 87.4072V83.0391C251.821 82.1426 251.074 81.6943 250.066 81.6943C249.27 81.6943 248.648 82.002 248.203 82.6172C247.758 83.2324 247.535 84.1436 247.535 85.3506ZM260.771 90.1758C259.482 90.1758 258.433 89.7539 257.625 88.9102C256.816 88.0605 256.412 86.9268 256.412 85.5088V85.21C256.412 84.2666 256.59 83.4258 256.948 82.6875C257.311 81.9434 257.815 81.3633 258.46 80.9473C259.11 80.5254 259.813 80.3145 260.569 80.3145C261.805 80.3145 262.766 80.7217 263.452 81.5361C264.137 82.3506 264.48 83.5166 264.48 85.0342V85.7109H258.038C258.061 86.6484 258.334 87.4072 258.855 87.9873C259.382 88.5615 260.05 88.8486 260.859 88.8486C261.433 88.8486 261.92 88.7314 262.318 88.4971C262.716 88.2627 263.065 87.9521 263.364 87.5654L264.357 88.3389C263.56 89.5635 262.365 90.1758 260.771 90.1758ZM260.569 81.6504C259.913 81.6504 259.362 81.8906 258.917 82.3711C258.471 82.8457 258.196 83.5137 258.09 84.375H262.854V84.252C262.807 83.4258 262.585 82.7871 262.186 82.3359C261.788 81.8789 261.249 81.6504 260.569 81.6504ZM272.267 87.4775C272.267 87.0381 272.1 86.6982 271.766 86.458C271.438 86.2119 270.861 86.001 270.034 85.8252C269.214 85.6494 268.561 85.4385 268.074 85.1924C267.594 84.9463 267.237 84.6533 267.002 84.3135C266.774 83.9736 266.659 83.5693 266.659 83.1006C266.659 82.3213 266.988 81.6621 267.644 81.123C268.306 80.584 269.15 80.3145 270.175 80.3145C271.253 80.3145 272.126 80.5928 272.794 81.1494C273.468 81.7061 273.805 82.418 273.805 83.2852H272.17C272.17 82.8398 271.98 82.4561 271.599 82.1338C271.224 81.8115 270.749 81.6504 270.175 81.6504C269.583 81.6504 269.12 81.7793 268.786 82.0371C268.452 82.2949 268.285 82.6318 268.285 83.0479C268.285 83.4404 268.441 83.7363 268.751 83.9355C269.062 84.1348 269.621 84.3252 270.43 84.5068C271.244 84.6885 271.904 84.9053 272.408 85.1572C272.911 85.4092 273.283 85.7139 273.524 86.0713C273.77 86.4229 273.893 86.8535 273.893 87.3633C273.893 88.2129 273.553 88.8955 272.873 89.4111C272.194 89.9209 271.312 90.1758 270.228 90.1758C269.466 90.1758 268.792 90.041 268.206 89.7715C267.62 89.502 267.16 89.127 266.826 88.6465C266.498 88.1602 266.334 87.6357 266.334 87.0732H267.96C267.99 87.6182 268.206 88.0518 268.611 88.374C269.021 88.6904 269.56 88.8486 270.228 88.8486C270.843 88.8486 271.335 88.7256 271.704 88.4795C272.079 88.2275 272.267 87.8936 272.267 87.4775ZM283.261 90H281.574V77.2031H283.261V90ZM287.998 80.4902L288.051 81.6855C288.778 80.7715 289.727 80.3145 290.899 80.3145C292.908 80.3145 293.922 81.4482 293.94 83.7158V90H292.314V83.707C292.308 83.0215 292.15 82.5146 291.839 82.1865C291.534 81.8584 291.057 81.6943 290.406 81.6943C289.879 81.6943 289.416 81.835 289.018 82.1162C288.619 82.3975 288.309 82.7666 288.086 83.2236V90H286.46V80.4902H287.998ZM298.958 78.1875V80.4902H300.733V81.7471H298.958V87.6445C298.958 88.0254 299.037 88.3125 299.195 88.5059C299.353 88.6934 299.623 88.7871 300.004 88.7871C300.191 88.7871 300.449 88.752 300.777 88.6816V90C300.349 90.1172 299.933 90.1758 299.529 90.1758C298.803 90.1758 298.255 89.9561 297.886 89.5166C297.516 89.0771 297.332 88.4531 297.332 87.6445V81.7471H295.6V80.4902H297.332V78.1875H298.958ZM306.947 90.1758C305.658 90.1758 304.609 89.7539 303.8 88.9102C302.992 88.0605 302.587 86.9268 302.587 85.5088V85.21C302.587 84.2666 302.766 83.4258 303.124 82.6875C303.487 81.9434 303.991 81.3633 304.635 80.9473C305.286 80.5254 305.989 80.3145 306.745 80.3145C307.981 80.3145 308.942 80.7217 309.627 81.5361C310.313 82.3506 310.656 83.5166 310.656 85.0342V85.7109H304.213C304.237 86.6484 304.509 87.4072 305.031 87.9873C305.558 88.5615 306.226 88.8486 307.035 88.8486C307.609 88.8486 308.095 88.7314 308.494 88.4971C308.892 88.2627 309.241 87.9521 309.54 87.5654L310.533 88.3389C309.736 89.5635 308.54 90.1758 306.947 90.1758ZM306.745 81.6504C306.088 81.6504 305.538 81.8906 305.092 82.3711C304.647 82.8457 304.372 83.5137 304.266 84.375H309.03V84.252C308.983 83.4258 308.76 82.7871 308.362 82.3359C307.963 81.8789 307.424 81.6504 306.745 81.6504ZM312.519 85.166C312.519 83.6836 312.861 82.5059 313.547 81.6328C314.233 80.7539 315.141 80.3145 316.272 80.3145C317.432 80.3145 318.337 80.7246 318.987 81.5449L319.067 80.4902H320.552V89.7715C320.552 91.002 320.186 91.9717 319.453 92.6807C318.727 93.3896 317.748 93.7441 316.518 93.7441C315.832 93.7441 315.161 93.5977 314.505 93.3047C313.849 93.0117 313.348 92.6104 313.002 92.1006L313.846 91.125C314.543 91.9863 315.396 92.417 316.403 92.417C317.194 92.417 317.81 92.1943 318.249 91.749C318.694 91.3037 318.917 90.6768 318.917 89.8682V89.0508C318.267 89.8008 317.379 90.1758 316.254 90.1758C315.141 90.1758 314.238 89.7275 313.547 88.8311C312.861 87.9346 312.519 86.7129 312.519 85.166ZM314.153 85.3506C314.153 86.4229 314.373 87.2666 314.813 87.8818C315.252 88.4912 315.867 88.7959 316.658 88.7959C317.684 88.7959 318.437 88.3301 318.917 87.3984V83.0566C318.419 82.1484 317.672 81.6943 316.676 81.6943C315.885 81.6943 315.267 82.002 314.821 82.6172C314.376 83.2324 314.153 84.1436 314.153 85.3506ZM327.969 81.9492C327.723 81.9082 327.457 81.8877 327.17 81.8877C326.103 81.8877 325.38 82.3418 324.999 83.25V90H323.373V80.4902H324.955L324.981 81.5889C325.514 80.7393 326.27 80.3145 327.249 80.3145C327.565 80.3145 327.805 80.3555 327.969 80.4375V81.9492ZM335.352 90C335.258 89.8125 335.182 89.4785 335.123 88.998C334.368 89.7832 333.465 90.1758 332.416 90.1758C331.479 90.1758 330.708 89.9121 330.105 89.3848C329.507 88.8516 329.208 88.1777 329.208 87.3633C329.208 86.373 329.583 85.6055 330.333 85.0605C331.089 84.5098 332.15 84.2344 333.515 84.2344H335.097V83.4873C335.097 82.9189 334.927 82.4678 334.587 82.1338C334.247 81.7939 333.746 81.624 333.084 81.624C332.504 81.624 332.018 81.7705 331.625 82.0635C331.233 82.3564 331.037 82.7109 331.037 83.127H329.402C329.402 82.6523 329.569 82.1953 329.903 81.7559C330.243 81.3105 330.7 80.959 331.274 80.7012C331.854 80.4434 332.49 80.3145 333.181 80.3145C334.277 80.3145 335.135 80.5898 335.756 81.1406C336.377 81.6855 336.7 82.4385 336.723 83.3994V87.7764C336.723 88.6494 336.834 89.3438 337.057 89.8594V90H335.352ZM332.654 88.7607C333.163 88.7607 333.647 88.6289 334.104 88.3652C334.561 88.1016 334.892 87.7588 335.097 87.3369V85.3857H333.823C331.83 85.3857 330.834 85.9688 330.834 87.1348C330.834 87.6445 331.004 88.043 331.344 88.3301C331.684 88.6172 332.121 88.7607 332.654 88.7607ZM341.838 78.1875V80.4902H343.613V81.7471H341.838V87.6445C341.838 88.0254 341.917 88.3125 342.075 88.5059C342.233 88.6934 342.503 88.7871 342.884 88.7871C343.071 88.7871 343.329 88.752 343.657 88.6816V90C343.23 90.1172 342.814 90.1758 342.409 90.1758C341.683 90.1758 341.135 89.9561 340.766 89.5166C340.397 89.0771 340.212 88.4531 340.212 87.6445V81.7471H338.48V80.4902H340.212V78.1875H341.838ZM347.647 90H346.021V80.4902H347.647V90ZM345.889 77.9678C345.889 77.7041 345.968 77.4814 346.127 77.2998C346.291 77.1182 346.531 77.0273 346.847 77.0273C347.164 77.0273 347.404 77.1182 347.568 77.2998C347.732 77.4814 347.814 77.7041 347.814 77.9678C347.814 78.2314 347.732 78.4512 347.568 78.627C347.404 78.8027 347.164 78.8906 346.847 78.8906C346.531 78.8906 346.291 78.8027 346.127 78.627C345.968 78.4512 345.889 78.2314 345.889 77.9678ZM350.187 85.1572C350.187 84.2256 350.368 83.3877 350.732 82.6436C351.101 81.8994 351.611 81.3252 352.261 80.9209C352.917 80.5166 353.664 80.3145 354.502 80.3145C355.797 80.3145 356.843 80.7627 357.64 81.6592C358.443 82.5557 358.844 83.748 358.844 85.2363V85.3506C358.844 86.2764 358.665 87.1084 358.308 87.8467C357.956 88.5791 357.45 89.1504 356.787 89.5605C356.131 89.9707 355.375 90.1758 354.52 90.1758C353.231 90.1758 352.185 89.7275 351.382 88.8311C350.585 87.9346 350.187 86.748 350.187 85.2715V85.1572ZM351.822 85.3506C351.822 86.4053 352.065 87.252 352.551 87.8906C353.043 88.5293 353.7 88.8486 354.52 88.8486C355.346 88.8486 356.002 88.5264 356.489 87.8818C356.975 87.2314 357.218 86.3232 357.218 85.1572C357.218 84.1143 356.969 83.2705 356.471 82.626C355.979 81.9756 355.323 81.6504 354.502 81.6504C353.7 81.6504 353.052 81.9697 352.56 82.6084C352.068 83.2471 351.822 84.1611 351.822 85.3506ZM362.781 80.4902L362.834 81.6855C363.561 80.7715 364.51 80.3145 365.682 80.3145C367.691 80.3145 368.705 81.4482 368.723 83.7158V90H367.097V83.707C367.091 83.0215 366.933 82.5146 366.622 82.1865C366.317 81.8584 365.84 81.6943 365.189 81.6943C364.662 81.6943 364.199 81.835 363.801 82.1162C363.402 82.3975 363.092 82.7666 362.869 83.2236V90H361.243V80.4902H362.781ZM371.482 92.5488L370.559 91.916C371.11 91.1484 371.397 90.3574 371.421 89.543V88.0752H373.011V89.3496C373.011 89.9414 372.865 90.5332 372.572 91.125C372.285 91.7168 371.921 92.1914 371.482 92.5488ZM380.508 90V77.2031H384.12C385.233 77.2031 386.218 77.4492 387.073 77.9414C387.929 78.4336 388.588 79.1338 389.051 80.042C389.519 80.9502 389.757 81.9932 389.763 83.1709V83.9883C389.763 85.1953 389.528 86.2529 389.059 87.1611C388.597 88.0693 387.932 88.7666 387.064 89.2529C386.203 89.7393 385.198 89.9883 384.05 90H380.508ZM382.195 78.5918V88.6201H383.971C385.271 88.6201 386.282 88.2158 387.003 87.4072C387.729 86.5986 388.093 85.4473 388.093 83.9531V83.2061C388.093 81.7529 387.75 80.625 387.064 79.8223C386.385 79.0137 385.418 78.6035 384.164 78.5918H382.195ZM394.192 90H392.566V80.4902H394.192V90ZM392.434 77.9678C392.434 77.7041 392.513 77.4814 392.671 77.2998C392.835 77.1182 393.076 77.0273 393.392 77.0273C393.709 77.0273 393.949 77.1182 394.113 77.2998C394.277 77.4814 394.359 77.7041 394.359 77.9678C394.359 78.2314 394.277 78.4512 394.113 78.627C393.949 78.8027 393.709 78.8906 393.392 78.8906C393.076 78.8906 392.835 78.8027 392.671 78.627C392.513 78.4512 392.434 78.2314 392.434 77.9678ZM402.699 87.4775C402.699 87.0381 402.532 86.6982 402.198 86.458C401.87 86.2119 401.293 86.001 400.467 85.8252C399.647 85.6494 398.993 85.4385 398.507 85.1924C398.027 84.9463 397.669 84.6533 397.435 84.3135C397.206 83.9736 397.092 83.5693 397.092 83.1006C397.092 82.3213 397.42 81.6621 398.076 81.123C398.738 80.584 399.582 80.3145 400.608 80.3145C401.686 80.3145 402.559 80.5928 403.227 81.1494C403.901 81.7061 404.237 82.418 404.237 83.2852H402.603C402.603 82.8398 402.412 82.4561 402.031 82.1338C401.656 81.8115 401.182 81.6504 400.608 81.6504C400.016 81.6504 399.553 81.7793 399.219 82.0371C398.885 82.2949 398.718 82.6318 398.718 83.0479C398.718 83.4404 398.873 83.7363 399.184 83.9355C399.494 84.1348 400.054 84.3252 400.862 84.5068C401.677 84.6885 402.336 84.9053 402.84 85.1572C403.344 85.4092 403.716 85.7139 403.956 86.0713C404.202 86.4229 404.325 86.8535 404.325 87.3633C404.325 88.2129 403.986 88.8955 403.306 89.4111C402.626 89.9209 401.744 90.1758 400.66 90.1758C399.899 90.1758 399.225 90.041 398.639 89.7715C398.053 89.502 397.593 89.127 397.259 88.6465C396.931 88.1602 396.767 87.6357 396.767 87.0732H398.393C398.422 87.6182 398.639 88.0518 399.043 88.374C399.453 88.6904 399.992 88.8486 400.66 88.8486C401.276 88.8486 401.768 88.7256 402.137 88.4795C402.512 88.2275 402.699 87.8936 402.699 87.4775ZM409.01 78.1875V80.4902H410.785V81.7471H409.01V87.6445C409.01 88.0254 409.089 88.3125 409.247 88.5059C409.405 88.6934 409.675 88.7871 410.055 88.7871C410.243 88.7871 410.501 88.752 410.829 88.6816V90C410.401 90.1172 409.985 90.1758 409.581 90.1758C408.854 90.1758 408.306 89.9561 407.937 89.5166C407.568 89.0771 407.384 88.4531 407.384 87.6445V81.7471H405.652V80.4902H407.384V78.1875H409.01ZM417.649 81.9492C417.403 81.9082 417.136 81.8877 416.849 81.8877C415.783 81.8877 415.059 82.3418 414.678 83.25V90H413.052V80.4902H414.634L414.661 81.5889C415.194 80.7393 415.95 80.3145 416.928 80.3145C417.245 80.3145 417.485 80.3555 417.649 80.4375V81.9492ZM421.278 90H419.652V80.4902H421.278V90ZM419.521 77.9678C419.521 77.7041 419.6 77.4814 419.758 77.2998C419.922 77.1182 420.162 77.0273 420.479 77.0273C420.795 77.0273 421.035 77.1182 421.199 77.2998C421.363 77.4814 421.445 77.7041 421.445 77.9678C421.445 78.2314 421.363 78.4512 421.199 78.627C421.035 78.8027 420.795 78.8906 420.479 78.8906C420.162 78.8906 419.922 78.8027 419.758 78.627C419.6 78.4512 419.521 78.2314 419.521 77.9678ZM432.3 85.3506C432.3 86.8037 431.966 87.9727 431.298 88.8574C430.63 89.7363 429.733 90.1758 428.608 90.1758C427.407 90.1758 426.478 89.751 425.822 88.9014L425.743 90H424.249V76.5H425.875V81.5361C426.531 80.7217 427.436 80.3145 428.591 80.3145C429.745 80.3145 430.65 80.751 431.306 81.624C431.968 82.4971 432.3 83.6924 432.3 85.21V85.3506ZM430.674 85.166C430.674 84.0586 430.46 83.2031 430.032 82.5996C429.604 81.9961 428.989 81.6943 428.186 81.6943C427.114 81.6943 426.343 82.1924 425.875 83.1885V87.3018C426.373 88.2979 427.149 88.7959 428.204 88.7959C428.983 88.7959 429.59 88.4941 430.023 87.8906C430.457 87.2871 430.674 86.3789 430.674 85.166ZM440.587 89.0596C439.954 89.8037 439.026 90.1758 437.801 90.1758C436.787 90.1758 436.014 89.8828 435.481 89.2969C434.953 88.7051 434.687 87.832 434.681 86.6777V80.4902H436.307V86.6338C436.307 88.0752 436.893 88.7959 438.065 88.7959C439.307 88.7959 440.133 88.333 440.543 87.4072V80.4902H442.169V90H440.622L440.587 89.0596ZM447.214 78.1875V80.4902H448.989V81.7471H447.214V87.6445C447.214 88.0254 447.293 88.3125 447.451 88.5059C447.609 88.6934 447.879 88.7871 448.26 88.7871C448.447 88.7871 448.705 88.752 449.033 88.6816V90C448.605 90.1172 448.189 90.1758 447.785 90.1758C447.059 90.1758 446.511 89.9561 446.142 89.5166C445.772 89.0771 445.588 88.4531 445.588 87.6445V81.7471H443.856V80.4902H445.588V78.1875H447.214ZM453.023 90H451.397V80.4902H453.023V90ZM451.265 77.9678C451.265 77.7041 451.344 77.4814 451.503 77.2998C451.667 77.1182 451.907 77.0273 452.223 77.0273C452.54 77.0273 452.78 77.1182 452.944 77.2998C453.108 77.4814 453.19 77.7041 453.19 77.9678C453.19 78.2314 453.108 78.4512 452.944 78.627C452.78 78.8027 452.54 78.8906 452.223 78.8906C451.907 78.8906 451.667 78.8027 451.503 78.627C451.344 78.4512 451.265 78.2314 451.265 77.9678ZM455.563 85.1572C455.563 84.2256 455.744 83.3877 456.108 82.6436C456.477 81.8994 456.987 81.3252 457.637 80.9209C458.293 80.5166 459.04 80.3145 459.878 80.3145C461.173 80.3145 462.219 80.7627 463.016 81.6592C463.819 82.5557 464.22 83.748 464.22 85.2363V85.3506C464.22 86.2764 464.041 87.1084 463.684 87.8467C463.332 88.5791 462.825 89.1504 462.163 89.5605C461.507 89.9707 460.751 90.1758 459.896 90.1758C458.607 90.1758 457.561 89.7275 456.758 88.8311C455.961 87.9346 455.563 86.748 455.563 85.2715V85.1572ZM457.198 85.3506C457.198 86.4053 457.441 87.252 457.927 87.8906C458.419 88.5293 459.075 88.8486 459.896 88.8486C460.722 88.8486 461.378 88.5264 461.865 87.8818C462.351 87.2314 462.594 86.3232 462.594 85.1572C462.594 84.1143 462.345 83.2705 461.847 82.626C461.355 81.9756 460.699 81.6504 459.878 81.6504C459.075 81.6504 458.428 81.9697 457.936 82.6084C457.444 83.2471 457.198 84.1611 457.198 85.3506ZM468.157 80.4902L468.21 81.6855C468.936 80.7715 469.886 80.3145 471.058 80.3145C473.067 80.3145 474.081 81.4482 474.099 83.7158V90H472.473V83.707C472.467 83.0215 472.309 82.5146 471.998 82.1865C471.693 81.8584 471.216 81.6943 470.565 81.6943C470.038 81.6943 469.575 81.835 469.177 82.1162C468.778 82.3975 468.468 82.7666 468.245 83.2236V90H466.619V80.4902H468.157ZM487.607 90C487.513 89.8125 487.437 89.4785 487.378 88.998C486.622 89.7832 485.72 90.1758 484.671 90.1758C483.734 90.1758 482.963 89.9121 482.36 89.3848C481.762 88.8516 481.463 88.1777 481.463 87.3633C481.463 86.373 481.838 85.6055 482.588 85.0605C483.344 84.5098 484.404 84.2344 485.77 84.2344H487.352V83.4873C487.352 82.9189 487.182 82.4678 486.842 82.1338C486.502 81.7939 486.001 81.624 485.339 81.624C484.759 81.624 484.273 81.7705 483.88 82.0635C483.487 82.3564 483.291 82.7109 483.291 83.127H481.656C481.656 82.6523 481.823 82.1953 482.157 81.7559C482.497 81.3105 482.954 80.959 483.529 80.7012C484.109 80.4434 484.744 80.3145 485.436 80.3145C486.531 80.3145 487.39 80.5898 488.011 81.1406C488.632 81.6855 488.954 82.4385 488.978 83.3994V87.7764C488.978 88.6494 489.089 89.3438 489.312 89.8594V90H487.607ZM484.908 88.7607C485.418 88.7607 485.902 88.6289 486.359 88.3652C486.816 88.1016 487.147 87.7588 487.352 87.3369V85.3857H486.077C484.085 85.3857 483.089 85.9688 483.089 87.1348C483.089 87.6445 483.259 88.043 483.599 88.3301C483.939 88.6172 484.375 88.7607 484.908 88.7607ZM493.425 80.4902L493.477 81.6855C494.204 80.7715 495.153 80.3145 496.325 80.3145C498.335 80.3145 499.348 81.4482 499.366 83.7158V90H497.74V83.707C497.734 83.0215 497.576 82.5146 497.265 82.1865C496.961 81.8584 496.483 81.6943 495.833 81.6943C495.306 81.6943 494.843 81.835 494.444 82.1162C494.046 82.3975 493.735 82.7666 493.513 83.2236V90H491.887V80.4902H493.425ZM501.783 85.166C501.783 83.707 502.128 82.5352 502.82 81.6504C503.511 80.7598 504.416 80.3145 505.536 80.3145C506.649 80.3145 507.531 80.6953 508.181 81.457V76.5H509.807V90H508.313L508.234 88.9805C507.583 89.7773 506.678 90.1758 505.518 90.1758C504.416 90.1758 503.517 89.7246 502.82 88.8223C502.128 87.9199 501.783 86.7422 501.783 85.2891V85.166ZM503.409 85.3506C503.409 86.4287 503.631 87.2725 504.077 87.8818C504.522 88.4912 505.137 88.7959 505.922 88.7959C506.954 88.7959 507.707 88.333 508.181 87.4072V83.0391C507.695 82.1426 506.948 81.6943 505.94 81.6943C505.143 81.6943 504.522 82.002 504.077 82.6172C503.631 83.2324 503.409 84.1436 503.409 85.3506ZM44.5518 111.66H39.1904L37.9863 115H36.2461L41.1328 102.203H42.6094L47.5049 115H45.7734L44.5518 111.66ZM39.7002 110.271H44.0508L41.8711 104.286L39.7002 110.271ZM50.8707 105.49L50.9235 106.686C51.65 105.771 52.5993 105.314 53.7711 105.314C55.7809 105.314 56.7946 106.448 56.8121 108.716V115H55.1862V108.707C55.1803 108.021 55.0221 107.515 54.7116 107.187C54.4069 106.858 53.9293 106.694 53.2789 106.694C52.7516 106.694 52.2887 106.835 51.8903 107.116C51.4918 107.397 51.1813 107.767 50.9586 108.224V115H49.3327V105.49H50.8707ZM65.4954 115C65.4016 114.812 65.3255 114.479 65.2669 113.998C64.511 114.783 63.6087 115.176 62.5598 115.176C61.6223 115.176 60.8518 114.912 60.2483 114.385C59.6507 113.852 59.3518 113.178 59.3518 112.363C59.3518 111.373 59.7268 110.605 60.4768 110.061C61.2327 109.51 62.2932 109.234 63.6585 109.234H65.2405V108.487C65.2405 107.919 65.0706 107.468 64.7307 107.134C64.3909 106.794 63.8899 106.624 63.2278 106.624C62.6477 106.624 62.1614 106.771 61.7688 107.063C61.3762 107.356 61.18 107.711 61.18 108.127H59.5452C59.5452 107.652 59.7122 107.195 60.0462 106.756C60.386 106.311 60.843 105.959 61.4173 105.701C61.9973 105.443 62.6331 105.314 63.3245 105.314C64.4202 105.314 65.2786 105.59 65.8997 106.141C66.5208 106.686 66.843 107.438 66.8665 108.399V112.776C66.8665 113.649 66.9778 114.344 67.2005 114.859V115H65.4954ZM62.7971 113.761C63.3069 113.761 63.7903 113.629 64.2473 113.365C64.7044 113.102 65.0354 112.759 65.2405 112.337V110.386H63.9661C61.9739 110.386 60.9778 110.969 60.9778 112.135C60.9778 112.645 61.1477 113.043 61.4876 113.33C61.8274 113.617 62.2639 113.761 62.7971 113.761ZM71.5419 115H69.9159V101.5H71.5419V115ZM77.6236 112.618L79.8384 105.49H81.5787L77.7554 116.468C77.1636 118.05 76.2232 118.841 74.9341 118.841L74.6265 118.814L74.0201 118.7V117.382L74.4595 117.417C75.0103 117.417 75.438 117.306 75.7427 117.083C76.0533 116.86 76.3082 116.453 76.5074 115.861L76.8677 114.895L73.4752 105.49H75.2505L77.6236 112.618ZM85.6037 103.188V105.49H87.3791V106.747H85.6037V112.645C85.6037 113.025 85.6828 113.312 85.841 113.506C85.9992 113.693 86.2687 113.787 86.6496 113.787C86.8371 113.787 87.0949 113.752 87.423 113.682V115C86.9953 115.117 86.5793 115.176 86.175 115.176C85.4484 115.176 84.9006 114.956 84.5314 114.517C84.1623 114.077 83.9777 113.453 83.9777 112.645V106.747H82.2463V105.49H83.9777V103.188H85.6037ZM91.4129 115H89.787V105.49H91.4129V115ZM89.6551 102.968C89.6551 102.704 89.7342 102.481 89.8924 102.3C90.0565 102.118 90.2967 102.027 90.6131 102.027C90.9295 102.027 91.1698 102.118 91.3338 102.3C91.4979 102.481 91.5799 102.704 91.5799 102.968C91.5799 103.231 91.4979 103.451 91.3338 103.627C91.1698 103.803 90.9295 103.891 90.6131 103.891C90.2967 103.891 90.0565 103.803 89.8924 103.627C89.7342 103.451 89.6551 103.231 89.6551 102.968ZM98.1977 113.849C98.7778 113.849 99.2846 113.673 99.7182 113.321C100.152 112.97 100.392 112.53 100.439 112.003H101.977C101.948 112.548 101.76 113.066 101.415 113.559C101.069 114.051 100.606 114.443 100.026 114.736C99.4516 115.029 98.8423 115.176 98.1977 115.176C96.9028 115.176 95.8716 114.745 95.104 113.884C94.3423 113.017 93.9614 111.833 93.9614 110.333V110.061C93.9614 109.135 94.1313 108.312 94.4712 107.591C94.811 106.87 95.2973 106.311 95.9302 105.912C96.5688 105.514 97.3218 105.314 98.1889 105.314C99.2554 105.314 100.14 105.634 100.843 106.272C101.552 106.911 101.93 107.74 101.977 108.76H100.439C100.392 108.145 100.158 107.641 99.7358 107.248C99.3198 106.85 98.8042 106.65 98.1889 106.65C97.3628 106.65 96.7212 106.949 96.2641 107.547C95.813 108.139 95.5874 108.997 95.5874 110.122V110.43C95.5874 111.525 95.813 112.369 96.2641 112.961C96.7153 113.553 97.3598 113.849 98.1977 113.849ZM109.702 112.478C109.702 112.038 109.535 111.698 109.201 111.458C108.873 111.212 108.296 111.001 107.47 110.825C106.65 110.649 105.996 110.438 105.51 110.192C105.029 109.946 104.672 109.653 104.438 109.313C104.209 108.974 104.095 108.569 104.095 108.101C104.095 107.321 104.423 106.662 105.079 106.123C105.741 105.584 106.585 105.314 107.61 105.314C108.689 105.314 109.562 105.593 110.23 106.149C110.903 106.706 111.24 107.418 111.24 108.285H109.606C109.606 107.84 109.415 107.456 109.034 107.134C108.659 106.812 108.185 106.65 107.61 106.65C107.019 106.65 106.556 106.779 106.222 107.037C105.888 107.295 105.721 107.632 105.721 108.048C105.721 108.44 105.876 108.736 106.187 108.936C106.497 109.135 107.057 109.325 107.865 109.507C108.68 109.688 109.339 109.905 109.843 110.157C110.347 110.409 110.719 110.714 110.959 111.071C111.205 111.423 111.328 111.854 111.328 112.363C111.328 113.213 110.988 113.896 110.309 114.411C109.629 114.921 108.747 115.176 107.663 115.176C106.901 115.176 106.228 115.041 105.642 114.771C105.056 114.502 104.596 114.127 104.262 113.646C103.934 113.16 103.77 112.636 103.77 112.073H105.396C105.425 112.618 105.642 113.052 106.046 113.374C106.456 113.69 106.995 113.849 107.663 113.849C108.278 113.849 108.771 113.726 109.14 113.479C109.515 113.228 109.702 112.894 109.702 112.478ZM124.168 112.478C124.168 112.038 124.001 111.698 123.667 111.458C123.339 111.212 122.762 111.001 121.936 110.825C121.116 110.649 120.462 110.438 119.976 110.192C119.496 109.946 119.138 109.653 118.904 109.313C118.675 108.974 118.561 108.569 118.561 108.101C118.561 107.321 118.889 106.662 119.545 106.123C120.207 105.584 121.051 105.314 122.077 105.314C123.155 105.314 124.028 105.593 124.696 106.149C125.37 106.706 125.706 107.418 125.706 108.285H124.072C124.072 107.84 123.881 107.456 123.5 107.134C123.125 106.812 122.651 106.65 122.077 106.65C121.485 106.65 121.022 106.779 120.688 107.037C120.354 107.295 120.187 107.632 120.187 108.048C120.187 108.44 120.342 108.736 120.653 108.936C120.963 109.135 121.523 109.325 122.331 109.507C123.146 109.688 123.805 109.905 124.309 110.157C124.813 110.409 125.185 110.714 125.425 111.071C125.671 111.423 125.794 111.854 125.794 112.363C125.794 113.213 125.454 113.896 124.775 114.411C124.095 114.921 123.213 115.176 122.129 115.176C121.368 115.176 120.694 115.041 120.108 114.771C119.522 114.502 119.062 114.127 118.728 113.646C118.4 113.16 118.236 112.636 118.236 112.073H119.862C119.891 112.618 120.108 113.052 120.512 113.374C120.922 113.69 121.461 113.849 122.129 113.849C122.745 113.849 123.237 113.726 123.606 113.479C123.981 113.228 124.168 112.894 124.168 112.478ZM127.842 110.157C127.842 109.226 128.023 108.388 128.387 107.644C128.756 106.899 129.266 106.325 129.916 105.921C130.572 105.517 131.319 105.314 132.157 105.314C133.452 105.314 134.498 105.763 135.295 106.659C136.098 107.556 136.499 108.748 136.499 110.236V110.351C136.499 111.276 136.32 112.108 135.963 112.847C135.611 113.579 135.105 114.15 134.442 114.561C133.786 114.971 133.03 115.176 132.175 115.176C130.886 115.176 129.84 114.728 129.037 113.831C128.24 112.935 127.842 111.748 127.842 110.271V110.157ZM129.477 110.351C129.477 111.405 129.72 112.252 130.206 112.891C130.698 113.529 131.355 113.849 132.175 113.849C133.001 113.849 133.657 113.526 134.144 112.882C134.63 112.231 134.873 111.323 134.873 110.157C134.873 109.114 134.624 108.271 134.126 107.626C133.634 106.976 132.978 106.65 132.157 106.65C131.355 106.65 130.707 106.97 130.215 107.608C129.723 108.247 129.477 109.161 129.477 110.351ZM140.665 115H139.039V101.5H140.665V115ZM149.506 114.06C148.873 114.804 147.945 115.176 146.72 115.176C145.706 115.176 144.933 114.883 144.4 114.297C143.872 113.705 143.606 112.832 143.6 111.678V105.49H145.226V111.634C145.226 113.075 145.812 113.796 146.984 113.796C148.226 113.796 149.052 113.333 149.462 112.407V105.49H151.088V115H149.541L149.506 114.06ZM156.133 103.188V105.49H157.908V106.747H156.133V112.645C156.133 113.025 156.212 113.312 156.37 113.506C156.528 113.693 156.798 113.787 157.179 113.787C157.366 113.787 157.624 113.752 157.952 113.682V115C157.524 115.117 157.108 115.176 156.704 115.176C155.978 115.176 155.43 114.956 155.061 114.517C154.691 114.077 154.507 113.453 154.507 112.645V106.747H152.775V105.49H154.507V103.188H156.133ZM161.942 115H160.316V105.49H161.942V115ZM160.184 102.968C160.184 102.704 160.263 102.481 160.421 102.3C160.586 102.118 160.826 102.027 161.142 102.027C161.459 102.027 161.699 102.118 161.863 102.3C162.027 102.481 162.109 102.704 162.109 102.968C162.109 103.231 162.027 103.451 161.863 103.627C161.699 103.803 161.459 103.891 161.142 103.891C160.826 103.891 160.586 103.803 160.421 103.627C160.263 103.451 160.184 103.231 160.184 102.968ZM164.482 110.157C164.482 109.226 164.663 108.388 165.027 107.644C165.396 106.899 165.906 106.325 166.556 105.921C167.212 105.517 167.959 105.314 168.797 105.314C170.092 105.314 171.138 105.763 171.935 106.659C172.738 107.556 173.139 108.748 173.139 110.236V110.351C173.139 111.276 172.96 112.108 172.603 112.847C172.251 113.579 171.744 114.15 171.082 114.561C170.426 114.971 169.67 115.176 168.815 115.176C167.526 115.176 166.48 114.728 165.677 113.831C164.88 112.935 164.482 111.748 164.482 110.271V110.157ZM166.116 110.351C166.116 111.405 166.36 112.252 166.846 112.891C167.338 113.529 167.994 113.849 168.815 113.849C169.641 113.849 170.297 113.526 170.783 112.882C171.27 112.231 171.513 111.323 171.513 110.157C171.513 109.114 171.264 108.271 170.766 107.626C170.274 106.976 169.617 106.65 168.797 106.65C167.994 106.65 167.347 106.97 166.855 107.608C166.363 108.247 166.116 109.161 166.116 110.351ZM177.076 105.49L177.129 106.686C177.855 105.771 178.805 105.314 179.976 105.314C181.986 105.314 183 106.448 183.017 108.716V115H181.391V108.707C181.386 108.021 181.227 107.515 180.917 107.187C180.612 106.858 180.135 106.694 179.484 106.694C178.957 106.694 178.494 106.835 178.096 107.116C177.697 107.397 177.387 107.767 177.164 108.224V115H175.538V105.49H177.076ZM191.367 112.478C191.367 112.038 191.2 111.698 190.866 111.458C190.538 111.212 189.96 111.001 189.134 110.825C188.314 110.649 187.661 110.438 187.174 110.192C186.694 109.946 186.336 109.653 186.102 109.313C185.874 108.974 185.759 108.569 185.759 108.101C185.759 107.321 186.087 106.662 186.744 106.123C187.406 105.584 188.25 105.314 189.275 105.314C190.353 105.314 191.226 105.593 191.894 106.149C192.568 106.706 192.905 107.418 192.905 108.285H191.27C191.27 107.84 191.08 107.456 190.699 107.134C190.324 106.812 189.849 106.65 189.275 106.65C188.683 106.65 188.22 106.779 187.886 107.037C187.552 107.295 187.385 107.632 187.385 108.048C187.385 108.44 187.541 108.736 187.851 108.936C188.162 109.135 188.721 109.325 189.53 109.507C190.344 109.688 191.003 109.905 191.507 110.157C192.011 110.409 192.383 110.714 192.624 111.071C192.87 111.423 192.993 111.854 192.993 112.363C192.993 113.213 192.653 113.896 191.973 114.411C191.293 114.921 190.412 115.176 189.328 115.176C188.566 115.176 187.892 115.041 187.306 114.771C186.72 114.502 186.26 114.127 185.926 113.646C185.598 113.16 185.434 112.636 185.434 112.073H187.06C187.089 112.618 187.306 113.052 187.71 113.374C188.121 113.69 188.66 113.849 189.328 113.849C189.943 113.849 190.435 113.726 190.804 113.479C191.179 113.228 191.367 112.894 191.367 112.478ZM201.096 115V106.747H199.593V105.49H201.096V104.515C201.096 103.495 201.368 102.707 201.913 102.15C202.458 101.594 203.228 101.315 204.224 101.315C204.599 101.315 204.971 101.365 205.341 101.465L205.253 102.783C204.977 102.73 204.684 102.704 204.374 102.704C203.846 102.704 203.439 102.859 203.152 103.17C202.865 103.475 202.721 103.914 202.721 104.488V105.49H204.752V106.747H202.721V115H201.096ZM206.483 110.157C206.483 109.226 206.664 108.388 207.028 107.644C207.397 106.899 207.907 106.325 208.557 105.921C209.213 105.517 209.96 105.314 210.798 105.314C212.093 105.314 213.139 105.763 213.936 106.659C214.739 107.556 215.14 108.748 215.14 110.236V110.351C215.14 111.276 214.961 112.108 214.604 112.847C214.252 113.579 213.746 114.15 213.083 114.561C212.427 114.971 211.671 115.176 210.816 115.176C209.527 115.176 208.481 114.728 207.678 113.831C206.881 112.935 206.483 111.748 206.483 110.271V110.157ZM208.118 110.351C208.118 111.405 208.361 112.252 208.847 112.891C209.339 113.529 209.996 113.849 210.816 113.849C211.642 113.849 212.298 113.526 212.785 112.882C213.271 112.231 213.514 111.323 213.514 110.157C213.514 109.114 213.265 108.271 212.767 107.626C212.275 106.976 211.619 106.65 210.798 106.65C209.996 106.65 209.348 106.97 208.856 107.608C208.364 108.247 208.118 109.161 208.118 110.351ZM222.136 106.949C221.89 106.908 221.623 106.888 221.336 106.888C220.27 106.888 219.546 107.342 219.165 108.25V115H217.539V105.49H219.121L219.148 106.589C219.681 105.739 220.437 105.314 221.415 105.314C221.732 105.314 221.972 105.355 222.136 105.438V106.949ZM229.078 115V102.203H233.262C234.651 102.203 235.694 102.49 236.391 103.064C237.094 103.639 237.446 104.488 237.446 105.613C237.446 106.211 237.276 106.741 236.936 107.204C236.596 107.661 236.133 108.016 235.547 108.268C236.239 108.461 236.784 108.83 237.182 109.375C237.586 109.914 237.788 110.559 237.788 111.309C237.788 112.457 237.416 113.359 236.672 114.016C235.928 114.672 234.876 115 233.517 115H229.078ZM230.766 109.015V113.62H233.552C234.337 113.62 234.955 113.418 235.407 113.014C235.864 112.604 236.092 112.041 236.092 111.326C236.092 109.785 235.254 109.015 233.578 109.015H230.766ZM230.766 107.661H233.315C234.053 107.661 234.642 107.477 235.081 107.107C235.527 106.738 235.749 106.237 235.749 105.604C235.749 104.901 235.544 104.392 235.134 104.075C234.724 103.753 234.1 103.592 233.262 103.592H230.766V107.661ZM248.616 115H240.231V113.831L244.661 108.909C245.317 108.165 245.769 107.562 246.015 107.099C246.267 106.63 246.393 106.146 246.393 105.648C246.393 104.98 246.19 104.433 245.786 104.005C245.382 103.577 244.843 103.363 244.169 103.363C243.36 103.363 242.73 103.595 242.279 104.058C241.834 104.515 241.611 105.153 241.611 105.974H239.985C239.985 104.796 240.363 103.844 241.119 103.117C241.881 102.391 242.897 102.027 244.169 102.027C245.358 102.027 246.299 102.341 246.99 102.968C247.682 103.589 248.027 104.418 248.027 105.455C248.027 106.715 247.225 108.215 245.619 109.955L242.191 113.673H248.616V115ZM251.121 115V102.203H255.304C256.693 102.203 257.736 102.49 258.433 103.064C259.136 103.639 259.488 104.488 259.488 105.613C259.488 106.211 259.318 106.741 258.978 107.204C258.638 107.661 258.175 108.016 257.589 108.268C258.281 108.461 258.826 108.83 259.224 109.375C259.629 109.914 259.831 110.559 259.831 111.309C259.831 112.457 259.459 113.359 258.714 114.016C257.97 114.672 256.919 115 255.559 115H251.121ZM252.808 109.015V113.62H255.594C256.38 113.62 256.998 113.418 257.449 113.014C257.906 112.604 258.134 112.041 258.134 111.326C258.134 109.785 257.297 109.015 255.621 109.015H252.808ZM252.808 107.661H255.357C256.095 107.661 256.684 107.477 257.124 107.107C257.569 106.738 257.792 106.237 257.792 105.604C257.792 104.901 257.587 104.392 257.176 104.075C256.766 103.753 256.142 103.592 255.304 103.592H252.808V107.661ZM276.934 110.939C276.775 112.293 276.274 113.339 275.431 114.077C274.593 114.81 273.476 115.176 272.082 115.176C270.57 115.176 269.357 114.634 268.443 113.55C267.535 112.466 267.081 111.016 267.081 109.199V107.969C267.081 106.779 267.292 105.733 267.714 104.831C268.142 103.929 268.745 103.237 269.524 102.757C270.304 102.271 271.206 102.027 272.231 102.027C273.591 102.027 274.681 102.408 275.501 103.17C276.321 103.926 276.799 104.975 276.934 106.316H275.237C275.091 105.297 274.771 104.559 274.279 104.102C273.793 103.645 273.11 103.416 272.231 103.416C271.153 103.416 270.307 103.814 269.691 104.611C269.082 105.408 268.777 106.542 268.777 108.013V109.252C268.777 110.641 269.067 111.745 269.647 112.565C270.227 113.386 271.039 113.796 272.082 113.796C273.019 113.796 273.737 113.585 274.235 113.163C274.739 112.735 275.073 111.994 275.237 110.939H276.934ZM281.117 115H279.491V101.5H281.117V115ZM283.656 110.157C283.656 109.226 283.838 108.388 284.201 107.644C284.571 106.899 285.08 106.325 285.731 105.921C286.387 105.517 287.134 105.314 287.972 105.314C289.267 105.314 290.313 105.763 291.11 106.659C291.912 107.556 292.314 108.748 292.314 110.236V110.351C292.314 111.276 292.135 112.108 291.778 112.847C291.426 113.579 290.919 114.15 290.257 114.561C289.601 114.971 288.845 115.176 287.989 115.176C286.7 115.176 285.654 114.728 284.852 113.831C284.055 112.935 283.656 111.748 283.656 110.271V110.157ZM285.291 110.351C285.291 111.405 285.534 112.252 286.021 112.891C286.513 113.529 287.169 113.849 287.989 113.849C288.816 113.849 289.472 113.526 289.958 112.882C290.445 112.231 290.688 111.323 290.688 110.157C290.688 109.114 290.439 108.271 289.941 107.626C289.448 106.976 288.792 106.65 287.972 106.65C287.169 106.65 286.522 106.97 286.029 107.608C285.537 108.247 285.291 109.161 285.291 110.351ZM300.584 114.06C299.951 114.804 299.022 115.176 297.798 115.176C296.784 115.176 296.011 114.883 295.477 114.297C294.95 113.705 294.683 112.832 294.678 111.678V105.49H296.304V111.634C296.304 113.075 296.889 113.796 298.061 113.796C299.304 113.796 300.13 113.333 300.54 112.407V105.49H302.166V115H300.619L300.584 114.06ZM304.609 110.166C304.609 108.707 304.955 107.535 305.646 106.65C306.337 105.76 307.243 105.314 308.362 105.314C309.475 105.314 310.357 105.695 311.007 106.457V101.5H312.633V115H311.139L311.06 113.98C310.41 114.777 309.504 115.176 308.344 115.176C307.243 115.176 306.343 114.725 305.646 113.822C304.955 112.92 304.609 111.742 304.609 110.289V110.166ZM306.235 110.351C306.235 111.429 306.457 112.272 306.903 112.882C307.348 113.491 307.963 113.796 308.749 113.796C309.78 113.796 310.533 113.333 311.007 112.407V108.039C310.521 107.143 309.774 106.694 308.766 106.694C307.969 106.694 307.348 107.002 306.903 107.617C306.457 108.232 306.235 109.144 306.235 110.351ZM324.841 112.759L328.497 102.203H330.343L325.596 115H324.102L319.365 102.203H321.202L324.841 112.759ZM335.73 115.176C334.441 115.176 333.392 114.754 332.583 113.91C331.775 113.061 331.371 111.927 331.371 110.509V110.21C331.371 109.267 331.549 108.426 331.907 107.688C332.27 106.943 332.774 106.363 333.418 105.947C334.069 105.525 334.772 105.314 335.528 105.314C336.764 105.314 337.725 105.722 338.411 106.536C339.096 107.351 339.439 108.517 339.439 110.034V110.711H332.996C333.02 111.648 333.292 112.407 333.814 112.987C334.341 113.562 335.009 113.849 335.818 113.849C336.392 113.849 336.878 113.731 337.277 113.497C337.675 113.263 338.024 112.952 338.323 112.565L339.316 113.339C338.519 114.563 337.324 115.176 335.73 115.176ZM335.528 106.65C334.871 106.65 334.321 106.891 333.875 107.371C333.43 107.846 333.155 108.514 333.049 109.375H337.813V109.252C337.766 108.426 337.543 107.787 337.145 107.336C336.746 106.879 336.207 106.65 335.528 106.65ZM343.227 105.49L343.279 106.686C344.006 105.771 344.955 105.314 346.127 105.314C348.137 105.314 349.15 106.448 349.168 108.716V115H347.542V108.707C347.536 108.021 347.378 107.515 347.067 107.187C346.763 106.858 346.285 106.694 345.635 106.694C345.107 106.694 344.645 106.835 344.246 107.116C343.848 107.397 343.537 107.767 343.314 108.224V115H341.689V105.49H343.227ZM351.585 110.166C351.585 108.707 351.93 107.535 352.622 106.65C353.313 105.76 354.218 105.314 355.338 105.314C356.451 105.314 357.333 105.695 357.983 106.457V101.5H359.609V115H358.115L358.036 113.98C357.385 114.777 356.48 115.176 355.32 115.176C354.218 115.176 353.319 114.725 352.622 113.822C351.93 112.92 351.585 111.742 351.585 110.289V110.166ZM353.211 110.351C353.211 111.429 353.433 112.272 353.879 112.882C354.324 113.491 354.939 113.796 355.724 113.796C356.756 113.796 357.508 113.333 357.983 112.407V108.039C357.497 107.143 356.75 106.694 355.742 106.694C354.945 106.694 354.324 107.002 353.879 107.617C353.433 108.232 353.211 109.144 353.211 110.351ZM362.07 110.157C362.07 109.226 362.251 108.388 362.615 107.644C362.984 106.899 363.493 106.325 364.144 105.921C364.8 105.517 365.547 105.314 366.385 105.314C367.68 105.314 368.726 105.763 369.523 106.659C370.326 107.556 370.727 108.748 370.727 110.236V110.351C370.727 111.276 370.548 112.108 370.191 112.847C369.839 113.579 369.332 114.15 368.67 114.561C368.014 114.971 367.258 115.176 366.403 115.176C365.114 115.176 364.068 114.728 363.265 113.831C362.468 112.935 362.07 111.748 362.07 110.271V110.157ZM363.704 110.351C363.704 111.405 363.948 112.252 364.434 112.891C364.926 113.529 365.582 113.849 366.403 113.849C367.229 113.849 367.885 113.526 368.371 112.882C368.858 112.231 369.101 111.323 369.101 110.157C369.101 109.114 368.852 108.271 368.354 107.626C367.862 106.976 367.205 106.65 366.385 106.65C365.582 106.65 364.935 106.97 364.443 107.608C363.951 108.247 363.704 109.161 363.704 110.351ZM377.723 106.949C377.477 106.908 377.21 106.888 376.923 106.888C375.856 106.888 375.133 107.342 374.752 108.25V115H373.126V105.49H374.708L374.734 106.589C375.268 105.739 376.023 105.314 377.002 105.314C377.318 105.314 377.559 105.355 377.723 105.438V106.949ZM385.123 112.478C385.123 112.038 384.956 111.698 384.622 111.458C384.294 111.212 383.716 111.001 382.89 110.825C382.07 110.649 381.417 110.438 380.93 110.192C380.45 109.946 380.092 109.653 379.858 109.313C379.629 108.974 379.515 108.569 379.515 108.101C379.515 107.321 379.843 106.662 380.5 106.123C381.162 105.584 382.005 105.314 383.031 105.314C384.109 105.314 384.982 105.593 385.65 106.149C386.324 106.706 386.661 107.418 386.661 108.285H385.026C385.026 107.84 384.836 107.456 384.455 107.134C384.08 106.812 383.605 106.65 383.031 106.65C382.439 106.65 381.976 106.779 381.642 107.037C381.308 107.295 381.141 107.632 381.141 108.048C381.141 108.44 381.296 108.736 381.607 108.936C381.918 109.135 382.477 109.325 383.286 109.507C384.1 109.688 384.759 109.905 385.263 110.157C385.767 110.409 386.139 110.714 386.379 111.071C386.626 111.423 386.749 111.854 386.749 112.363C386.749 113.213 386.409 113.896 385.729 114.411C385.049 114.921 384.168 115.176 383.084 115.176C382.322 115.176 381.648 115.041 381.062 114.771C380.476 114.502 380.016 114.127 379.682 113.646C379.354 113.16 379.19 112.636 379.19 112.073H380.816C380.845 112.618 381.062 113.052 381.466 113.374C381.877 113.69 382.416 113.849 383.084 113.849C383.699 113.849 384.191 113.726 384.56 113.479C384.935 113.228 385.123 112.894 385.123 112.478Z" fill="#132144"/>
<path d="M232.285 191.508L212.492 237H201.77L221.598 194.039H196.145V185.812H232.285V191.508ZM273.629 191.508L253.836 237H243.113L262.941 194.039H237.488V185.812H273.629V191.508ZM280.027 195.656C280.027 192.516 281.047 189.973 283.086 188.027C285.125 186.059 287.797 185.074 291.102 185.074C294.453 185.074 297.148 186.047 299.188 187.992C301.227 189.914 302.246 192.527 302.246 195.832V198.363C302.246 201.527 301.227 204.07 299.188 205.992C297.148 207.914 294.477 208.875 291.172 208.875C287.844 208.875 285.148 207.914 283.086 205.992C281.047 204.047 280.027 201.434 280.027 198.152V195.656ZM286.777 198.363C286.777 199.77 287.176 200.906 287.973 201.773C288.793 202.617 289.859 203.039 291.172 203.039C292.484 203.039 293.527 202.605 294.301 201.738C295.074 200.871 295.461 199.711 295.461 198.258V195.656C295.461 194.25 295.074 193.113 294.301 192.246C293.527 191.379 292.461 190.945 291.102 190.945C289.812 190.945 288.77 191.379 287.973 192.246C287.176 193.09 286.777 194.273 286.777 195.797V198.363ZM304.496 224.449C304.496 221.285 305.527 218.742 307.59 216.82C309.652 214.875 312.324 213.902 315.605 213.902C318.934 213.902 321.617 214.863 323.656 216.785C325.719 218.684 326.75 221.309 326.75 224.66V227.191C326.75 230.332 325.742 232.875 323.727 234.82C321.711 236.742 319.027 237.703 315.676 237.703C312.301 237.703 309.594 236.73 307.555 234.785C305.516 232.84 304.496 230.262 304.496 227.051V224.449ZM311.246 227.191C311.246 228.48 311.668 229.582 312.512 230.496C313.355 231.41 314.41 231.867 315.676 231.867C318.535 231.867 319.965 230.285 319.965 227.121V224.449C319.965 223.043 319.566 221.918 318.77 221.074C317.973 220.207 316.918 219.773 315.605 219.773C314.293 219.773 313.238 220.207 312.441 221.074C311.645 221.918 311.246 223.078 311.246 224.555V227.191ZM293.176 233.168L288.219 230.496L313.215 190.488L318.172 193.16L293.176 233.168Z" fill="#377DFF"/>
<path d="M159.437 255.188V257.49H161.212V258.747H159.437V264.645C159.437 265.025 159.516 265.312 159.674 265.506C159.832 265.693 160.102 265.787 160.482 265.787C160.67 265.787 160.928 265.752 161.256 265.682V267C160.828 267.117 160.412 267.176 160.008 267.176C159.281 267.176 158.733 266.956 158.364 266.517C157.995 266.077 157.811 265.453 157.811 264.645V258.747H156.079V257.49H157.811V255.188H159.437ZM164.886 267H163.26V257.49H164.886V267ZM163.128 254.968C163.128 254.704 163.207 254.481 163.365 254.3C163.529 254.118 163.77 254.027 164.086 254.027C164.402 254.027 164.643 254.118 164.807 254.3C164.971 254.481 165.053 254.704 165.053 254.968C165.053 255.231 164.971 255.451 164.807 255.627C164.643 255.803 164.402 255.891 164.086 255.891C163.77 255.891 163.529 255.803 163.365 255.627C163.207 255.451 163.128 255.231 163.128 254.968ZM169.025 257.49L169.069 258.545C169.767 257.725 170.707 257.314 171.891 257.314C173.221 257.314 174.126 257.824 174.606 258.844C174.923 258.387 175.333 258.018 175.837 257.736C176.347 257.455 176.947 257.314 177.639 257.314C179.725 257.314 180.785 258.419 180.82 260.628V267H179.194V260.725C179.194 260.045 179.039 259.538 178.729 259.204C178.418 258.864 177.896 258.694 177.164 258.694C176.561 258.694 176.06 258.876 175.661 259.239C175.263 259.597 175.031 260.08 174.967 260.689V267H173.332V260.769C173.332 259.386 172.655 258.694 171.302 258.694C170.235 258.694 169.506 259.148 169.113 260.057V267H167.487V257.49H169.025ZM187.228 267.176C185.938 267.176 184.89 266.754 184.081 265.91C183.272 265.061 182.868 263.927 182.868 262.509V262.21C182.868 261.267 183.047 260.426 183.404 259.688C183.768 258.943 184.271 258.363 184.916 257.947C185.566 257.525 186.27 257.314 187.025 257.314C188.262 257.314 189.223 257.722 189.908 258.536C190.594 259.351 190.937 260.517 190.937 262.034V262.711H184.494C184.518 263.648 184.79 264.407 185.312 264.987C185.839 265.562 186.507 265.849 187.315 265.849C187.89 265.849 188.376 265.731 188.774 265.497C189.173 265.263 189.521 264.952 189.82 264.565L190.813 265.339C190.017 266.563 188.821 267.176 187.228 267.176ZM187.025 258.65C186.369 258.65 185.818 258.891 185.373 259.371C184.928 259.846 184.652 260.514 184.547 261.375H189.311V261.252C189.264 260.426 189.041 259.787 188.643 259.336C188.244 258.879 187.705 258.65 187.025 258.65ZM202.828 264.478C202.828 264.038 202.661 263.698 202.327 263.458C201.999 263.212 201.422 263.001 200.596 262.825C199.775 262.649 199.122 262.438 198.636 262.192C198.155 261.946 197.798 261.653 197.563 261.313C197.335 260.974 197.221 260.569 197.221 260.101C197.221 259.321 197.549 258.662 198.205 258.123C198.867 257.584 199.711 257.314 200.736 257.314C201.814 257.314 202.688 257.593 203.355 258.149C204.029 258.706 204.366 259.418 204.366 260.285H202.731C202.731 259.84 202.541 259.456 202.16 259.134C201.785 258.812 201.311 258.65 200.736 258.65C200.145 258.65 199.682 258.779 199.348 259.037C199.014 259.295 198.847 259.632 198.847 260.048C198.847 260.44 199.002 260.736 199.312 260.936C199.623 261.135 200.183 261.325 200.991 261.507C201.806 261.688 202.465 261.905 202.969 262.157C203.473 262.409 203.845 262.714 204.085 263.071C204.331 263.423 204.454 263.854 204.454 264.363C204.454 265.213 204.114 265.896 203.435 266.411C202.755 266.921 201.873 267.176 200.789 267.176C200.027 267.176 199.354 267.041 198.768 266.771C198.182 266.502 197.722 266.127 197.388 265.646C197.06 265.16 196.896 264.636 196.896 264.073H198.521C198.551 264.618 198.768 265.052 199.172 265.374C199.582 265.69 200.121 265.849 200.789 265.849C201.404 265.849 201.896 265.726 202.266 265.479C202.641 265.228 202.828 264.894 202.828 264.478ZM212.443 267C212.35 266.812 212.273 266.479 212.215 265.998C211.459 266.783 210.557 267.176 209.508 267.176C208.57 267.176 207.8 266.912 207.196 266.385C206.599 265.852 206.3 265.178 206.3 264.363C206.3 263.373 206.675 262.605 207.425 262.061C208.181 261.51 209.241 261.234 210.606 261.234H212.188V260.487C212.188 259.919 212.019 259.468 211.679 259.134C211.339 258.794 210.838 258.624 210.176 258.624C209.596 258.624 209.109 258.771 208.717 259.063C208.324 259.356 208.128 259.711 208.128 260.127H206.493C206.493 259.652 206.66 259.195 206.994 258.756C207.334 258.311 207.791 257.959 208.365 257.701C208.945 257.443 209.581 257.314 210.272 257.314C211.368 257.314 212.227 257.59 212.848 258.141C213.469 258.686 213.791 259.438 213.814 260.399V264.776C213.814 265.649 213.926 266.344 214.148 266.859V267H212.443ZM209.745 265.761C210.255 265.761 210.738 265.629 211.195 265.365C211.652 265.102 211.983 264.759 212.188 264.337V262.386H210.914C208.922 262.386 207.926 262.969 207.926 264.135C207.926 264.645 208.096 265.043 208.436 265.33C208.775 265.617 209.212 265.761 209.745 265.761ZM219.36 264.794L221.716 257.49H223.377L219.967 267H218.728L215.282 257.49H216.943L219.36 264.794ZM228.765 267.176C227.476 267.176 226.427 266.754 225.618 265.91C224.81 265.061 224.405 263.927 224.405 262.509V262.21C224.405 261.267 224.584 260.426 224.941 259.688C225.305 258.943 225.809 258.363 226.453 257.947C227.104 257.525 227.807 257.314 228.562 257.314C229.799 257.314 230.76 257.722 231.445 258.536C232.131 259.351 232.474 260.517 232.474 262.034V262.711H226.031C226.055 263.648 226.327 264.407 226.849 264.987C227.376 265.562 228.044 265.849 228.853 265.849C229.427 265.849 229.913 265.731 230.312 265.497C230.71 265.263 231.059 264.952 231.357 264.565L232.351 265.339C231.554 266.563 230.358 267.176 228.765 267.176ZM228.562 258.65C227.906 258.65 227.355 258.891 226.91 259.371C226.465 259.846 226.189 260.514 226.084 261.375H230.848V261.252C230.801 260.426 230.578 259.787 230.18 259.336C229.781 258.879 229.242 258.65 228.562 258.65ZM233.968 262.166C233.968 260.707 234.313 259.535 235.005 258.65C235.696 257.76 236.602 257.314 237.721 257.314C238.834 257.314 239.716 257.695 240.366 258.457V253.5H241.992V267H240.498L240.419 265.98C239.769 266.777 238.863 267.176 237.703 267.176C236.602 267.176 235.702 266.725 235.005 265.822C234.313 264.92 233.968 263.742 233.968 262.289V262.166ZM235.594 262.351C235.594 263.429 235.816 264.272 236.262 264.882C236.707 265.491 237.322 265.796 238.107 265.796C239.139 265.796 239.892 265.333 240.366 264.407V260.039C239.88 259.143 239.133 258.694 238.125 258.694C237.328 258.694 236.707 259.002 236.262 259.617C235.816 260.232 235.594 261.144 235.594 262.351ZM257.021 262.351C257.021 263.798 256.69 264.964 256.028 265.849C255.366 266.733 254.47 267.176 253.339 267.176C252.185 267.176 251.276 266.81 250.614 266.077V270.656H248.988V257.49H250.474L250.553 258.545C251.215 257.725 252.135 257.314 253.312 257.314C254.455 257.314 255.357 257.745 256.02 258.606C256.688 259.468 257.021 260.666 257.021 262.201V262.351ZM255.396 262.166C255.396 261.094 255.167 260.247 254.71 259.626C254.253 259.005 253.626 258.694 252.829 258.694C251.845 258.694 251.106 259.131 250.614 260.004V264.548C251.101 265.415 251.845 265.849 252.847 265.849C253.626 265.849 254.244 265.541 254.701 264.926C255.164 264.305 255.396 263.385 255.396 262.166ZM263.042 267.176C261.753 267.176 260.704 266.754 259.896 265.91C259.087 265.061 258.683 263.927 258.683 262.509V262.21C258.683 261.267 258.861 260.426 259.219 259.688C259.582 258.943 260.086 258.363 260.73 257.947C261.381 257.525 262.084 257.314 262.84 257.314C264.076 257.314 265.037 257.722 265.723 258.536C266.408 259.351 266.751 260.517 266.751 262.034V262.711H260.309C260.332 263.648 260.604 264.407 261.126 264.987C261.653 265.562 262.321 265.849 263.13 265.849C263.704 265.849 264.19 265.731 264.589 265.497C264.987 265.263 265.336 264.952 265.635 264.565L266.628 265.339C265.831 266.563 264.636 267.176 263.042 267.176ZM262.84 258.65C262.184 258.65 261.633 258.891 261.188 259.371C260.742 259.846 260.467 260.514 260.361 261.375H265.125V261.252C265.078 260.426 264.855 259.787 264.457 259.336C264.059 258.879 263.52 258.65 262.84 258.65ZM273.237 258.949C272.991 258.908 272.725 258.888 272.438 258.888C271.371 258.888 270.647 259.342 270.267 260.25V267H268.641V257.49H270.223L270.249 258.589C270.782 257.739 271.538 257.314 272.517 257.314C272.833 257.314 273.073 257.355 273.237 257.438V258.949ZM283.151 267.176C281.862 267.176 280.813 266.754 280.005 265.91C279.196 265.061 278.792 263.927 278.792 262.509V262.21C278.792 261.267 278.971 260.426 279.328 259.688C279.691 258.943 280.195 258.363 280.84 257.947C281.49 257.525 282.193 257.314 282.949 257.314C284.186 257.314 285.146 257.722 285.832 258.536C286.518 259.351 286.86 260.517 286.86 262.034V262.711H280.418C280.441 263.648 280.714 264.407 281.235 264.987C281.763 265.562 282.431 265.849 283.239 265.849C283.813 265.849 284.3 265.731 284.698 265.497C285.097 265.263 285.445 264.952 285.744 264.565L286.737 265.339C285.94 266.563 284.745 267.176 283.151 267.176ZM282.949 258.65C282.293 258.65 281.742 258.891 281.297 259.371C280.852 259.846 280.576 260.514 280.471 261.375H285.234V261.252C285.188 260.426 284.965 259.787 284.566 259.336C284.168 258.879 283.629 258.65 282.949 258.65ZM291.765 264.794L294.12 257.49H295.781L292.371 267H291.132L287.687 257.49H289.348L291.765 264.794ZM303.076 267C302.982 266.812 302.906 266.479 302.848 265.998C302.092 266.783 301.189 267.176 300.141 267.176C299.203 267.176 298.433 266.912 297.829 266.385C297.231 265.852 296.933 265.178 296.933 264.363C296.933 263.373 297.308 262.605 298.058 262.061C298.813 261.51 299.874 261.234 301.239 261.234H302.821V260.487C302.821 259.919 302.651 259.468 302.312 259.134C301.972 258.794 301.471 258.624 300.809 258.624C300.229 258.624 299.742 258.771 299.35 259.063C298.957 259.356 298.761 259.711 298.761 260.127H297.126C297.126 259.652 297.293 259.195 297.627 258.756C297.967 258.311 298.424 257.959 298.998 257.701C299.578 257.443 300.214 257.314 300.905 257.314C302.001 257.314 302.859 257.59 303.48 258.141C304.102 258.686 304.424 259.438 304.447 260.399V264.776C304.447 265.649 304.559 266.344 304.781 266.859V267H303.076ZM300.378 265.761C300.888 265.761 301.371 265.629 301.828 265.365C302.285 265.102 302.616 264.759 302.821 264.337V262.386H301.547C299.555 262.386 298.559 262.969 298.559 264.135C298.559 264.645 298.729 265.043 299.068 265.33C299.408 265.617 299.845 265.761 300.378 265.761ZM308.763 267H307.137V253.5H308.763V267ZM317.244 266.06C316.611 266.804 315.683 267.176 314.458 267.176C313.444 267.176 312.671 266.883 312.138 266.297C311.61 265.705 311.344 264.832 311.338 263.678V257.49H312.964V263.634C312.964 265.075 313.55 265.796 314.722 265.796C315.964 265.796 316.79 265.333 317.2 264.407V257.49H318.826V267H317.279L317.244 266.06ZM327.176 267C327.082 266.812 327.006 266.479 326.947 265.998C326.191 266.783 325.289 267.176 324.24 267.176C323.303 267.176 322.532 266.912 321.929 266.385C321.331 265.852 321.032 265.178 321.032 264.363C321.032 263.373 321.407 262.605 322.157 262.061C322.913 261.51 323.974 261.234 325.339 261.234H326.921V260.487C326.921 259.919 326.751 259.468 326.411 259.134C326.071 258.794 325.57 258.624 324.908 258.624C324.328 258.624 323.842 258.771 323.449 259.063C323.057 259.356 322.86 259.711 322.86 260.127H321.226C321.226 259.652 321.393 259.195 321.727 258.756C322.066 258.311 322.523 257.959 323.098 257.701C323.678 257.443 324.313 257.314 325.005 257.314C326.101 257.314 326.959 257.59 327.58 258.141C328.201 258.686 328.523 259.438 328.547 260.399V264.776C328.547 265.649 328.658 266.344 328.881 266.859V267H327.176ZM324.478 265.761C324.987 265.761 325.471 265.629 325.928 265.365C326.385 265.102 326.716 264.759 326.921 264.337V262.386H325.646C323.654 262.386 322.658 262.969 322.658 264.135C322.658 264.645 322.828 265.043 323.168 265.33C323.508 265.617 323.944 265.761 324.478 265.761ZM333.302 255.188V257.49H335.077V258.747H333.302V264.645C333.302 265.025 333.381 265.312 333.539 265.506C333.697 265.693 333.967 265.787 334.348 265.787C334.535 265.787 334.793 265.752 335.121 265.682V267C334.693 267.117 334.277 267.176 333.873 267.176C333.146 267.176 332.599 266.956 332.229 266.517C331.86 266.077 331.676 265.453 331.676 264.645V258.747H329.944V257.49H331.676V255.188H333.302ZM338.751 267H337.125V257.49H338.751V267ZM336.993 254.968C336.993 254.704 337.072 254.481 337.23 254.3C337.395 254.118 337.635 254.027 337.951 254.027C338.268 254.027 338.508 254.118 338.672 254.3C338.836 254.481 338.918 254.704 338.918 254.968C338.918 255.231 338.836 255.451 338.672 255.627C338.508 255.803 338.268 255.891 337.951 255.891C337.635 255.891 337.395 255.803 337.23 255.627C337.072 255.451 336.993 255.231 336.993 254.968ZM340.931 262.157C340.931 261.226 341.112 260.388 341.476 259.644C341.845 258.899 342.354 258.325 343.005 257.921C343.661 257.517 344.408 257.314 345.246 257.314C346.541 257.314 347.587 257.763 348.384 258.659C349.187 259.556 349.588 260.748 349.588 262.236V262.351C349.588 263.276 349.409 264.108 349.052 264.847C348.7 265.579 348.193 266.15 347.531 266.561C346.875 266.971 346.119 267.176 345.264 267.176C343.975 267.176 342.929 266.728 342.126 265.831C341.329 264.935 340.931 263.748 340.931 262.271V262.157ZM342.565 262.351C342.565 263.405 342.809 264.252 343.295 264.891C343.787 265.529 344.443 265.849 345.264 265.849C346.09 265.849 346.746 265.526 347.232 264.882C347.719 264.231 347.962 263.323 347.962 262.157C347.962 261.114 347.713 260.271 347.215 259.626C346.723 258.976 346.066 258.65 345.246 258.65C344.443 258.65 343.796 258.97 343.304 259.608C342.812 260.247 342.565 261.161 342.565 262.351ZM353.165 257.49L353.218 258.686C353.944 257.771 354.894 257.314 356.065 257.314C358.075 257.314 359.089 258.448 359.106 260.716V267H357.48V260.707C357.475 260.021 357.316 259.515 357.006 259.187C356.701 258.858 356.224 258.694 355.573 258.694C355.046 258.694 354.583 258.835 354.185 259.116C353.786 259.397 353.476 259.767 353.253 260.224V267H351.627V257.49H353.165Z" fill="#132144"/>
<rect x="331" y="160" width="100" height="25" rx="10" fill="#132144"/>
<path d="M353.102 173.758H349.289V172.578H353.102V173.758ZM360.039 166.617V167.844H359.773C358.648 167.865 357.753 168.198 357.086 168.844C356.419 169.49 356.034 170.398 355.93 171.57C356.529 170.883 357.346 170.539 358.383 170.539C359.372 170.539 360.161 170.888 360.75 171.586C361.344 172.284 361.641 173.185 361.641 174.289C361.641 175.461 361.32 176.398 360.68 177.102C360.044 177.805 359.19 178.156 358.117 178.156C357.029 178.156 356.146 177.74 355.469 176.906C354.792 176.068 354.453 174.99 354.453 173.672V173.117C354.453 171.023 354.898 169.424 355.789 168.32C356.685 167.211 358.016 166.643 359.781 166.617H360.039ZM358.141 171.742C357.646 171.742 357.19 171.891 356.773 172.188C356.357 172.484 356.068 172.857 355.906 173.305V173.836C355.906 174.773 356.117 175.529 356.539 176.102C356.961 176.674 357.487 176.961 358.117 176.961C358.768 176.961 359.279 176.721 359.648 176.242C360.023 175.763 360.211 175.135 360.211 174.359C360.211 173.578 360.021 172.948 359.641 172.469C359.266 171.984 358.766 171.742 358.141 171.742ZM370.695 167.438L365.984 178H364.469L369.164 167.812H363.008V166.625H370.695V167.438ZM376.102 173.703C376.102 172.406 376.409 171.365 377.023 170.578C377.638 169.786 378.443 169.391 379.438 169.391C380.427 169.391 381.211 169.729 381.789 170.406V166H383.234V178H381.906L381.836 177.094C381.258 177.802 380.453 178.156 379.422 178.156C378.443 178.156 377.643 177.755 377.023 176.953C376.409 176.151 376.102 175.104 376.102 173.812V173.703ZM377.547 173.867C377.547 174.826 377.745 175.576 378.141 176.117C378.536 176.659 379.083 176.93 379.781 176.93C380.698 176.93 381.367 176.518 381.789 175.695V171.812C381.357 171.016 380.693 170.617 379.797 170.617C379.089 170.617 378.536 170.891 378.141 171.438C377.745 171.984 377.547 172.794 377.547 173.867ZM390.703 178C390.62 177.833 390.552 177.536 390.5 177.109C389.828 177.807 389.026 178.156 388.094 178.156C387.26 178.156 386.576 177.922 386.039 177.453C385.508 176.979 385.242 176.38 385.242 175.656C385.242 174.776 385.576 174.094 386.242 173.609C386.914 173.12 387.857 172.875 389.07 172.875H390.477V172.211C390.477 171.706 390.326 171.305 390.023 171.008C389.721 170.706 389.276 170.555 388.688 170.555C388.172 170.555 387.74 170.685 387.391 170.945C387.042 171.206 386.867 171.521 386.867 171.891H385.414C385.414 171.469 385.562 171.062 385.859 170.672C386.161 170.276 386.568 169.964 387.078 169.734C387.594 169.505 388.159 169.391 388.773 169.391C389.747 169.391 390.51 169.635 391.062 170.125C391.615 170.609 391.901 171.279 391.922 172.133V176.023C391.922 176.799 392.021 177.417 392.219 177.875V178H390.703ZM388.305 176.898C388.758 176.898 389.188 176.781 389.594 176.547C390 176.312 390.294 176.008 390.477 175.633V173.898H389.344C387.573 173.898 386.688 174.417 386.688 175.453C386.688 175.906 386.839 176.26 387.141 176.516C387.443 176.771 387.831 176.898 388.305 176.898ZM396.828 175.883L398.797 169.547H400.344L396.945 179.305C396.419 180.711 395.583 181.414 394.438 181.414L394.164 181.391L393.625 181.289V180.117L394.016 180.148C394.505 180.148 394.885 180.049 395.156 179.852C395.432 179.654 395.659 179.292 395.836 178.766L396.156 177.906L393.141 169.547H394.719L396.828 175.883ZM406.562 175.758C406.562 175.367 406.414 175.065 406.117 174.852C405.826 174.633 405.312 174.445 404.578 174.289C403.849 174.133 403.268 173.945 402.836 173.727C402.409 173.508 402.091 173.247 401.883 172.945C401.68 172.643 401.578 172.284 401.578 171.867C401.578 171.174 401.87 170.589 402.453 170.109C403.042 169.63 403.792 169.391 404.703 169.391C405.661 169.391 406.438 169.638 407.031 170.133C407.63 170.628 407.93 171.26 407.93 172.031H406.477C406.477 171.635 406.307 171.294 405.969 171.008C405.635 170.721 405.214 170.578 404.703 170.578C404.177 170.578 403.766 170.693 403.469 170.922C403.172 171.151 403.023 171.451 403.023 171.82C403.023 172.169 403.161 172.432 403.438 172.609C403.714 172.786 404.211 172.956 404.93 173.117C405.654 173.279 406.24 173.471 406.688 173.695C407.135 173.919 407.466 174.19 407.68 174.508C407.898 174.82 408.008 175.203 408.008 175.656C408.008 176.411 407.706 177.018 407.102 177.477C406.497 177.93 405.714 178.156 404.75 178.156C404.073 178.156 403.474 178.036 402.953 177.797C402.432 177.557 402.023 177.224 401.727 176.797C401.435 176.365 401.289 175.898 401.289 175.398H402.734C402.76 175.883 402.953 176.268 403.312 176.555C403.677 176.836 404.156 176.977 404.75 176.977C405.297 176.977 405.734 176.867 406.062 176.648C406.396 176.424 406.562 176.128 406.562 175.758Z" fill="white"/>
<path d="M266.406 355.391H285.438V363.594H266.406V385.156H257.688V363.594H238.656V355.391H257.688V335.469H266.406V355.391Z" fill="#132144"/>
<path d="M87.8254 415.475L83.7504 405.9C87.6754 404.45 91.3504 402.5 94.7504 400.225L87.8254 415.475ZM69.1004 391.25L59.5254 387.175L74.7754 380.25C72.5004 383.65 70.5504 387.325 69.1004 391.25ZM109.025 365.975C109.025 365.975 96.6504 360.673 82.5004 374.825C77.0254 380.3 73.7504 386.325 71.6254 391.6C70.9254 393.475 71.4004 395.525 72.7754 396.925L78.1004 402.225C79.4754 403.625 81.5254 404.075 83.4004 403.375C89.6968 400.974 95.4137 397.268 100.175 392.5C114.325 378.35 109.025 365.975 109.025 365.975ZM91.3504 383.65C89.4004 381.7 89.4004 378.525 91.3504 376.575C93.3004 374.625 96.4754 374.625 98.4254 376.575C100.35 378.525 100.375 381.7 98.4254 383.65C96.4754 385.6 93.3004 385.6 91.3504 383.65ZM77.2004 401.325L73.6754 397.8L77.2004 401.325ZM70.6004 415L79.7004 405.9C78.8504 405.675 78.0254 405.3 77.2754 404.775L67.0754 415H70.6004ZM60.0004 415H63.5254L75.4504 403.1L71.9004 399.575L60.0004 411.475V415ZM60.0004 407.925L70.2254 397.725C69.7004 396.975 69.3254 396.175 69.1004 395.3L60.0004 404.4V407.925Z" fill="#377DFF"/>
<path fill-rule="evenodd" clip-rule="evenodd" d="M448.785 403.596C443.695 403.596 438.525 400.44 435.507 396.262C421.029 396.262 420.592 417.871 420.592 417.871H476.974C476.974 417.871 478.111 396.166 461.829 396.166C458.815 400.396 453.874 403.596 448.785 403.596Z" fill="#377DFF"/>
<path fill-rule="evenodd" clip-rule="evenodd" d="M460.915 377.692C460.915 383.909 455.483 395.797 448.777 395.797C442.082 395.797 436.646 383.905 436.646 377.692C436.646 371.478 442.078 366.434 448.777 366.434C455.483 366.437 460.915 371.482 460.915 377.692Z" fill="#377DFF"/>
<path fill-rule="evenodd" clip-rule="evenodd" d="M466.328 372.327C466.328 371.161 464.775 370.221 462.848 370.214V367.813C462.848 367.455 462.979 359.081 448.819 359.081C434.666 359.081 434.796 367.455 434.796 367.813V370.298C434.761 370.298 434.733 370.287 434.701 370.287C432.785 370.287 431.242 371.213 431.242 372.36V382.515C431.242 383.655 432.788 384.584 434.701 384.584C436.614 384.584 438.167 383.655 438.167 382.515V372.36C438.167 372.201 438.072 372.057 438.015 371.91V369.141C438.015 368.886 436.999 362.566 448.819 362.566C460.642 362.566 459.414 368.886 459.414 369.141V372.057C459.393 372.15 459.326 372.231 459.326 372.327V382.714C459.326 383.883 460.889 384.831 462.827 384.831C462.869 384.831 462.901 384.816 462.943 384.816V388.611H459.47V392.187H466.363L466.328 372.327Z" fill="#377DFF"/>
<path d="M14.0723 438.588C14.0723 440.12 13.8073 441.467 13.2773 442.627C12.7474 443.78 11.9883 444.668 11 445.291C10.0189 445.907 8.88737 446.215 7.60547 446.215C6.33789 446.215 5.20638 445.907 4.21094 445.291C3.22266 444.668 2.45638 443.784 1.91211 442.638C1.375 441.492 1.10286 440.171 1.0957 438.674V437.793C1.0957 436.268 1.36426 434.921 1.90137 433.754C2.44564 432.587 3.20833 431.695 4.18945 431.079C5.17773 430.456 6.30924 430.145 7.58398 430.145C8.85872 430.145 9.98665 430.452 10.9678 431.068C11.9561 431.677 12.7188 432.558 13.2559 433.711C13.793 434.857 14.0651 436.192 14.0723 437.718V438.588ZM11.3545 437.771C11.3545 436.038 11.0251 434.71 10.3662 433.786C9.71452 432.862 8.78711 432.4 7.58398 432.4C6.40951 432.4 5.48926 432.862 4.82324 433.786C4.16439 434.703 3.8278 436.003 3.81348 437.686V438.588C3.81348 440.307 4.14648 441.635 4.8125 442.573C5.48568 443.511 6.41667 443.98 7.60547 443.98C8.80859 443.98 9.73242 443.522 10.377 442.605C11.0286 441.689 11.3545 440.35 11.3545 438.588V437.771ZM23.5684 444.861C22.8021 445.764 21.7135 446.215 20.3027 446.215C19.0423 446.215 18.0863 445.846 17.4346 445.108C16.79 444.371 16.4678 443.304 16.4678 441.907V434.377H19.0781V441.875C19.0781 443.35 19.6904 444.088 20.915 444.088C22.1826 444.088 23.0384 443.633 23.4824 442.724V434.377H26.0928V446H23.6328L23.5684 444.861ZM31.5283 446H28.918V434.377H31.5283V446ZM28.7568 431.358C28.7568 430.957 28.8822 430.624 29.1328 430.359C29.3906 430.094 29.7559 429.962 30.2285 429.962C30.7012 429.962 31.0664 430.094 31.3242 430.359C31.582 430.624 31.7109 430.957 31.7109 431.358C31.7109 431.752 31.582 432.082 31.3242 432.347C31.0664 432.604 30.7012 432.733 30.2285 432.733C29.7559 432.733 29.3906 432.604 29.1328 432.347C28.8822 432.082 28.7568 431.752 28.7568 431.358ZM39.1553 444.131C39.807 444.131 40.3477 443.941 40.7773 443.562C41.207 443.182 41.4362 442.713 41.4648 442.154H43.9248C43.8962 442.878 43.6706 443.554 43.248 444.185C42.8255 444.808 42.2526 445.302 41.5293 445.667C40.806 446.032 40.0254 446.215 39.1875 446.215C37.5618 446.215 36.2728 445.688 35.3203 444.636C34.3678 443.583 33.8916 442.129 33.8916 440.274V440.006C33.8916 438.237 34.3643 436.823 35.3096 435.763C36.2549 434.696 37.5439 434.162 39.1768 434.162C40.5589 434.162 41.6833 434.567 42.5498 435.376C43.4235 436.178 43.8818 437.234 43.9248 438.545H41.4648C41.4362 437.879 41.207 437.331 40.7773 436.901C40.3548 436.472 39.8141 436.257 39.1553 436.257C38.3102 436.257 37.6585 436.565 37.2002 437.181C36.7419 437.789 36.5091 438.717 36.502 439.963V440.382C36.502 441.642 36.7275 442.584 37.1787 443.207C37.637 443.823 38.2959 444.131 39.1553 444.131ZM49.6719 441.016L48.5117 442.208V446H45.9014V429.5H48.5117V439.018L49.3281 437.997L52.54 434.377H55.6768L51.3584 439.222L56.1387 446H53.1201L49.6719 441.016ZM72.2627 439.018H65.8389V443.83H73.3477V446H63.1211V430.359H73.2725V432.551H65.8389V436.869H72.2627V439.018ZM79.127 442.691L81.5869 434.377H84.2832L80.2549 446H77.9883L73.9277 434.377H76.6348L79.127 442.691ZM92.6943 446C92.5798 445.778 92.4795 445.416 92.3936 444.915C91.5628 445.782 90.5459 446.215 89.3428 446.215C88.1755 446.215 87.223 445.882 86.4854 445.216C85.7477 444.55 85.3789 443.726 85.3789 442.745C85.3789 441.506 85.8372 440.557 86.7539 439.898C87.6777 439.232 88.9954 438.899 90.707 438.899H92.3076V438.137C92.3076 437.535 92.1393 437.055 91.8027 436.697C91.4661 436.332 90.9541 436.149 90.2666 436.149C89.6722 436.149 89.1852 436.3 88.8057 436.601C88.4261 436.894 88.2363 437.27 88.2363 437.729H85.626C85.626 437.091 85.8372 436.497 86.2598 435.945C86.6823 435.387 87.2552 434.95 87.9785 434.635C88.709 434.32 89.5218 434.162 90.417 434.162C91.7777 434.162 92.8626 434.506 93.6719 435.193C94.4811 435.874 94.8965 436.833 94.918 438.072V443.314C94.918 444.36 95.0648 445.194 95.3584 445.817V446H92.6943ZM89.8262 444.12C90.3418 444.12 90.8252 443.995 91.2764 443.744C91.7347 443.493 92.0785 443.157 92.3076 442.734V440.543H90.9004C89.9336 440.543 89.2067 440.711 88.7197 441.048C88.2327 441.384 87.9893 441.861 87.9893 442.477C87.9893 442.978 88.154 443.379 88.4834 443.68C88.82 443.973 89.2676 444.12 89.8262 444.12ZM100.429 446H97.8184V429.5H100.429V446ZM110.322 444.861C109.556 445.764 108.467 446.215 107.057 446.215C105.796 446.215 104.84 445.846 104.188 445.108C103.544 444.371 103.222 443.304 103.222 441.907V434.377H105.832V441.875C105.832 443.35 106.444 444.088 107.669 444.088C108.937 444.088 109.792 443.633 110.236 442.724V434.377H112.847V446H110.387L110.322 444.861ZM122.45 446C122.336 445.778 122.235 445.416 122.149 444.915C121.319 445.782 120.302 446.215 119.099 446.215C117.931 446.215 116.979 445.882 116.241 445.216C115.504 444.55 115.135 443.726 115.135 442.745C115.135 441.506 115.593 440.557 116.51 439.898C117.434 439.232 118.751 438.899 120.463 438.899H122.063V438.137C122.063 437.535 121.895 437.055 121.559 436.697C121.222 436.332 120.71 436.149 120.022 436.149C119.428 436.149 118.941 436.3 118.562 436.601C118.182 436.894 117.992 437.27 117.992 437.729H115.382C115.382 437.091 115.593 436.497 116.016 435.945C116.438 435.387 117.011 434.95 117.734 434.635C118.465 434.32 119.278 434.162 120.173 434.162C121.534 434.162 122.618 434.506 123.428 435.193C124.237 435.874 124.652 436.833 124.674 438.072V443.314C124.674 444.36 124.821 445.194 125.114 445.817V446H122.45ZM119.582 444.12C120.098 444.12 120.581 443.995 121.032 443.744C121.491 443.493 121.834 443.157 122.063 442.734V440.543H120.656C119.689 440.543 118.963 440.711 118.476 441.048C117.989 441.384 117.745 441.861 117.745 442.477C117.745 442.978 117.91 443.379 118.239 443.68C118.576 443.973 119.023 444.12 119.582 444.12ZM130.679 431.552V434.377H132.73V436.311H130.679V442.799C130.679 443.243 130.765 443.565 130.937 443.766C131.116 443.959 131.431 444.056 131.882 444.056C132.183 444.056 132.487 444.02 132.795 443.948V445.968C132.201 446.132 131.628 446.215 131.076 446.215C129.071 446.215 128.068 445.108 128.068 442.896V436.311H126.156V434.377H128.068V431.552H130.679ZM137.511 446H134.9V434.377H137.511V446ZM134.739 431.358C134.739 430.957 134.865 430.624 135.115 430.359C135.373 430.094 135.738 429.962 136.211 429.962C136.684 429.962 137.049 430.094 137.307 430.359C137.564 430.624 137.693 430.957 137.693 431.358C137.693 431.752 137.564 432.082 137.307 432.347C137.049 432.604 136.684 432.733 136.211 432.733C135.738 432.733 135.373 432.604 135.115 432.347C134.865 432.082 134.739 431.752 134.739 431.358ZM139.874 440.081C139.874 438.942 140.1 437.918 140.551 437.009C141.002 436.092 141.636 435.39 142.452 434.903C143.269 434.409 144.207 434.162 145.267 434.162C146.835 434.162 148.106 434.667 149.08 435.677C150.061 436.687 150.591 438.026 150.67 439.694L150.681 440.307C150.681 441.452 150.459 442.477 150.015 443.379C149.578 444.281 148.948 444.979 148.124 445.474C147.308 445.968 146.362 446.215 145.288 446.215C143.648 446.215 142.334 445.671 141.346 444.582C140.365 443.486 139.874 442.029 139.874 440.21V440.081ZM142.484 440.307C142.484 441.503 142.731 442.441 143.226 443.121C143.72 443.794 144.407 444.131 145.288 444.131C146.169 444.131 146.853 443.787 147.34 443.1C147.834 442.412 148.081 441.406 148.081 440.081C148.081 438.907 147.827 437.976 147.318 437.288C146.817 436.601 146.133 436.257 145.267 436.257C144.414 436.257 143.738 436.597 143.236 437.277C142.735 437.951 142.484 438.96 142.484 440.307ZM155.311 434.377L155.386 435.72C156.245 434.681 157.373 434.162 158.77 434.162C161.19 434.162 162.422 435.548 162.465 438.319V446H159.854V438.47C159.854 437.732 159.693 437.188 159.371 436.837C159.056 436.479 158.537 436.3 157.813 436.3C156.761 436.3 155.977 436.776 155.461 437.729V446H152.851V434.377H155.311Z" fill="#132144"/>
<path d="M364.731 439.018H358.308V443.83H365.816V446H355.59V430.359H365.741V432.551H358.308V436.869H364.731V439.018ZM370.199 434.377L370.274 435.72C371.134 434.681 372.262 434.162 373.658 434.162C376.079 434.162 377.311 435.548 377.354 438.319V446H374.743V438.47C374.743 437.732 374.582 437.188 374.26 436.837C373.945 436.479 373.425 436.3 372.702 436.3C371.649 436.3 370.865 436.776 370.35 437.729V446H367.739V434.377H370.199ZM379.534 440.103C379.534 438.312 379.95 436.876 380.78 435.795C381.611 434.706 382.725 434.162 384.121 434.162C385.353 434.162 386.348 434.592 387.107 435.451V429.5H389.718V446H387.354L387.226 444.797C386.445 445.742 385.403 446.215 384.1 446.215C382.739 446.215 381.636 445.667 380.791 444.571C379.953 443.476 379.534 441.986 379.534 440.103ZM382.145 440.328C382.145 441.51 382.37 442.434 382.821 443.1C383.28 443.758 383.928 444.088 384.766 444.088C385.833 444.088 386.613 443.612 387.107 442.659V437.696C386.628 436.765 385.854 436.3 384.787 436.3C383.942 436.3 383.29 436.636 382.832 437.31C382.374 437.976 382.145 438.982 382.145 440.328ZM397.506 440.403H391.866V438.298H397.506V440.403ZM402.931 431.552V434.377H404.982V436.311H402.931V442.799C402.931 443.243 403.017 443.565 403.188 443.766C403.368 443.959 403.683 444.056 404.134 444.056C404.435 444.056 404.739 444.02 405.047 443.948V445.968C404.452 446.132 403.88 446.215 403.328 446.215C401.323 446.215 400.32 445.108 400.32 442.896V436.311H398.408V434.377H400.32V431.552H402.931ZM406.175 440.081C406.175 438.942 406.4 437.918 406.852 437.009C407.303 436.092 407.937 435.39 408.753 434.903C409.569 434.409 410.507 434.162 411.567 434.162C413.136 434.162 414.407 434.667 415.381 435.677C416.362 436.687 416.892 438.026 416.971 439.694L416.981 440.307C416.981 441.452 416.759 442.477 416.315 443.379C415.879 444.281 415.248 444.979 414.425 445.474C413.608 445.968 412.663 446.215 411.589 446.215C409.949 446.215 408.635 445.671 407.646 444.582C406.665 443.486 406.175 442.029 406.175 440.21V440.081ZM408.785 440.307C408.785 441.503 409.032 442.441 409.526 443.121C410.021 443.794 410.708 444.131 411.589 444.131C412.47 444.131 413.154 443.787 413.641 443.1C414.135 442.412 414.382 441.406 414.382 440.081C414.382 438.907 414.128 437.976 413.619 437.288C413.118 436.601 412.434 436.257 411.567 436.257C410.715 436.257 410.038 436.597 409.537 437.277C409.036 437.951 408.785 438.96 408.785 440.307ZM424.254 440.403H418.614V438.298H424.254V440.403ZM435.802 439.018H429.378V443.83H436.887V446H426.66V430.359H436.812V432.551H429.378V436.869H435.802V439.018ZM441.27 434.377L441.345 435.72C442.204 434.681 443.332 434.162 444.729 434.162C447.149 434.162 448.381 435.548 448.424 438.319V446H445.813V438.47C445.813 437.732 445.652 437.188 445.33 436.837C445.015 436.479 444.496 436.3 443.772 436.3C442.72 436.3 441.936 436.776 441.42 437.729V446H438.81V434.377H441.27ZM450.604 440.103C450.604 438.312 451.02 436.876 451.851 435.795C452.681 434.706 453.795 434.162 455.191 434.162C456.423 434.162 457.419 434.592 458.178 435.451V429.5H460.788V446H458.425L458.296 444.797C457.515 445.742 456.473 446.215 455.17 446.215C453.809 446.215 452.706 445.667 451.861 444.571C451.023 443.476 450.604 441.986 450.604 440.103ZM453.215 440.328C453.215 441.51 453.44 442.434 453.892 443.1C454.35 443.758 454.998 444.088 455.836 444.088C456.903 444.088 457.684 443.612 458.178 442.659V437.696C457.698 436.765 456.924 436.3 455.857 436.3C455.012 436.3 454.361 436.636 453.902 437.31C453.444 437.976 453.215 438.982 453.215 440.328ZM477.417 441.972C477.417 441.284 477.174 440.754 476.687 440.382C476.207 440.009 475.337 439.633 474.076 439.254C472.816 438.874 471.813 438.452 471.068 437.986C469.643 437.091 468.931 435.924 468.931 434.484C468.931 433.224 469.443 432.186 470.467 431.369C471.498 430.553 472.834 430.145 474.474 430.145C475.562 430.145 476.533 430.345 477.385 430.746C478.237 431.147 478.907 431.72 479.394 432.465C479.881 433.202 480.124 434.022 480.124 434.925H477.417C477.417 434.108 477.159 433.471 476.644 433.013C476.135 432.547 475.405 432.314 474.452 432.314C473.564 432.314 472.873 432.504 472.379 432.884C471.892 433.263 471.648 433.793 471.648 434.474C471.648 435.047 471.913 435.526 472.443 435.913C472.973 436.293 473.847 436.665 475.064 437.03C476.282 437.388 477.259 437.8 477.997 438.266C478.735 438.724 479.275 439.254 479.619 439.855C479.963 440.45 480.135 441.148 480.135 441.95C480.135 443.254 479.633 444.292 478.631 445.065C477.635 445.832 476.282 446.215 474.57 446.215C473.439 446.215 472.397 446.007 471.444 445.592C470.499 445.169 469.761 444.589 469.231 443.852C468.709 443.114 468.447 442.255 468.447 441.273H471.165C471.165 442.161 471.459 442.849 472.046 443.336C472.633 443.823 473.475 444.066 474.57 444.066C475.516 444.066 476.225 443.877 476.697 443.497C477.177 443.11 477.417 442.602 477.417 441.972ZM489.309 444.861C488.542 445.764 487.454 446.215 486.043 446.215C484.783 446.215 483.826 445.846 483.175 445.108C482.53 444.371 482.208 443.304 482.208 441.907V434.377H484.818V441.875C484.818 443.35 485.431 444.088 486.655 444.088C487.923 444.088 488.779 443.633 489.223 442.724V434.377H491.833V446H489.373L489.309 444.861ZM504.67 440.307C504.67 442.104 504.262 443.54 503.445 444.614C502.629 445.681 501.533 446.215 500.158 446.215C498.883 446.215 497.863 445.796 497.097 444.958V450.469H494.486V434.377H496.893L497 435.559C497.766 434.628 498.808 434.162 500.126 434.162C501.544 434.162 502.654 434.692 503.456 435.752C504.265 436.805 504.67 438.269 504.67 440.146V440.307ZM502.07 440.081C502.07 438.921 501.838 438.001 501.372 437.32C500.914 436.64 500.255 436.3 499.396 436.3C498.328 436.3 497.562 436.74 497.097 437.621V442.777C497.569 443.68 498.343 444.131 499.417 444.131C500.248 444.131 500.896 443.798 501.361 443.132C501.834 442.459 502.07 441.442 502.07 440.081ZM517.066 440.307C517.066 442.104 516.658 443.54 515.842 444.614C515.025 445.681 513.93 446.215 512.555 446.215C511.28 446.215 510.259 445.796 509.493 444.958V450.469H506.883V434.377H509.289L509.396 435.559C510.163 434.628 511.205 434.162 512.522 434.162C513.94 434.162 515.05 434.692 515.853 435.752C516.662 436.805 517.066 438.269 517.066 440.146V440.307ZM514.467 440.081C514.467 438.921 514.234 438.001 513.769 437.32C513.31 436.64 512.651 436.3 511.792 436.3C510.725 436.3 509.959 436.74 509.493 437.621V442.777C509.966 443.68 510.739 444.131 511.813 444.131C512.644 444.131 513.292 443.798 513.758 443.132C514.23 442.459 514.467 441.442 514.467 440.081ZM518.796 440.081C518.796 438.942 519.021 437.918 519.473 437.009C519.924 436.092 520.558 435.39 521.374 434.903C522.19 434.409 523.129 434.162 524.188 434.162C525.757 434.162 527.028 434.667 528.002 435.677C528.983 436.687 529.513 438.026 529.592 439.694L529.603 440.307C529.603 441.452 529.381 442.477 528.937 443.379C528.5 444.281 527.869 444.979 527.046 445.474C526.229 445.968 525.284 446.215 524.21 446.215C522.57 446.215 521.256 445.671 520.268 444.582C519.286 443.486 518.796 442.029 518.796 440.21V440.081ZM521.406 440.307C521.406 441.503 521.653 442.441 522.147 443.121C522.642 443.794 523.329 444.131 524.21 444.131C525.091 444.131 525.775 443.787 526.262 443.1C526.756 442.412 527.003 441.406 527.003 440.081C527.003 438.907 526.749 437.976 526.24 437.288C525.739 436.601 525.055 436.257 524.188 436.257C523.336 436.257 522.66 436.597 522.158 437.277C521.657 437.951 521.406 438.96 521.406 440.307ZM537.896 436.762C537.552 436.704 537.197 436.676 536.832 436.676C535.636 436.676 534.83 437.134 534.415 438.051V446H531.805V434.377H534.297L534.361 435.677C534.992 434.667 535.865 434.162 536.982 434.162C537.355 434.162 537.663 434.212 537.906 434.312L537.896 436.762ZM543.353 431.552V434.377H545.404V436.311H543.353V442.799C543.353 443.243 543.438 443.565 543.61 443.766C543.789 443.959 544.104 444.056 544.556 444.056C544.856 444.056 545.161 444.02 545.469 443.948V445.968C544.874 446.132 544.301 446.215 543.75 446.215C541.745 446.215 540.742 445.108 540.742 442.896V436.311H538.83V434.377H540.742V431.552H543.353Z" fill="#132144"/>
</svg>
