<svg width="241" height="493" viewBox="0 0 241 493" fill="none" xmlns="http://www.w3.org/2000/svg">
<path d="M0.646447 56.6464C0.451184 56.8417 0.451184 57.1583 0.646447 57.3536L3.82843 60.5355C4.02369 60.7308 4.34027 60.7308 4.53553 60.5355C4.7308 60.3403 4.7308 60.0237 4.53553 59.8284L1.70711 57L4.53553 54.1716C4.7308 53.9763 4.7308 53.6597 4.53553 53.4645C4.34027 53.2692 4.02369 53.2692 3.82843 53.4645L0.646447 56.6464ZM117.012 57H117.512V56.5H117.012V57ZM0.646447 263.907C0.451184 264.102 0.451184 264.418 0.646447 264.614L3.82843 267.796C4.02369 267.991 4.34027 267.991 4.53553 267.796C4.7308 267.6 4.7308 267.284 4.53553 267.089L1.70711 264.26L4.53553 261.432C4.7308 261.236 4.7308 260.92 4.53553 260.725C4.34027 260.529 4.02369 260.529 3.82843 260.725L0.646447 263.907ZM117.012 489V489.5H117.512V489H117.012ZM0.646447 488.646C0.451184 488.842 0.451184 489.158 0.646447 489.354L3.82843 492.536C4.02369 492.731 4.34027 492.731 4.53553 492.536C4.7308 492.34 4.7308 492.024 4.53553 491.828L1.70711 489L4.53553 486.172C4.7308 485.976 4.7308 485.66 4.53553 485.464C4.34027 485.269 4.02369 485.269 3.82843 485.464L0.646447 488.646ZM240.354 264.614C240.549 264.418 240.549 264.102 240.354 263.907L237.172 260.725C236.976 260.529 236.66 260.529 236.464 260.725C236.269 260.92 236.269 261.236 236.464 261.432L239.293 264.26L236.464 267.089C236.269 267.284 236.269 267.6 236.464 267.796C236.66 267.991 236.976 267.991 237.172 267.796L240.354 264.614ZM1 57.5H3.41692V56.5H1V57.5ZM8.25077 57.5H13.0846V56.5H8.25077V57.5ZM17.9185 57.5H22.7523V56.5H17.9185V57.5ZM27.5861 57.5H32.42V56.5H27.5861V57.5ZM37.2538 57.5H42.0877V56.5H37.2538V57.5ZM46.9215 57.5H51.7554V56.5H46.9215V57.5ZM56.5892 57.5H61.4231V56.5H56.5892V57.5ZM66.2569 57.5H71.0908V56.5H66.2569V57.5ZM75.9246 57.5H80.7585V56.5H75.9246V57.5ZM85.5923 57.5H90.4262V56.5H85.5923V57.5ZM95.26 57.5H100.094V56.5H95.26V57.5ZM104.928 57.5H109.762V56.5H104.928V57.5ZM114.595 57.5H117.012V56.5H114.595V57.5ZM116.512 57V59.4674H117.512V57H116.512ZM116.512 64.4021V69.3369H117.512V64.4021H116.512ZM116.512 74.2717V79.2064H117.512V74.2717H116.512ZM116.512 84.1412V89.076H117.512V84.1412H116.512ZM116.512 94.0107V98.9455H117.512V94.0107H116.512ZM116.512 103.88V108.815H117.512V103.88H116.512ZM116.512 113.75V118.685H117.512V113.75H116.512ZM116.512 123.619V128.554H117.512V123.619H116.512ZM116.512 133.489V138.424H117.512V133.489H116.512ZM116.512 143.358V148.293H117.512V143.358H116.512ZM116.512 153.228V158.163H117.512V153.228H116.512ZM116.512 163.097V168.032H117.512V163.097H116.512ZM116.512 172.967V177.902H117.512V172.967H116.512ZM116.512 182.837V187.771H117.512V182.837H116.512ZM116.512 192.706V197.641H117.512V192.706H116.512ZM116.512 202.576V207.51H117.512V202.576H116.512ZM116.512 212.445V217.38H117.512V212.445H116.512ZM116.512 222.315V227.249H117.512V222.315H116.512ZM116.512 232.184V237.119H117.512V232.184H116.512ZM116.512 242.054V246.989H117.512V242.054H116.512ZM116.512 251.923V256.858H117.512V251.923H116.512ZM116.512 261.793V264.26H117.512V261.793H116.512ZM1 264.76H3.41692V263.76H1V264.76ZM8.25077 264.76H13.0846V263.76H8.25077V264.76ZM17.9185 264.76H22.7523V263.76H17.9185V264.76ZM27.5861 264.76H32.42V263.76H27.5861V264.76ZM37.2538 264.76H42.0877V263.76H37.2538V264.76ZM46.9215 264.76H51.7554V263.76H46.9215V264.76ZM56.5892 264.76H61.4231V263.76H56.5892V264.76ZM66.2569 264.76H71.0908V263.76H66.2569V264.76ZM75.9246 264.76H80.7585V263.76H75.9246V264.76ZM85.5923 264.76H90.4262V263.76H85.5923V264.76ZM95.26 264.76H100.094V263.76H95.26V264.76ZM104.928 264.76H109.762V263.76H104.928V264.76ZM114.595 264.76H117.012V263.76H114.595V264.76ZM1 489.5H3.41692V488.5H1V489.5ZM8.25077 489.5H13.0846V488.5H8.25077V489.5ZM17.9185 489.5H22.7523V488.5H17.9185V489.5ZM27.5861 489.5H32.42V488.5H27.5861V489.5ZM37.2538 489.5H42.0877V488.5H37.2538V489.5ZM46.9215 489.5H51.7554V488.5H46.9215V489.5ZM56.5892 489.5H61.4231V488.5H56.5892V489.5ZM66.2569 489.5H71.0908V488.5H66.2569V489.5ZM75.9246 489.5H80.7585V488.5H75.9246V489.5ZM85.5923 489.5H90.4262V488.5H85.5923V489.5ZM95.26 489.5H100.094V488.5H95.26V489.5ZM104.928 489.5H109.762V488.5H104.928V489.5ZM114.595 489.5H117.012V488.5H114.595V489.5ZM117.512 489V486.446H116.512V489H117.512ZM117.512 481.338V476.231H116.512V481.338H117.512ZM117.512 471.123V466.015H116.512V471.123H117.512ZM117.512 460.908V455.8H116.512V460.908H117.512ZM117.512 450.692V445.584H116.512V450.692H117.512ZM117.512 440.477V435.369H116.512V440.477H117.512ZM117.512 430.261V425.153H116.512V430.261H117.512ZM117.512 420.046V414.938H116.512V420.046H117.512ZM117.512 409.83V404.723H116.512V409.83H117.512ZM117.512 399.615V394.507H116.512V399.615H117.512ZM117.512 389.399V384.292H116.512V389.399H117.512ZM117.512 379.184V374.076H116.512V379.184H117.512ZM117.512 368.968V363.861H116.512V368.968H117.512ZM117.512 358.753V353.645H116.512V358.753H117.512ZM117.512 348.538V343.43H116.512V348.538H117.512ZM117.512 338.322V333.214H116.512V338.322H117.512ZM117.512 328.107V322.999H116.512V328.107H117.512ZM117.512 317.891V312.783H116.512V317.891H117.512ZM117.512 307.676V302.568H116.512V307.676H117.512ZM117.512 297.46V292.353H116.512V297.46H117.512ZM117.512 287.245V282.137H116.512V287.245H117.512ZM117.512 277.029V271.922H116.512V277.029H117.512ZM117.512 266.814V264.26H116.512V266.814H117.512ZM117.012 264.76H119.575V263.76H117.012V264.76ZM124.699 264.76H129.824V263.76H124.699V264.76ZM134.948 264.76H140.072V263.76H134.948V264.76ZM145.197 264.76H150.321V263.76H145.197V264.76ZM155.446 264.76H160.57V263.76H155.446V264.76ZM165.695 264.76H170.819V263.76H165.695V264.76ZM175.944 264.76H181.068V263.76H175.944V264.76ZM186.193 264.76H191.317V263.76H186.193V264.76ZM196.442 264.76H201.566V263.76H196.442V264.76ZM206.691 264.76H211.815V263.76H206.691V264.76ZM216.94 264.76H222.064V263.76H216.94V264.76ZM227.189 264.76H232.313V263.76H227.189V264.76ZM237.438 264.76H240V263.76H237.438V264.76Z" fill="#A3A3A3"/>
<circle opacity="0.25" cx="64" cy="25" r="25" fill="#377DFF" fill-opacity="0.5"/>
<path d="M66.3011 16.5455H63.7358L59.3807 19.392V21.9148L63.5568 19.1875H63.6591V34H66.3011V16.5455Z" fill="#377DFF"/>
<circle opacity="0.25" cx="64" cy="459" r="25" fill="#377DFF" fill-opacity="0.5"/>
<path d="M64.7557 468.239C68.3182 468.239 70.9347 466.108 70.9261 463.21C70.9347 461.003 69.5966 459.418 67.2784 459.06V458.923C69.1023 458.455 70.2869 457.023 70.2784 455.062C70.2869 452.497 68.1818 450.307 64.8239 450.307C61.6193 450.307 59.0455 452.241 58.9602 455.08H61.5085C61.5682 453.477 63.0767 452.506 64.7898 452.506C66.571 452.506 67.7386 453.588 67.7301 455.199C67.7386 456.886 66.3835 457.994 64.4489 457.994H62.9744V460.142H64.4489C66.8693 460.142 68.267 461.369 68.267 463.125C68.267 464.821 66.7926 465.972 64.7386 465.972C62.8466 465.972 61.3722 465 61.2699 463.449H58.5938C58.7045 466.295 61.2273 468.239 64.7557 468.239Z" fill="#377DFF"/>
<circle opacity="0.25" cx="64" cy="234" r="25" fill="#377DFF" fill-opacity="0.5"/>
<path d="M58.679 243H70.1676V240.741H62.3097V240.614L65.7784 236.983C68.9744 233.753 69.8864 232.21 69.8864 230.259C69.8864 227.455 67.6023 225.307 64.3125 225.307C61.0483 225.307 58.6619 227.42 58.6619 230.608H61.1761C61.1676 228.733 62.3778 227.506 64.2614 227.506C66.0341 227.506 67.3807 228.597 67.3807 230.335C67.3807 231.878 66.4602 232.986 64.5852 234.972L58.679 241.091V243Z" fill="#377DFF"/>
</svg>
