<svg width="936" height="328" viewBox="0 0 936 328" fill="none" xmlns="http://www.w3.org/2000/svg">
<path d="M16.5709 22.6687C16.5709 22.6687 89.4494 86.1999 120.932 139.427C154.09 195.487 174.212 295.711 174.212 295.711" stroke="#377DFF"/>
<circle cx="10" cy="15" r="9" stroke="#377DFF" stroke-width="2"/>
<circle cx="175" cy="304" r="9" stroke="#377DFF" stroke-width="2"/>
<path d="M678.951 304.161C678.951 304.161 696.543 209.852 726.069 156.452C757.166 100.211 832.341 33.5732 832.341 33.5732" stroke="#377DFF"/>
<path d="M671.214 305.823C675.417 303.396 680.858 304.887 683.352 309.207C685.846 313.526 684.417 318.984 680.214 321.411C676.01 323.838 670.569 322.347 668.075 318.027C665.581 313.708 667.01 308.25 671.214 305.823Z" stroke="#377DFF" stroke-width="2"/>
<path d="M834.487 20.031C838.691 17.6038 844.132 19.0956 846.626 23.4151C849.119 27.7346 847.691 33.1923 843.487 35.6194C839.283 38.0466 833.842 36.5548 831.348 32.2353C828.855 27.9158 830.283 22.4581 834.487 20.031Z" stroke="#377DFF" stroke-width="2"/>
<path d="M433 24.5V294.5" stroke="#377DFF"/>
<circle cx="433" cy="15" r="9" stroke="#377DFF" stroke-width="2"/>
<circle cx="433" cy="304" r="9" stroke="#377DFF" stroke-width="2"/>
</svg>
