<svg width="30" height="30" viewBox="0 0 30 30" fill="none" xmlns="http://www.w3.org/2000/svg">
<path opacity="0.5" d="M27.5 12.5512H2.5V23.1931C2.5 24.1339 2.89509 25.0361 3.59835 25.7014C4.30161 26.3666 5.25544 26.7404 6.25 26.7404H23.75C24.7446 26.7404 25.6984 26.3666 26.4017 25.7014C27.1049 25.0361 27.5 24.1339 27.5 23.1931V12.5512ZM8.75 10.1864C8.41848 10.1864 8.10054 10.0618 7.86612 9.84004C7.6317 9.61829 7.5 9.31754 7.5 9.00394V4.27423C7.5 3.96063 7.6317 3.65987 7.86612 3.43812C8.10054 3.21637 8.41848 3.0918 8.75 3.0918C9.08152 3.0918 9.39946 3.21637 9.63388 3.43812C9.8683 3.65987 10 3.96063 10 4.27423V9.00394C10 9.31754 9.8683 9.61829 9.63388 9.84004C9.39946 10.0618 9.08152 10.1864 8.75 10.1864ZM21.25 10.1864C20.9185 10.1864 20.6005 10.0618 20.3661 9.84004C20.1317 9.61829 20 9.31754 20 9.00394V4.27423C20 3.96063 20.1317 3.65987 20.3661 3.43812C20.6005 3.21637 20.9185 3.0918 21.25 3.0918C21.5815 3.0918 21.8995 3.21637 22.1339 3.43812C22.3683 3.65987 22.5 3.96063 22.5 4.27423V9.00394C22.5 9.31754 22.3683 9.61829 22.1339 9.84004C21.8995 10.0618 21.5815 10.1864 21.25 10.1864Z" fill="#377DFF"/>
<path d="M23.75 5.45667H22.5V9.00395C22.5 9.31755 22.3683 9.61831 22.1339 9.84005C21.8995 10.0618 21.5815 10.1864 21.25 10.1864C20.9185 10.1864 20.6005 10.0618 20.3661 9.84005C20.1317 9.61831 20 9.31755 20 9.00395V5.45667H10V9.00395C10 9.31755 9.8683 9.61831 9.63388 9.84005C9.39946 10.0618 9.08152 10.1864 8.75 10.1864C8.41848 10.1864 8.10054 10.0618 7.86612 9.84005C7.6317 9.61831 7.5 9.31755 7.5 9.00395V5.45667H6.25C5.25544 5.45667 4.30161 5.8304 3.59835 6.49564C2.89509 7.16089 2.5 8.06315 2.5 9.00395V12.5512H27.5V9.00395C27.5 8.06315 27.1049 7.16089 26.4017 6.49564C25.6984 5.8304 24.7446 5.45667 23.75 5.45667Z" fill="#377DFF"/>
</svg>
