<svg width="30" height="30" viewBox="0 0 30 30" fill="none" xmlns="http://www.w3.org/2000/svg">
<path d="M15 2.74304C7.75195 2.74304 1.875 8.30231 1.875 15.1585C1.875 22.0148 7.75195 27.574 15 27.574C22.248 27.574 28.125 22.0148 28.125 15.1585C28.125 8.30231 22.248 2.74304 15 2.74304ZM20.1709 18.9747L19.333 20.0555C19.3148 20.079 19.2918 20.0989 19.2654 20.114C19.2391 20.1291 19.2098 20.1392 19.1793 20.1435C19.1488 20.1479 19.1177 20.1465 19.0878 20.1395C19.0578 20.1325 19.0297 20.1199 19.0049 20.1026L14.1592 16.7604C14.129 16.7399 14.1045 16.7128 14.0876 16.6814C14.0708 16.6501 14.0622 16.6154 14.0625 16.5802V8.95079C14.0625 8.82886 14.168 8.72909 14.2969 8.72909H15.7061C15.835 8.72909 15.9404 8.82886 15.9404 8.95079V15.8098L20.1182 18.667C20.2236 18.7363 20.2471 18.8749 20.1709 18.9747Z" fill="#377DFF"/>
</svg>
