<svg width="150" height="150" viewBox="0 0 150 150" fill="none" xmlns="http://www.w3.org/2000/svg">
<path d="M103.125 65.332H46.875C46.2305 65.332 45.7031 65.8594 45.7031 66.5039V125.391C45.7031 126.035 46.2305 126.562 46.875 126.562H103.125C103.77 126.562 104.297 126.035 104.297 125.391V66.5039C104.297 65.8594 103.77 65.332 103.125 65.332ZM55.0781 74.707H94.9219V91.8457H55.0781V74.707ZM94.9219 117.188H55.0781V100.049H94.9219V117.188Z" fill="#377DFF"/>
<path d="M62.1094 109.57C62.1094 110.814 62.6032 112.006 63.4823 112.885C64.3614 113.764 65.5537 114.258 66.7969 114.258C68.0401 114.258 69.2324 113.764 70.1114 112.885C70.9905 112.006 71.4844 110.814 71.4844 109.57C71.4844 108.327 70.9905 107.135 70.1114 106.256C69.2324 105.377 68.0401 104.883 66.7969 104.883C65.5537 104.883 64.3614 105.377 63.4823 106.256C62.6032 107.135 62.1094 108.327 62.1094 109.57ZM62.1094 83.4961C62.1094 84.7393 62.6032 85.9316 63.4823 86.8107C64.3614 87.6897 65.5537 88.1836 66.7969 88.1836C68.0401 88.1836 69.2324 87.6897 70.1114 86.8107C70.9905 85.9316 71.4844 84.7393 71.4844 83.4961C71.4844 82.2529 70.9905 81.0606 70.1114 80.1815C69.2324 79.3025 68.0401 78.8086 66.7969 78.8086C65.5537 78.8086 64.3614 79.3025 63.4823 80.1815C62.6032 81.0606 62.1094 82.2529 62.1094 83.4961Z" fill="#377DFF"/>
<path d="M118.858 54.0381C112.149 36.3281 95.0541 23.7305 75.0297 23.7305C55.0053 23.7305 37.9106 36.3135 31.2016 54.0234C18.5893 57.3486 9.30219 68.8769 9.37543 82.5586C9.46332 97.8516 21.3286 110.288 36.27 111.621C36.9584 111.68 37.5444 111.138 37.5444 110.449V101.602C37.5444 101.016 37.1049 100.518 36.519 100.444C32.5639 99.9463 28.8286 98.2178 25.9575 95.3906C22.4418 91.9482 20.5082 87.3193 20.5082 82.4121C20.5082 78.3105 21.8412 74.4434 24.3461 71.2207C26.7924 68.0859 30.2348 65.8154 34.0287 64.8193L39.5805 63.3545L41.6166 57.9785C42.8764 54.6387 44.6342 51.5039 46.8461 48.6768C49.0287 45.8643 51.6215 43.4033 54.5219 41.3525C60.5424 37.1191 67.6323 34.8779 75.0297 34.8779C82.4272 34.8779 89.517 37.1191 95.5375 41.3672C98.4526 43.418 101.031 45.8789 103.213 48.6914C105.425 51.5186 107.183 54.6533 108.443 57.9932L110.464 63.3545L116.001 64.8193C123.941 66.9287 129.493 74.1504 129.493 82.3975C129.493 87.3193 127.559 91.9336 124.043 95.376C121.187 98.1885 117.466 99.9316 113.511 100.43C112.925 100.503 112.5 101.001 112.5 101.587V110.449C112.5 111.138 113.101 111.68 113.789 111.621C128.687 110.273 140.523 97.8516 140.625 82.5879C140.713 68.9062 131.441 57.3779 118.858 54.0381Z" fill="#377DFF"/>
</svg>
