<svg width="100" height="100" viewBox="0 0 100 100" fill="none" xmlns="http://www.w3.org/2000/svg">
<path d="M56.25 81.25H93.75V87.5H56.25V81.25Z" fill="#377DFF"/>
<path d="M56.25 65.625H93.75V71.875H56.25V65.625Z" fill="#377DFF"/>
<path d="M56.25 50H93.75V56.25H56.25V50Z" fill="#377DFF"/>
<path d="M43.7501 78.125H29.6876C23.8294 78.1315 18.1813 75.9428 13.8572 71.9904C9.5331 68.038 6.8469 62.6088 6.32833 56.7735C5.80976 50.9383 7.49647 45.1205 11.0558 40.4675C14.6151 35.8145 19.7888 32.6641 25.5564 31.6375C27.0172 23.9989 31.2737 17.1795 37.4942 12.5118C43.7147 7.84415 51.4521 5.66366 59.1945 6.39641C66.9369 7.12917 74.1279 10.7225 79.3623 16.4743C84.5967 22.2261 87.4983 29.723 87.5001 37.5H81.2501C81.2461 31.1087 78.7942 24.9618 74.3983 20.3225C70.0024 15.6831 63.9964 12.9038 57.6147 12.5557C51.233 12.2076 44.9603 14.3172 40.0859 18.4509C35.2114 22.5846 32.1055 28.4283 31.4064 34.7812L31.1251 37.3875L28.5095 37.5625C24.0584 37.8568 19.8966 39.8714 16.9045 43.1799C13.9124 46.4884 12.325 50.8312 12.4781 55.2894C12.6311 59.7475 14.5127 63.9712 17.7247 67.0667C20.9366 70.1622 25.2269 71.8866 29.6876 71.875H43.7501V78.125Z" fill="#377DFF"/>
</svg>
