<svg width="30" height="29" viewBox="0 0 30 29" fill="none" xmlns="http://www.w3.org/2000/svg">
<path fill-rule="evenodd" clip-rule="evenodd" d="M2.5 14.3259C3.68125 8.92928 8.82875 4.86646 15 4.86646C21.1712 4.86646 26.3188 8.92928 27.5 14.3259C26.3188 19.7225 21.1712 23.7853 15 23.7853C8.82875 23.7853 3.68125 19.7225 2.5 14.3259ZM15 20.238C16.6576 20.238 18.2473 19.6151 19.4194 18.5064C20.5915 17.3977 21.25 15.8939 21.25 14.3259C21.25 12.7579 20.5915 11.2541 19.4194 10.1454C18.2473 9.03663 16.6576 8.41374 15 8.41374C13.3424 8.41374 11.7527 9.03663 10.5806 10.1454C9.40848 11.2541 8.75 12.7579 8.75 14.3259C8.75 15.8939 9.40848 17.3977 10.5806 18.5064C11.7527 19.6151 13.3424 20.238 15 20.238ZM15 17.8732C15.9946 17.8732 16.9484 17.4994 17.6517 16.8342C18.3549 16.169 18.75 15.2667 18.75 14.3259C18.75 13.3851 18.3549 12.4828 17.6517 11.8176C16.9484 11.1523 15.9946 10.7786 15 10.7786C14.0054 10.7786 13.0516 11.1523 12.3483 11.8176C11.6451 12.4828 11.25 13.3851 11.25 14.3259C11.25 15.2667 11.6451 16.169 12.3483 16.8342C13.0516 17.4994 14.0054 17.8732 15 17.8732Z" fill="#377DFF"/>
</svg>
