<svg width="80" height="80" viewBox="0 0 80 80" fill="none" xmlns="http://www.w3.org/2000/svg">
<circle cx="40" cy="40" r="40" fill="#377DFF" fill-opacity="0.5"/>
<circle cx="40" cy="40" r="30" fill="white"/>
<circle cx="40" cy="40" r="25" fill="#377DFF" fill-opacity="0.5"/>
<path d="M41.875 49.375H53.125V51.25H41.875V49.375Z" fill="#377DFF"/>
<path d="M41.875 44.6875H53.125V46.5625H41.875V44.6875Z" fill="#377DFF"/>
<path d="M41.875 40H53.125V41.875H41.875V40Z" fill="#377DFF"/>
<path d="M38.1252 48.4375H33.9065C32.149 48.4395 30.4546 47.7828 29.1574 46.5971C27.8601 45.4114 27.0543 43.7826 26.8987 42.0321C26.7431 40.2815 27.2491 38.5361 28.3169 37.1402C29.3847 35.7443 30.9368 34.7992 32.6671 34.4912C33.1054 32.1997 34.3823 30.1538 36.2485 28.7535C38.1146 27.3532 40.4358 26.6991 42.7586 26.9189C45.0813 27.1388 47.2386 28.2168 48.8089 29.9423C50.3792 31.6678 51.2497 33.9169 51.2502 36.25H49.3752C49.374 34.3326 48.6385 32.4885 47.3197 31.0967C46.0009 29.7049 44.1991 28.8711 42.2846 28.7667C40.3701 28.6623 38.4883 29.2952 37.026 30.5353C35.5636 31.7754 34.6318 33.5285 34.4221 35.4344L34.3377 36.2162L33.553 36.2687C32.2177 36.3571 30.9692 36.9614 30.0715 37.954C29.1739 38.9465 28.6977 40.2494 28.7436 41.5868C28.7895 42.9243 29.354 44.1914 30.3176 45.12C31.2812 46.0487 32.5683 46.566 33.9065 46.5625H38.1252V48.4375Z" fill="#377DFF"/>
</svg>
