<svg width="30" height="29" viewBox="0 0 30 29" fill="none" xmlns="http://www.w3.org/2000/svg">
<g clip-path="url(#clip0_181_330)">
<path d="M21.096 0.664116C21.2795 0.764749 21.4215 0.921276 21.4988 1.10813C21.5761 1.29497 21.5842 1.5011 21.5216 1.69283L18.1447 12.0722H24.3754C24.5585 12.0721 24.7376 12.1228 24.8906 12.2179C25.0436 12.313 25.1639 12.4484 25.2364 12.6075C25.309 12.7665 25.3308 12.9421 25.2991 13.1127C25.2673 13.2833 25.1835 13.4413 25.0579 13.5674L10.0579 28.6433C9.91274 28.7893 9.7196 28.8845 9.50995 28.9134C9.3003 28.9422 9.08649 28.9031 8.90338 28.8023C8.72027 28.7015 8.57865 28.545 8.50161 28.3583C8.42456 28.1716 8.41664 27.9657 8.47912 27.7742L11.856 17.3931H5.62537C5.44227 17.3932 5.26315 17.3425 5.11014 17.2474C4.95712 17.1523 4.83689 17.0169 4.76431 16.8578C4.69172 16.6988 4.66995 16.5232 4.70169 16.3526C4.73342 16.182 4.81726 16.024 4.94287 15.8979L19.9429 0.82197C20.0878 0.676175 20.2807 0.581054 20.49 0.552072C20.6994 0.523091 20.913 0.561954 21.096 0.662342V0.664116Z" fill="#377DFF"/>
</g>
<defs>
<clipPath id="clip0_181_330">
<rect width="30" height="28.3783" fill="white" transform="translate(0 0.544189)"/>
</clipPath>
</defs>
</svg>
